<?xml version="1.0" encoding="UTF-8" standalone="no"?>
<!DOCTYPE svg PUBLIC "-//W3C//DTD SVG 1.1//EN" "http://www.w3.org/Graphics/SVG/1.1/DTD/svg11.dtd">
<svg xmlns="http://www.w3.org/2000/svg" xmlns:xl="http://www.w3.org/1999/xlink"
     version="1.1" viewBox="165.32 413.26 116.72 72.24" width="116.72"
     height="72.24">
    <defs>
        <linearGradient x1="0" x2="1" id="Gradient" gradientUnits="userSpaceOnUse">
            <stop offset="0" stop-color="#b09868"/>
            <stop offset=".2237" stop-color="#d3b589"/>
            <stop offset="1" stop-color="#d3b589"/>
        </linearGradient>
        <linearGradient id="Obj_Gradient" xl:href="#Gradient"
                        gradientTransform="translate(165.32 449.38) scale(116.72)"/>
    </defs>
    <metadata>Produced by OmniGraffle 7.18.6\n2023-01-21 15:24:33 +0000</metadata>
    <g id="Canvas_1" fill-opacity="1" stroke="none" stroke-dasharray="none" stroke-opacity="1" fill="none">
        <title>Canvas 1</title>
        <g id="Canvas_1_Layer_1">
            <title>Layer 1</title>
            <g id="Graphic_61">
                <path d="M 167.35 478.53 C 167.99 479.24 168.76 479.8 169.67 480.21 C 170.57 480.63 171.59 480.83 172.72 480.83 C 173.83 480.83 174.85 480.62 175.76 480.21 C 176.67 479.79 177.45 479.23 178.09 478.53 C 178.73 477.82 179.23 477.01 179.57 476.1 C 179.92 475.18 180.09 474.22 180.09 473.2 L 180.09 473.16 C 180.09 472.14 179.92 471.18 179.57 470.26 C 179.22 469.34 178.73 468.53 178.09 467.83 C 177.45 467.12 176.67 466.56 175.76 466.15 C 174.85 465.73 173.84 465.53 172.72 465.53 C 171.59 465.53 170.57 465.74 169.67 466.15 C 168.77 466.57 167.99 467.13 167.35 467.83 C 166.71 468.54 166.21 469.35 165.87 470.26 C 165.52 471.18 165.35 472.14 165.35 473.16 L 165.35 473.2 C 165.35 474.22 165.52 475.18 165.87 476.1 C 166.21 477.02 166.71 477.83 167.35 478.53 Z M 165.81 473.14 C 165.81 472.19 165.97 471.28 166.3 470.41 C 166.62 469.54 167.09 468.77 167.7 468.11 C 168.31 467.45 169.03 466.93 169.87 466.53 C 170.71 466.14 171.65 465.94 172.7 465.94 C 173.73 465.94 174.67 466.14 175.53 466.54 C 176.38 466.94 177.11 467.48 177.72 468.14 C 178.33 468.8 178.8 469.57 179.13 470.45 C 179.46 471.33 179.63 472.24 179.63 473.18 L 179.63 473.22 C 179.63 474.18 179.47 475.09 179.14 475.96 C 178.82 476.83 178.35 477.59 177.74 478.25 C 177.13 478.91 176.41 479.43 175.56 479.83 C 174.71 480.23 173.77 480.42 172.74 480.42 C 171.71 480.42 170.77 480.22 169.91 479.82 C 169.06 479.42 168.33 478.89 167.72 478.22 C 167.11 477.56 166.64 476.79 166.31 475.91 C 165.98 475.04 165.81 474.12 165.81 473.18 Z M 205.25 480.59 L 205.25 466.55 L 198.84 475.7 L 198.82 475.7 L 192.41 466.55 L 192.41 480.59 L 191.94 480.59 L 191.94 465.77 L 192.38 465.77 L 198.84 474.96 L 205.3 465.77 L 205.72 465.77 L 205.72 480.59 Z M 242.53 465.77 L 242.53 472.9 L 253.11 472.9 L 253.11 465.77 L 253.58 465.77 L 253.58 480.59 L 253.11 480.59 L 253.11 473.33 L 242.53 473.33 L 242.53 480.59 L 242.06 480.59 L 242.06 465.77 Z M 277.23 476.14 L 279.35 480.59 L 279.86 480.59 L 272.73 465.67 L 272.33 465.67 L 265.2 480.59 L 265.69 480.59 L 267.81 476.14 Z M 272.51 466.28 L 277.02 475.72 L 268 475.72 Z M 281.59 485.09 L 232.76 485.03 L 223.53 465.66 L 223.13 465.66 L 213.77 485 L 165.84 484.94 L 165.84 482.09 L 165.42 482.09 L 165.42 485.36 L 213.57 485.42 L 214.06 485.42 L 218.6 476.13 L 228.04 476.13 L 232.46 485.44 L 232.97 485.44 L 282.02 485.5 L 282.02 481.55 L 281.6 481.55 L 281.6 485.09 Z M 218.81 475.72 L 223.32 466.28 L 227.83 475.72 Z M 277.5 458.21 L 277.5 446.2 L 275.05 446.2 L 275.05 443.4 L 274.63 443.4 L 274.63 446.2 L 272.42 446.2 L 272.42 457.1 L 271.88 457.1 L 271.88 444.08 L 271.35 444.08 L 271.35 443.55 L 267.33 443.55 L 267.33 444.08 L 266.8 444.08 L 266.8 450.1 L 262.34 450.1 L 262.34 453.89 L 258.18 453.89 L 258.18 444.7 L 250.7 444.7 L 250.7 448.44 L 244.46 448.44 L 244.46 444.7 L 241.84 444.7 L 241.84 440.87 L 238.27 440.87 L 238.27 438.19 L 237.85 438.19 L 237.85 440.87 L 233.98 440.87 L 233.98 444.7 L 231.66 444.7 L 231.66 448.93 L 229.34 448.93 L 229.34 427 L 227.28 427 L 227.28 423.63 L 226 421.6 L 225.69 421.6 L 225.41 414.52 L 223.49 414.52 L 223.49 413.26 L 223.07 413.26 L 223.07 414.52 L 221.32 414.52 L 221.04 421.6 L 220.56 421.6 L 219.28 423.63 L 219.28 427 L 217.22 427 L 217.22 443.9 L 214.94 441.63 L 214.94 433.76 L 213.24 433.76 L 213.24 432.26 L 210.19 431.9 L 207.39 432.27 L 207.39 433.77 L 205.44 433.77 L 205.44 450.56 L 202.73 450.56 L 202.73 448.37 L 200.93 445.72 L 185.95 445.72 L 184.16 448.41 L 184.16 449.96 L 181.16 449.96 L 181.16 452.92 L 177.85 452.92 L 177.85 448.86 L 176.89 448.86 L 176.89 445.36 L 175.38 445.36 L 175.38 443.06 L 174.96 443.06 L 174.96 445.36 L 173.45 445.36 L 173.45 448.86 L 172.49 448.86 L 172.49 457.67 L 170.4 457.67 L 170.4 451.1 L 169.87 451.1 L 169.87 450.56 L 165.85 450.56 L 165.85 451.1 L 165.32 451.1 L 165.32 463 L 165.74 463 L 165.74 451.52 L 166.27 451.52 L 166.27 450.98 L 169.45 450.98 L 169.45 451.52 L 169.98 451.52 L 169.98 458.09 L 175.17 458.09 L 175.17 457.67 L 172.92 457.67 L 172.92 449.28 L 173.88 449.28 L 173.88 445.78 L 176.47 445.78 L 176.47 449.28 L 177.43 449.28 L 177.43 461.4 L 172.72 461.4 L 172.72 461.82 L 184.16 461.82 L 202.73 461.82 L 205.44 461.82 L 206.63 461.82 L 208.83 461.82 L 209.21 461.82 L 211.41 461.82 L 211.79 461.82 L 213.99 461.82 L 214.92 461.82 L 217.2 461.82 L 219.26 461.82 L 219.41 461.82 L 227.26 461.82 L 227.27 461.82 L 229.31 461.82 L 231.63 461.82 L 244.44 461.82 L 250.68 461.82 L 258.16 461.82 L 279.59 461.82 L 279.59 461.4 L 265.73 461.4 L 265.73 456.18 L 267.2 456.18 L 267.2 444.5 L 267.73 444.5 L 267.73 443.97 L 270.91 443.97 L 270.91 444.5 L 271.44 444.5 L 271.44 457.52 L 272.83 457.52 L 272.83 446.62 L 277.07 446.62 L 277.07 458.63 L 281.62 458.63 L 281.62 464.43 L 282.04 464.43 L 282.04 458.2 L 277.5 458.2 Z M 234.39 441.29 L 241.41 441.29 L 241.41 444.69 L 234.39 444.69 Z M 225.76 422.03 L 226.85 423.75 L 226.85 450.8 L 226.23 435.3 L 226.23 435.24 L 225.7 422.02 L 225.76 422.02 Z M 221.7 414.96 L 224.99 414.96 L 225.8 435.32 L 225.8 461.41 L 224.89 461.41 L 224.89 426.25 L 224.47 426.25 L 224.47 461.41 L 223.56 461.41 L 223.56 426.25 L 223.14 426.25 L 223.14 461.41 L 222.23 461.41 L 222.23 426.25 L 221.81 426.25 L 221.81 461.41 L 220.9 461.41 L 220.9 435.34 Z M 220.77 422.03 L 221 422.03 L 219.69 455.06 L 219.69 423.75 Z M 207.8 432.63 L 210.18 432.32 L 212.81 432.63 L 212.81 433.76 L 207.81 433.76 L 207.81 432.63 Z M 186.26 448.22 L 186.26 446.14 L 200.59 446.14 L 200.59 448.22 Z M 200.59 448.64 L 200.59 461.4 L 186.26 461.4 L 186.26 448.64 Z M 185.84 448.22 L 184.78 448.22 L 185.84 446.63 Z M 201.02 446.62 L 202.1 448.22 L 201.02 448.22 Z M 177.83 461.4 L 177.83 453.34 L 181.14 453.34 L 181.14 457.3 L 181.56 457.3 L 181.56 450.38 L 184.13 450.38 L 184.13 461.4 L 177.83 461.4 Z M 184.57 448.64 L 185.84 448.64 L 185.84 461.4 L 184.57 461.4 Z M 201.02 461.4 L 201.02 448.64 L 202.29 448.64 L 202.29 461.4 Z M 202.71 461.4 L 202.71 450.98 L 205.42 450.98 L 205.42 461.4 Z M 207.04 461.4 L 207.04 435.88 L 208.4 435.88 L 208.4 461.4 Z M 209.62 461.4 L 209.62 435.88 L 210.98 435.88 L 210.98 461.4 Z M 212.21 461.4 L 212.21 435.88 L 213.57 435.88 L 213.57 461.4 Z M 213.99 461.4 L 213.99 435.46 L 211.79 435.46 L 211.79 461.4 L 211.41 461.4 L 211.41 435.46 L 209.21 435.46 L 209.21 461.4 L 208.83 461.4 L 208.83 435.46 L 206.63 435.46 L 206.63 461.4 L 205.87 461.4 L 205.87 434.18 L 207.4 434.18 L 213.25 434.18 L 214.52 434.18 L 214.52 461.4 L 213.99 461.4 Z M 214.92 461.4 L 214.92 442.23 L 217.2 444.5 L 217.2 461.4 L 214.92 461.4 Z M 217.63 461.4 L 217.63 427.42 L 219.26 427.42 L 219.26 461.4 Z M 220.47 445.97 L 220.47 461.41 L 219.86 461.41 Z M 226.22 461.4 L 226.22 445.96 L 226.83 461.4 Z M 227.27 461.4 L 227.27 427.42 L 228.9 427.42 L 228.9 461.4 Z M 229.32 461.4 L 229.32 449.35 L 231.64 449.35 L 231.64 461.4 Z M 232.07 461.4 L 232.07 445.11 L 233.97 445.11 L 241.83 445.11 L 244.03 445.11 L 244.03 461.4 Z M 244.45 461.4 L 244.45 448.85 L 250.69 448.85 L 250.69 461.4 Z M 251.11 461.4 L 251.11 445.11 L 257.74 445.11 L 257.74 461.4 Z M 265.32 455.76 L 265.32 461.4 L 258.17 461.4 L 258.17 454.31 L 264.77 454.31 L 264.77 453.89 L 262.75 453.89 L 262.75 450.53 L 266.79 450.53 L 266.79 455.76 Z M 224.89 415.53 L 221.8 415.53 L 221.8 424.21 L 224.89 424.21 Z M 224.47 417.6 L 223.56 417.6 L 223.56 415.96 L 224.47 415.96 Z M 223.14 420.08 L 223.14 421.72 L 222.23 421.72 L 222.23 420.08 Z M 222.23 419.66 L 222.23 418.02 L 223.14 418.02 L 223.14 419.66 Z M 223.56 420.08 L 224.47 420.08 L 224.47 421.72 L 223.56 421.72 Z M 223.56 419.66 L 223.56 418.02 L 224.47 418.02 L 224.47 419.66 Z M 223.14 415.96 L 223.14 417.6 L 222.23 417.6 L 222.23 415.96 Z M 222.23 422.15 L 223.14 422.15 L 223.14 423.79 L 222.23 423.79 Z M 223.56 423.78 L 223.56 422.14 L 224.47 422.14 L 224.47 423.78 Z M 252.28 447.28 L 252.7 447.28 L 252.7 450.16 L 252.28 450.16 Z M 254.22 447.28 L 254.64 447.28 L 254.64 450.16 L 254.22 450.16 Z M 256.16 447.28 L 256.58 447.28 L 256.58 450.16 L 256.16 450.16 Z M 252.28 451.68 L 252.7 451.68 L 252.7 454.56 L 252.28 454.56 Z M 254.22 451.68 L 254.64 451.68 L 254.64 454.56 L 254.22 454.56 Z M 256.16 451.68 L 256.58 451.68 L 256.58 454.56 L 256.16 454.56 Z M 252.28 456.08 L 252.7 456.08 L 252.7 458.96 L 252.28 458.96 Z M 254.22 456.08 L 254.64 456.08 L 254.64 458.96 L 254.22 458.96 Z M 256.16 456.08 L 256.58 456.08 L 256.58 458.96 L 256.16 458.96 Z M 199.72 450.4 L 187.22 450.4 L 187.22 449.94 L 199.72 449.94 Z M 199.72 452.07 L 187.22 452.07 L 187.22 451.61 L 199.72 451.61 Z M 199.72 453.74 L 187.22 453.74 L 187.22 453.28 L 199.72 453.28 Z M 199.72 455.41 L 187.22 455.41 L 187.22 454.95 L 199.72 454.95 Z M 199.72 457.08 L 187.22 457.08 L 187.22 456.62 L 199.72 456.62 Z M 199.72 458.75 L 187.22 458.75 L 187.22 458.29 L 199.72 458.29 Z M 199.72 460.42 L 187.22 460.42 L 187.22 459.96 L 199.72 459.96 Z M 218.61 430.7 L 218.19 430.7 L 218.19 428.66 L 218.61 428.66 Z M 228.26 430.7 L 227.84 430.7 L 227.84 428.66 L 228.26 428.66 Z M 218.61 434.92 L 218.19 434.92 L 218.19 432.88 L 218.61 432.88 Z M 228.26 434.92 L 227.84 434.92 L 227.84 432.88 L 228.26 432.88 Z M 218.61 439.13 L 218.19 439.13 L 218.19 437.09 L 218.61 437.09 Z M 228.26 439.13 L 227.84 439.13 L 227.84 437.09 L 228.26 437.09 Z M 218.61 443.35 L 218.19 443.35 L 218.19 441.31 L 218.61 441.31 Z M 228.26 443.35 L 227.84 443.35 L 227.84 441.31 L 228.26 441.31 Z M 218.61 447.56 L 218.19 447.56 L 218.19 445.52 L 218.61 445.52 Z M 228.26 447.56 L 227.84 447.56 L 227.84 445.52 L 228.26 445.52 Z M 218.61 451.78 L 218.19 451.78 L 218.19 449.74 L 218.61 449.74 Z M 228.26 451.78 L 227.84 451.78 L 227.84 449.74 L 228.26 449.74 Z M 218.61 455.99 L 218.19 455.99 L 218.19 453.95 L 218.61 453.95 Z M 228.26 455.99 L 227.84 455.99 L 227.84 453.95 L 228.26 453.95 Z M 218.61 460.21 L 218.19 460.21 L 218.19 458.17 L 218.61 458.17 Z M 228.26 460.21 L 227.84 460.21 L 227.84 458.17 L 228.26 458.17 Z"
                      fill="url(#Obj_Gradient)"/>
            </g>
        </g>
    </g>
</svg>
