<?xml version="1.0" encoding="utf-8"?>
<!-- Generator: Adobe Illustrator 27.1.1, SVG Export Plug-In . SVG Version: 6.00 Build 0)  -->
<svg version="1.1" id="Layer_1" xmlns="http://www.w3.org/2000/svg" x="0px"
     y="0px"
     viewBox="0 0 360 504" style="enable-background:new 0 0 360 504;" xml:space="preserve">
<style type="text/css">
	.st0{fill:#212C3D;}
	.st1{fill:url(#SVGID_1_);}
	.st2{fill:url(#SVGID_00000083806771272025104020000016244071633555626660_);}
	.st3{fill:url(#SVGID_00000065793337165021362700000003919672635325507760_);}
	.st4{fill:url(#SVGID_00000176734784917719844180000000414139498198428863_);}
	.st5{fill:url(#SVGID_00000142156736750351083070000006803360218969480583_);}
	.st6{fill:url(#SVGID_00000162329557727704156310000017136074437837775805_);}
	.st7{fill:url(#SVGID_00000089567771844776612000000004974236989479987127_);}
	.st8{fill:url(#SVGID_00000163779179879210463970000013001928117155283646_);}
	.st9{fill:url(#SVGID_00000093897370151700048620000018445146415729043368_);}
	.st10{fill:url(#SVGID_00000168799526933209921850000017891698202981111735_);}
	.st11{fill:url(#SVGID_00000117667136963787328960000009626813008492386746_);}
	.st12{fill:url(#SVGID_00000075850616315025403380000011013447195472326575_);}
	.st13{fill:url(#SVGID_00000114048937631055256260000013092766778919626905_);}
	.st14{fill:url(#SVGID_00000127008635965573719580000009667491932560129179_);}
	.st15{fill:url(#SVGID_00000142898202741170317020000009052813576762361997_);}
	.st16{fill:url(#SVGID_00000157991814812390483120000015874374102407239848_);}
	.st17{fill:url(#SVGID_00000148625615614077732060000013235074946968243099_);}
	.st18{fill:url(#SVGID_00000070101891885798408210000016815621014307699084_);}
	.st19{fill:url(#SVGID_00000145054154406089277500000007485847992525158077_);}
	.st20{fill:url(#SVGID_00000089541385121984797540000005306432210249811356_);}
	.st21{fill:url(#SVGID_00000114050387999120602590000003778368403479982007_);}
	.st22{fill:url(#SVGID_00000012450205677351257640000007677484763448493704_);}
	.st23{fill:url(#SVGID_00000183946688680077524690000015747703011467739267_);}
	.st24{fill:url(#SVGID_00000044897095419831941790000010247527959154268291_);}
	.st25{fill:url(#SVGID_00000159442891047226485740000017784307181604763778_);}
	.st26{fill:url(#SVGID_00000001635557631253757050000003399726109191103380_);}
	.st27{fill:url(#SVGID_00000054241464566052874830000004223710756124096672_);}
	.st28{fill:url(#SVGID_00000039814257117069520670000002365531216937453233_);}
	.st29{fill:url(#SVGID_00000033330231645832908370000009551103718769486261_);}
	.st30{fill:#FFFFFF;}
	.st31{font-family:'BodoniSvtyTwoITCTT-Bold';}
	.st32{font-size:14.8181px;}
	.st33{letter-spacing:4;}
	.st34{fill:none;}
	.st35{font-family:'BodoniSvtyTwoITCTT-Book';}
	.st36{font-size:10px;}
	.st37{fill:url(#SVGID_00000025437509706821749410000001278626220294313381_);}
	.st38{fill:url(#SVGID_00000128476226178929053390000007358189038215102344_);}
	.st39{fill:url(#SVGID_00000034796276622379557690000011883617098521382532_);}
	.st40{fill:url(#SVGID_00000129901559617895296090000009688928973355851448_);}
	.st41{font-size:11px;}
	.st42{fill:#E11F26;}
</style>
    <g id="m6J4I2_1_">
</g>
    <g>
	<rect x="0" y="0" class="st0" width="360" height="504"/>
        <g>
		<linearGradient id="SVGID_1_" gradientUnits="userSpaceOnUse" x1="114.4014" y1="-81.5244" x2="517.3656"
                        y2="321.4398">
			<stop offset="0" style="stop-color:#D3B589"/>
            <stop offset="0.0701" style="stop-color:#CCAF83"/>
            <stop offset="0.1736" style="stop-color:#B89E73"/>
            <stop offset="0.2972" style="stop-color:#978358"/>
            <stop offset="0.3942" style="stop-color:#796A3F"/>
            <stop offset="0.4168" style="stop-color:#897C51"/>
            <stop offset="0.4625" style="stop-color:#B4AB81"/>
            <stop offset="0.5264" style="stop-color:#F7F7CD"/>
            <stop offset="0.5331" style="stop-color:#FFFFD5"/>
            <stop offset="0.5549" style="stop-color:#EEE9BE"/>
            <stop offset="0.5868" style="stop-color:#DBD0A3"/>
            <stop offset="0.6235" style="stop-color:#CBBB8D"/>
            <stop offset="0.6663" style="stop-color:#BFAB7C"/>
            <stop offset="0.7193" style="stop-color:#B6A071"/>
            <stop offset="0.7936" style="stop-color:#B19A6A"/>
            <stop offset="1" style="stop-color:#B09868"/>
		</linearGradient>
            <polygon class="st1" points="334.94,252 333.98,252 333.98,26.02 180,26.02 180,25.06 334.94,25.06 		"/>

            <linearGradient id="SVGID_00000081623774083500668210000004862841426393836432_"
                            gradientUnits="userSpaceOnUse" x1="177.162" y1="-144.285" x2="580.1251" y2="258.6782">
			<stop offset="0" style="stop-color:#D3B589"/>
                <stop offset="0.0701" style="stop-color:#CCAF83"/>
                <stop offset="0.1736" style="stop-color:#B89E73"/>
                <stop offset="0.2972" style="stop-color:#978358"/>
                <stop offset="0.3942" style="stop-color:#796A3F"/>
                <stop offset="0.4168" style="stop-color:#897C51"/>
                <stop offset="0.4625" style="stop-color:#B4AB81"/>
                <stop offset="0.5264" style="stop-color:#F7F7CD"/>
                <stop offset="0.5331" style="stop-color:#FFFFD5"/>
                <stop offset="0.5549" style="stop-color:#EEE9BE"/>
                <stop offset="0.5868" style="stop-color:#DBD0A3"/>
                <stop offset="0.6235" style="stop-color:#CBBB8D"/>
                <stop offset="0.6663" style="stop-color:#BFAB7C"/>
                <stop offset="0.7193" style="stop-color:#B6A071"/>
                <stop offset="0.7936" style="stop-color:#B19A6A"/>
                <stop offset="1" style="stop-color:#B09868"/>
		</linearGradient>
            <polygon style="fill:url(#SVGID_00000081623774083500668210000004862841426393836432_);" points="360,26.02 333.98,26.02
			333.98,0 334.94,0 334.94,25.06 360,25.06 		"/>

            <linearGradient id="SVGID_00000118356799551578877480000011864091333267992706_"
                            gradientUnits="userSpaceOnUse" x1="119.1906" y1="-86.3137" x2="522.1542" y2="316.6499">
			<stop offset="0" style="stop-color:#D3B589"/>
                <stop offset="0.0701" style="stop-color:#CCAF83"/>
                <stop offset="0.1736" style="stop-color:#B89E73"/>
                <stop offset="0.2972" style="stop-color:#978358"/>
                <stop offset="0.3942" style="stop-color:#796A3F"/>
                <stop offset="0.4168" style="stop-color:#897C51"/>
                <stop offset="0.4625" style="stop-color:#B4AB81"/>
                <stop offset="0.5264" style="stop-color:#F7F7CD"/>
                <stop offset="0.5331" style="stop-color:#FFFFD5"/>
                <stop offset="0.5549" style="stop-color:#EEE9BE"/>
                <stop offset="0.5868" style="stop-color:#DBD0A3"/>
                <stop offset="0.6235" style="stop-color:#CBBB8D"/>
                <stop offset="0.6663" style="stop-color:#BFAB7C"/>
                <stop offset="0.7193" style="stop-color:#B6A071"/>
                <stop offset="0.7936" style="stop-color:#B19A6A"/>
                <stop offset="1" style="stop-color:#B09868"/>
		</linearGradient>
            <polygon style="fill:url(#SVGID_00000118356799551578877480000011864091333267992706_);" points="341.32,252 340.36,252
			340.36,19.64 180,19.64 180,18.68 341.32,18.68 		"/>

            <linearGradient id="SVGID_00000093863548804448206840000014176492064189718417_"
                            gradientUnits="userSpaceOnUse" x1="109.6122" y1="-76.7353" x2="512.5757" y2="326.2283">
			<stop offset="0" style="stop-color:#D3B589"/>
                <stop offset="0.0701" style="stop-color:#CCAF83"/>
                <stop offset="0.1736" style="stop-color:#B89E73"/>
                <stop offset="0.2972" style="stop-color:#978358"/>
                <stop offset="0.3942" style="stop-color:#796A3F"/>
                <stop offset="0.4168" style="stop-color:#897C51"/>
                <stop offset="0.4625" style="stop-color:#B4AB81"/>
                <stop offset="0.5264" style="stop-color:#F7F7CD"/>
                <stop offset="0.5331" style="stop-color:#FFFFD5"/>
                <stop offset="0.5549" style="stop-color:#EEE9BE"/>
                <stop offset="0.5868" style="stop-color:#DBD0A3"/>
                <stop offset="0.6235" style="stop-color:#CBBB8D"/>
                <stop offset="0.6663" style="stop-color:#BFAB7C"/>
                <stop offset="0.7193" style="stop-color:#B6A071"/>
                <stop offset="0.7936" style="stop-color:#B19A6A"/>
                <stop offset="1" style="stop-color:#B09868"/>
		</linearGradient>
            <polygon style="fill:url(#SVGID_00000093863548804448206840000014176492064189718417_);" points="328.55,252 327.59,252
			327.59,32.41 180,32.41 180,31.45 328.55,31.45 		"/>

            <linearGradient id="SVGID_00000080201275727861859170000006792711108261513879_"
                            gradientUnits="userSpaceOnUse" x1="167.5831" y1="-134.707" x2="570.5467" y2="268.2565">
			<stop offset="0" style="stop-color:#D3B589"/>
                <stop offset="0.0701" style="stop-color:#CCAF83"/>
                <stop offset="0.1736" style="stop-color:#B89E73"/>
                <stop offset="0.2972" style="stop-color:#978358"/>
                <stop offset="0.3942" style="stop-color:#796A3F"/>
                <stop offset="0.4168" style="stop-color:#897C51"/>
                <stop offset="0.4625" style="stop-color:#B4AB81"/>
                <stop offset="0.5264" style="stop-color:#F7F7CD"/>
                <stop offset="0.5331" style="stop-color:#FFFFD5"/>
                <stop offset="0.5549" style="stop-color:#EEE9BE"/>
                <stop offset="0.5868" style="stop-color:#DBD0A3"/>
                <stop offset="0.6235" style="stop-color:#CBBB8D"/>
                <stop offset="0.6663" style="stop-color:#BFAB7C"/>
                <stop offset="0.7193" style="stop-color:#B6A071"/>
                <stop offset="0.7936" style="stop-color:#B19A6A"/>
                <stop offset="1" style="stop-color:#B09868"/>
		</linearGradient>
            <polygon style="fill:url(#SVGID_00000080201275727861859170000006792711108261513879_);" points="340.84,32.41 327.59,32.41
			327.59,19.16 328.55,19.16 328.55,31.45 340.84,31.45 		"/>

            <linearGradient id="SVGID_00000008143465232609928960000009355001084824747416_"
                            gradientUnits="userSpaceOnUse" x1="158.0165" y1="-125.1398" x2="560.98" y2="277.8237">
			<stop offset="0" style="stop-color:#D3B589"/>
                <stop offset="0.0701" style="stop-color:#CCAF83"/>
                <stop offset="0.1736" style="stop-color:#B89E73"/>
                <stop offset="0.2972" style="stop-color:#978358"/>
                <stop offset="0.3942" style="stop-color:#796A3F"/>
                <stop offset="0.4168" style="stop-color:#897C51"/>
                <stop offset="0.4625" style="stop-color:#B4AB81"/>
                <stop offset="0.5264" style="stop-color:#F7F7CD"/>
                <stop offset="0.5331" style="stop-color:#FFFFD5"/>
                <stop offset="0.5549" style="stop-color:#EEE9BE"/>
                <stop offset="0.5868" style="stop-color:#DBD0A3"/>
                <stop offset="0.6235" style="stop-color:#CBBB8D"/>
                <stop offset="0.6663" style="stop-color:#BFAB7C"/>
                <stop offset="0.7193" style="stop-color:#B6A071"/>
                <stop offset="0.7936" style="stop-color:#B19A6A"/>
                <stop offset="1" style="stop-color:#B09868"/>
		</linearGradient>

            <rect x="319.22" y="36.06" style="fill:url(#SVGID_00000008143465232609928960000009355001084824747416_);"
                  width="4.72" height="4.72"/>
	</g>
        <g>
		
			<linearGradient id="SVGID_00000053507377413893123750000000130934974997263540_"
                            gradientUnits="userSpaceOnUse" x1="-1.5616" y1="34.4385" x2="401.4013" y2="437.4015">
			<stop offset="0" style="stop-color:#D3B589"/>
                <stop offset="0.0701" style="stop-color:#CCAF83"/>
                <stop offset="0.1736" style="stop-color:#B89E73"/>
                <stop offset="0.2972" style="stop-color:#978358"/>
                <stop offset="0.3942" style="stop-color:#796A3F"/>
                <stop offset="0.4168" style="stop-color:#897C51"/>
                <stop offset="0.4625" style="stop-color:#B4AB81"/>
                <stop offset="0.5264" style="stop-color:#F7F7CD"/>
                <stop offset="0.5331" style="stop-color:#FFFFD5"/>
                <stop offset="0.5549" style="stop-color:#EEE9BE"/>
                <stop offset="0.5868" style="stop-color:#DBD0A3"/>
                <stop offset="0.6235" style="stop-color:#CBBB8D"/>
                <stop offset="0.6663" style="stop-color:#BFAB7C"/>
                <stop offset="0.7193" style="stop-color:#B6A071"/>
                <stop offset="0.7936" style="stop-color:#B19A6A"/>
                <stop offset="1" style="stop-color:#B09868"/>
		</linearGradient>
            <polygon style="fill:url(#SVGID_00000053507377413893123750000000130934974997263540_);" points="26.02,252 25.06,252
			25.06,25.06 180,25.06 180,26.02 26.02,26.02 		"/>

            <linearGradient id="SVGID_00000176010158745203511360000001080919085418421381_"
                            gradientUnits="userSpaceOnUse" x1="16.4385" y1="16.4385" x2="419.4015" y2="419.4015">
			<stop offset="0" style="stop-color:#D3B589"/>
                <stop offset="0.0701" style="stop-color:#CCAF83"/>
                <stop offset="0.1736" style="stop-color:#B89E73"/>
                <stop offset="0.2972" style="stop-color:#978358"/>
                <stop offset="0.3942" style="stop-color:#796A3F"/>
                <stop offset="0.4168" style="stop-color:#897C51"/>
                <stop offset="0.4625" style="stop-color:#B4AB81"/>
                <stop offset="0.5264" style="stop-color:#F7F7CD"/>
                <stop offset="0.5331" style="stop-color:#FFFFD5"/>
                <stop offset="0.5549" style="stop-color:#EEE9BE"/>
                <stop offset="0.5868" style="stop-color:#DBD0A3"/>
                <stop offset="0.6235" style="stop-color:#CBBB8D"/>
                <stop offset="0.6663" style="stop-color:#BFAB7C"/>
                <stop offset="0.7193" style="stop-color:#B6A071"/>
                <stop offset="0.7936" style="stop-color:#B19A6A"/>
                <stop offset="1" style="stop-color:#B09868"/>
		</linearGradient>
            <polygon style="fill:url(#SVGID_00000176010158745203511360000001080919085418421381_);" points="26.02,26.02 0,26.02 0,25.06
			25.06,25.06 25.06,0 26.02,0 		"/>

            <linearGradient id="SVGID_00000086677432161437893520000009458828171545881787_"
                            gradientUnits="userSpaceOnUse" x1="-1.5616" y1="34.4386" x2="401.4012" y2="437.4014">
			<stop offset="0" style="stop-color:#D3B589"/>
                <stop offset="0.0701" style="stop-color:#CCAF83"/>
                <stop offset="0.1736" style="stop-color:#B89E73"/>
                <stop offset="0.2972" style="stop-color:#978358"/>
                <stop offset="0.3942" style="stop-color:#796A3F"/>
                <stop offset="0.4168" style="stop-color:#897C51"/>
                <stop offset="0.4625" style="stop-color:#B4AB81"/>
                <stop offset="0.5264" style="stop-color:#F7F7CD"/>
                <stop offset="0.5331" style="stop-color:#FFFFD5"/>
                <stop offset="0.5549" style="stop-color:#EEE9BE"/>
                <stop offset="0.5868" style="stop-color:#DBD0A3"/>
                <stop offset="0.6235" style="stop-color:#CBBB8D"/>
                <stop offset="0.6663" style="stop-color:#BFAB7C"/>
                <stop offset="0.7193" style="stop-color:#B6A071"/>
                <stop offset="0.7936" style="stop-color:#B19A6A"/>
                <stop offset="1" style="stop-color:#B09868"/>
		</linearGradient>
            <polygon style="fill:url(#SVGID_00000086677432161437893520000009458828171545881787_);" points="19.64,252 18.68,252
			18.68,18.68 180,18.68 180,19.64 19.64,19.64 		"/>

            <linearGradient id="SVGID_00000155105011774742192780000016708439179249516936_"
                            gradientUnits="userSpaceOnUse" x1="-1.5616" y1="34.4386" x2="401.4018" y2="437.4019">
			<stop offset="0" style="stop-color:#D3B589"/>
                <stop offset="0.0701" style="stop-color:#CCAF83"/>
                <stop offset="0.1736" style="stop-color:#B89E73"/>
                <stop offset="0.2972" style="stop-color:#978358"/>
                <stop offset="0.3942" style="stop-color:#796A3F"/>
                <stop offset="0.4168" style="stop-color:#897C51"/>
                <stop offset="0.4625" style="stop-color:#B4AB81"/>
                <stop offset="0.5264" style="stop-color:#F7F7CD"/>
                <stop offset="0.5331" style="stop-color:#FFFFD5"/>
                <stop offset="0.5549" style="stop-color:#EEE9BE"/>
                <stop offset="0.5868" style="stop-color:#DBD0A3"/>
                <stop offset="0.6235" style="stop-color:#CBBB8D"/>
                <stop offset="0.6663" style="stop-color:#BFAB7C"/>
                <stop offset="0.7193" style="stop-color:#B6A071"/>
                <stop offset="0.7936" style="stop-color:#B19A6A"/>
                <stop offset="1" style="stop-color:#B09868"/>
		</linearGradient>
            <polygon style="fill:url(#SVGID_00000155105011774742192780000016708439179249516936_);" points="32.41,252 31.45,252
			31.45,31.45 180,31.45 180,32.41 32.41,32.41 		"/>

            <linearGradient id="SVGID_00000095329670433137380420000015322962070111128198_"
                            gradientUnits="userSpaceOnUse" x1="16.4384" y1="16.4385" x2="419.4013" y2="419.4014">
			<stop offset="0" style="stop-color:#D3B589"/>
                <stop offset="0.0701" style="stop-color:#CCAF83"/>
                <stop offset="0.1736" style="stop-color:#B89E73"/>
                <stop offset="0.2972" style="stop-color:#978358"/>
                <stop offset="0.3942" style="stop-color:#796A3F"/>
                <stop offset="0.4168" style="stop-color:#897C51"/>
                <stop offset="0.4625" style="stop-color:#B4AB81"/>
                <stop offset="0.5264" style="stop-color:#F7F7CD"/>
                <stop offset="0.5331" style="stop-color:#FFFFD5"/>
                <stop offset="0.5549" style="stop-color:#EEE9BE"/>
                <stop offset="0.5868" style="stop-color:#DBD0A3"/>
                <stop offset="0.6235" style="stop-color:#CBBB8D"/>
                <stop offset="0.6663" style="stop-color:#BFAB7C"/>
                <stop offset="0.7193" style="stop-color:#B6A071"/>
                <stop offset="0.7936" style="stop-color:#B19A6A"/>
                <stop offset="1" style="stop-color:#B09868"/>
		</linearGradient>
            <polygon style="fill:url(#SVGID_00000095329670433137380420000015322962070111128198_);" points="32.41,32.41 19.16,32.41
			19.16,31.45 31.45,31.45 31.45,19.16 32.41,19.16 		"/>

            <linearGradient id="SVGID_00000022550637330651761280000004210256950293003155_"
                            gradientUnits="userSpaceOnUse" x1="16.4385" y1="16.4385" x2="419.402" y2="419.4019">
			<stop offset="0" style="stop-color:#D3B589"/>
                <stop offset="0.0701" style="stop-color:#CCAF83"/>
                <stop offset="0.1736" style="stop-color:#B89E73"/>
                <stop offset="0.2972" style="stop-color:#978358"/>
                <stop offset="0.3942" style="stop-color:#796A3F"/>
                <stop offset="0.4168" style="stop-color:#897C51"/>
                <stop offset="0.4625" style="stop-color:#B4AB81"/>
                <stop offset="0.5264" style="stop-color:#F7F7CD"/>
                <stop offset="0.5331" style="stop-color:#FFFFD5"/>
                <stop offset="0.5549" style="stop-color:#EEE9BE"/>
                <stop offset="0.5868" style="stop-color:#DBD0A3"/>
                <stop offset="0.6235" style="stop-color:#CBBB8D"/>
                <stop offset="0.6663" style="stop-color:#BFAB7C"/>
                <stop offset="0.7193" style="stop-color:#B6A071"/>
                <stop offset="0.7936" style="stop-color:#B19A6A"/>
                <stop offset="1" style="stop-color:#B09868"/>
		</linearGradient>
            <polygon style="fill:url(#SVGID_00000022550637330651761280000004210256950293003155_);" points="36.06,36.06 40.78,36.06
			40.78,40.78 36.06,40.78 		"/>
	</g>
        <g>
		
			<linearGradient id="SVGID_00000126290985493390191840000010982492505704964272_"
                            gradientUnits="userSpaceOnUse" x1="-37.5615" y1="70.4386" x2="365.4012" y2="473.4013">
			<stop offset="0" style="stop-color:#D3B589"/>
                <stop offset="0.0701" style="stop-color:#CCAF83"/>
                <stop offset="0.1736" style="stop-color:#B89E73"/>
                <stop offset="0.2972" style="stop-color:#978358"/>
                <stop offset="0.3942" style="stop-color:#796A3F"/>
                <stop offset="0.4168" style="stop-color:#897C51"/>
                <stop offset="0.4625" style="stop-color:#B4AB81"/>
                <stop offset="0.5264" style="stop-color:#F7F7CD"/>
                <stop offset="0.5331" style="stop-color:#FFFFD5"/>
                <stop offset="0.5549" style="stop-color:#EEE9BE"/>
                <stop offset="0.5868" style="stop-color:#DBD0A3"/>
                <stop offset="0.6235" style="stop-color:#CBBB8D"/>
                <stop offset="0.6663" style="stop-color:#BFAB7C"/>
                <stop offset="0.7193" style="stop-color:#B6A071"/>
                <stop offset="0.7936" style="stop-color:#B19A6A"/>
                <stop offset="1" style="stop-color:#B09868"/>
		</linearGradient>
            <polygon style="fill:url(#SVGID_00000126290985493390191840000010982492505704964272_);" points="334.94,478.94 180,478.94
			180,477.98 333.98,477.98 333.98,252 334.94,252 		"/>

            <linearGradient id="SVGID_00000165232599591399780190000005043726386163398282_"
                            gradientUnits="userSpaceOnUse" x1="-55.5608" y1="88.4391" x2="347.4022" y2="491.4022">
			<stop offset="0" style="stop-color:#D3B589"/>
                <stop offset="0.0701" style="stop-color:#CCAF83"/>
                <stop offset="0.1736" style="stop-color:#B89E73"/>
                <stop offset="0.2972" style="stop-color:#978358"/>
                <stop offset="0.3942" style="stop-color:#796A3F"/>
                <stop offset="0.4168" style="stop-color:#897C51"/>
                <stop offset="0.4625" style="stop-color:#B4AB81"/>
                <stop offset="0.5264" style="stop-color:#F7F7CD"/>
                <stop offset="0.5331" style="stop-color:#FFFFD5"/>
                <stop offset="0.5549" style="stop-color:#EEE9BE"/>
                <stop offset="0.5868" style="stop-color:#DBD0A3"/>
                <stop offset="0.6235" style="stop-color:#CBBB8D"/>
                <stop offset="0.6663" style="stop-color:#BFAB7C"/>
                <stop offset="0.7193" style="stop-color:#B6A071"/>
                <stop offset="0.7936" style="stop-color:#B19A6A"/>
                <stop offset="1" style="stop-color:#B09868"/>
		</linearGradient>
            <polygon style="fill:url(#SVGID_00000165232599591399780190000005043726386163398282_);" points="334.94,504 333.98,504
			333.98,477.98 360,477.98 360,478.94 334.94,478.94 		"/>

            <linearGradient id="SVGID_00000178884473285058492290000000758731596023737764_"
                            gradientUnits="userSpaceOnUse" x1="-37.5621" y1="70.438" x2="365.4016" y2="473.4018">
			<stop offset="0" style="stop-color:#D3B589"/>
                <stop offset="0.0701" style="stop-color:#CCAF83"/>
                <stop offset="0.1736" style="stop-color:#B89E73"/>
                <stop offset="0.2972" style="stop-color:#978358"/>
                <stop offset="0.3942" style="stop-color:#796A3F"/>
                <stop offset="0.4168" style="stop-color:#897C51"/>
                <stop offset="0.4625" style="stop-color:#B4AB81"/>
                <stop offset="0.5264" style="stop-color:#F7F7CD"/>
                <stop offset="0.5331" style="stop-color:#FFFFD5"/>
                <stop offset="0.5549" style="stop-color:#EEE9BE"/>
                <stop offset="0.5868" style="stop-color:#DBD0A3"/>
                <stop offset="0.6235" style="stop-color:#CBBB8D"/>
                <stop offset="0.6663" style="stop-color:#BFAB7C"/>
                <stop offset="0.7193" style="stop-color:#B6A071"/>
                <stop offset="0.7936" style="stop-color:#B19A6A"/>
                <stop offset="1" style="stop-color:#B09868"/>
		</linearGradient>
            <polygon style="fill:url(#SVGID_00000178884473285058492290000000758731596023737764_);" points="341.32,485.32 180,485.32
			180,484.36 340.36,484.36 340.36,252 341.32,252 		"/>

            <linearGradient id="SVGID_00000137096160422548189100000005171063172413786251_"
                            gradientUnits="userSpaceOnUse" x1="-37.5618" y1="70.4383" x2="365.4013" y2="473.4014">
			<stop offset="0" style="stop-color:#D3B589"/>
                <stop offset="0.0701" style="stop-color:#CCAF83"/>
                <stop offset="0.1736" style="stop-color:#B89E73"/>
                <stop offset="0.2972" style="stop-color:#978358"/>
                <stop offset="0.3942" style="stop-color:#796A3F"/>
                <stop offset="0.4168" style="stop-color:#897C51"/>
                <stop offset="0.4625" style="stop-color:#B4AB81"/>
                <stop offset="0.5264" style="stop-color:#F7F7CD"/>
                <stop offset="0.5331" style="stop-color:#FFFFD5"/>
                <stop offset="0.5549" style="stop-color:#EEE9BE"/>
                <stop offset="0.5868" style="stop-color:#DBD0A3"/>
                <stop offset="0.6235" style="stop-color:#CBBB8D"/>
                <stop offset="0.6663" style="stop-color:#BFAB7C"/>
                <stop offset="0.7193" style="stop-color:#B6A071"/>
                <stop offset="0.7936" style="stop-color:#B19A6A"/>
                <stop offset="1" style="stop-color:#B09868"/>
		</linearGradient>
            <polygon style="fill:url(#SVGID_00000137096160422548189100000005171063172413786251_);" points="328.55,472.55 180,472.55
			180,471.59 327.59,471.59 327.59,252 328.55,252 		"/>

            <linearGradient id="SVGID_00000022529456231380342220000003038653498923979142_"
                            gradientUnits="userSpaceOnUse" x1="-55.5618" y1="88.4382" x2="347.4011" y2="491.4011">
			<stop offset="0" style="stop-color:#D3B589"/>
                <stop offset="0.0701" style="stop-color:#CCAF83"/>
                <stop offset="0.1736" style="stop-color:#B89E73"/>
                <stop offset="0.2972" style="stop-color:#978358"/>
                <stop offset="0.3942" style="stop-color:#796A3F"/>
                <stop offset="0.4168" style="stop-color:#897C51"/>
                <stop offset="0.4625" style="stop-color:#B4AB81"/>
                <stop offset="0.5264" style="stop-color:#F7F7CD"/>
                <stop offset="0.5331" style="stop-color:#FFFFD5"/>
                <stop offset="0.5549" style="stop-color:#EEE9BE"/>
                <stop offset="0.5868" style="stop-color:#DBD0A3"/>
                <stop offset="0.6235" style="stop-color:#CBBB8D"/>
                <stop offset="0.6663" style="stop-color:#BFAB7C"/>
                <stop offset="0.7193" style="stop-color:#B6A071"/>
                <stop offset="0.7936" style="stop-color:#B19A6A"/>
                <stop offset="1" style="stop-color:#B09868"/>
		</linearGradient>
            <polygon style="fill:url(#SVGID_00000022529456231380342220000003038653498923979142_);" points="328.55,484.84 327.59,484.84
			327.59,471.59 340.84,471.59 340.84,472.55 328.55,472.55 		"/>

            <linearGradient id="SVGID_00000150071402382734789530000003610523468299900582_"
                            gradientUnits="userSpaceOnUse" x1="-55.562" y1="88.438" x2="347.4015" y2="491.4015">
			<stop offset="0" style="stop-color:#D3B589"/>
                <stop offset="0.0701" style="stop-color:#CCAF83"/>
                <stop offset="0.1736" style="stop-color:#B89E73"/>
                <stop offset="0.2972" style="stop-color:#978358"/>
                <stop offset="0.3942" style="stop-color:#796A3F"/>
                <stop offset="0.4168" style="stop-color:#897C51"/>
                <stop offset="0.4625" style="stop-color:#B4AB81"/>
                <stop offset="0.5264" style="stop-color:#F7F7CD"/>
                <stop offset="0.5331" style="stop-color:#FFFFD5"/>
                <stop offset="0.5549" style="stop-color:#EEE9BE"/>
                <stop offset="0.5868" style="stop-color:#DBD0A3"/>
                <stop offset="0.6235" style="stop-color:#CBBB8D"/>
                <stop offset="0.6663" style="stop-color:#BFAB7C"/>
                <stop offset="0.7193" style="stop-color:#B6A071"/>
                <stop offset="0.7936" style="stop-color:#B19A6A"/>
                <stop offset="1" style="stop-color:#B09868"/>
		</linearGradient>

            <rect x="319.22" y="463.22" style="fill:url(#SVGID_00000150071402382734789530000003610523468299900582_);"
                  width="4.72" height="4.72"/>
	</g>
        <g>
		
			<linearGradient id="SVGID_00000019675906594097357740000000980025029430697357_"
                            gradientUnits="userSpaceOnUse" x1="-153.5245" y1="186.4014" x2="249.4391" y2="589.3651">
			<stop offset="0" style="stop-color:#D3B589"/>
                <stop offset="0.0701" style="stop-color:#CCAF83"/>
                <stop offset="0.1736" style="stop-color:#B89E73"/>
                <stop offset="0.2972" style="stop-color:#978358"/>
                <stop offset="0.3942" style="stop-color:#796A3F"/>
                <stop offset="0.4168" style="stop-color:#897C51"/>
                <stop offset="0.4625" style="stop-color:#B4AB81"/>
                <stop offset="0.5264" style="stop-color:#F7F7CD"/>
                <stop offset="0.5331" style="stop-color:#FFFFD5"/>
                <stop offset="0.5549" style="stop-color:#EEE9BE"/>
                <stop offset="0.5868" style="stop-color:#DBD0A3"/>
                <stop offset="0.6235" style="stop-color:#CBBB8D"/>
                <stop offset="0.6663" style="stop-color:#BFAB7C"/>
                <stop offset="0.7193" style="stop-color:#B6A071"/>
                <stop offset="0.7936" style="stop-color:#B19A6A"/>
                <stop offset="1" style="stop-color:#B09868"/>
		</linearGradient>
            <polygon style="fill:url(#SVGID_00000019675906594097357740000000980025029430697357_);" points="180,478.94 25.06,478.94
			25.06,252 26.02,252 26.02,477.98 180,477.98 		"/>

            <linearGradient id="SVGID_00000130613772955226526630000011509488324630066316_"
                            gradientUnits="userSpaceOnUse" x1="-216.2849" y1="249.1621" x2="186.6783" y2="652.1252">
			<stop offset="0" style="stop-color:#D3B589"/>
                <stop offset="0.0701" style="stop-color:#CCAF83"/>
                <stop offset="0.1736" style="stop-color:#B89E73"/>
                <stop offset="0.2972" style="stop-color:#978358"/>
                <stop offset="0.3942" style="stop-color:#796A3F"/>
                <stop offset="0.4168" style="stop-color:#897C51"/>
                <stop offset="0.4625" style="stop-color:#B4AB81"/>
                <stop offset="0.5264" style="stop-color:#F7F7CD"/>
                <stop offset="0.5331" style="stop-color:#FFFFD5"/>
                <stop offset="0.5549" style="stop-color:#EEE9BE"/>
                <stop offset="0.5868" style="stop-color:#DBD0A3"/>
                <stop offset="0.6235" style="stop-color:#CBBB8D"/>
                <stop offset="0.6663" style="stop-color:#BFAB7C"/>
                <stop offset="0.7193" style="stop-color:#B6A071"/>
                <stop offset="0.7936" style="stop-color:#B19A6A"/>
                <stop offset="1" style="stop-color:#B09868"/>
		</linearGradient>
            <polygon style="fill:url(#SVGID_00000130613772955226526630000011509488324630066316_);" points="26.02,504 25.06,504
			25.06,478.94 0,478.94 0,477.98 26.02,477.98 		"/>

            <linearGradient id="SVGID_00000013158270461533831760000017894340226836487869_"
                            gradientUnits="userSpaceOnUse" x1="-158.3137" y1="191.1906" x2="244.6494" y2="594.1537">
			<stop offset="0" style="stop-color:#D3B589"/>
                <stop offset="0.0701" style="stop-color:#CCAF83"/>
                <stop offset="0.1736" style="stop-color:#B89E73"/>
                <stop offset="0.2972" style="stop-color:#978358"/>
                <stop offset="0.3942" style="stop-color:#796A3F"/>
                <stop offset="0.4168" style="stop-color:#897C51"/>
                <stop offset="0.4625" style="stop-color:#B4AB81"/>
                <stop offset="0.5264" style="stop-color:#F7F7CD"/>
                <stop offset="0.5331" style="stop-color:#FFFFD5"/>
                <stop offset="0.5549" style="stop-color:#EEE9BE"/>
                <stop offset="0.5868" style="stop-color:#DBD0A3"/>
                <stop offset="0.6235" style="stop-color:#CBBB8D"/>
                <stop offset="0.6663" style="stop-color:#BFAB7C"/>
                <stop offset="0.7193" style="stop-color:#B6A071"/>
                <stop offset="0.7936" style="stop-color:#B19A6A"/>
                <stop offset="1" style="stop-color:#B09868"/>
		</linearGradient>
            <polygon style="fill:url(#SVGID_00000013158270461533831760000017894340226836487869_);" points="180,485.32 18.68,485.32
			18.68,252 19.64,252 19.64,484.36 180,484.36 		"/>

            <linearGradient id="SVGID_00000093887765838377096620000000329676843865984675_"
                            gradientUnits="userSpaceOnUse" x1="-148.7352" y1="181.6123" x2="254.2278" y2="584.5753">
			<stop offset="0" style="stop-color:#D3B589"/>
                <stop offset="0.0701" style="stop-color:#CCAF83"/>
                <stop offset="0.1736" style="stop-color:#B89E73"/>
                <stop offset="0.2972" style="stop-color:#978358"/>
                <stop offset="0.3942" style="stop-color:#796A3F"/>
                <stop offset="0.4168" style="stop-color:#897C51"/>
                <stop offset="0.4625" style="stop-color:#B4AB81"/>
                <stop offset="0.5264" style="stop-color:#F7F7CD"/>
                <stop offset="0.5331" style="stop-color:#FFFFD5"/>
                <stop offset="0.5549" style="stop-color:#EEE9BE"/>
                <stop offset="0.5868" style="stop-color:#DBD0A3"/>
                <stop offset="0.6235" style="stop-color:#CBBB8D"/>
                <stop offset="0.6663" style="stop-color:#BFAB7C"/>
                <stop offset="0.7193" style="stop-color:#B6A071"/>
                <stop offset="0.7936" style="stop-color:#B19A6A"/>
                <stop offset="1" style="stop-color:#B09868"/>
		</linearGradient>
            <polygon style="fill:url(#SVGID_00000093887765838377096620000000329676843865984675_);" points="180,472.55 31.45,472.55
			31.45,252 32.41,252 32.41,471.59 180,471.59 		"/>

            <linearGradient id="SVGID_00000182529661038975932380000007650182505645432763_"
                            gradientUnits="userSpaceOnUse" x1="-206.7068" y1="239.5834" x2="196.2567" y2="642.5469">
			<stop offset="0" style="stop-color:#D3B589"/>
                <stop offset="0.0701" style="stop-color:#CCAF83"/>
                <stop offset="0.1736" style="stop-color:#B89E73"/>
                <stop offset="0.2972" style="stop-color:#978358"/>
                <stop offset="0.3942" style="stop-color:#796A3F"/>
                <stop offset="0.4168" style="stop-color:#897C51"/>
                <stop offset="0.4625" style="stop-color:#B4AB81"/>
                <stop offset="0.5264" style="stop-color:#F7F7CD"/>
                <stop offset="0.5331" style="stop-color:#FFFFD5"/>
                <stop offset="0.5549" style="stop-color:#EEE9BE"/>
                <stop offset="0.5868" style="stop-color:#DBD0A3"/>
                <stop offset="0.6235" style="stop-color:#CBBB8D"/>
                <stop offset="0.6663" style="stop-color:#BFAB7C"/>
                <stop offset="0.7193" style="stop-color:#B6A071"/>
                <stop offset="0.7936" style="stop-color:#B19A6A"/>
                <stop offset="1" style="stop-color:#B09868"/>
		</linearGradient>
            <polygon style="fill:url(#SVGID_00000182529661038975932380000007650182505645432763_);" points="32.41,484.84 31.45,484.84
			31.45,472.55 19.16,472.55 19.16,471.59 32.41,471.59 		"/>

            <linearGradient id="SVGID_00000079449149782947627210000008632991550307455660_"
                            gradientUnits="userSpaceOnUse" x1="-197.14" y1="230.0163" x2="205.8235" y2="632.9797">
			<stop offset="0" style="stop-color:#D3B589"/>
                <stop offset="0.0701" style="stop-color:#CCAF83"/>
                <stop offset="0.1736" style="stop-color:#B89E73"/>
                <stop offset="0.2972" style="stop-color:#978358"/>
                <stop offset="0.3942" style="stop-color:#796A3F"/>
                <stop offset="0.4168" style="stop-color:#897C51"/>
                <stop offset="0.4625" style="stop-color:#B4AB81"/>
                <stop offset="0.5264" style="stop-color:#F7F7CD"/>
                <stop offset="0.5331" style="stop-color:#FFFFD5"/>
                <stop offset="0.5549" style="stop-color:#EEE9BE"/>
                <stop offset="0.5868" style="stop-color:#DBD0A3"/>
                <stop offset="0.6235" style="stop-color:#CBBB8D"/>
                <stop offset="0.6663" style="stop-color:#BFAB7C"/>
                <stop offset="0.7193" style="stop-color:#B6A071"/>
                <stop offset="0.7936" style="stop-color:#B19A6A"/>
                <stop offset="1" style="stop-color:#B09868"/>
		</linearGradient>
            <polygon style="fill:url(#SVGID_00000079449149782947627210000008632991550307455660_);" points="36.06,467.94 40.78,467.94
			40.78,463.22 36.06,463.22 		"/>
	</g>

        <linearGradient id="SVGID_00000089574078062314144680000005252449860462774428_" gradientUnits="userSpaceOnUse"
                        x1="87.2816" y1="-54.4048" x2="490.2452" y2="348.5588">
		<stop offset="0" style="stop-color:#D3B589"/>
            <stop offset="0.0701" style="stop-color:#CCAF83"/>
            <stop offset="0.1736" style="stop-color:#B89E73"/>
            <stop offset="0.2972" style="stop-color:#978358"/>
            <stop offset="0.3942" style="stop-color:#796A3F"/>
            <stop offset="0.4168" style="stop-color:#897C51"/>
            <stop offset="0.4625" style="stop-color:#B4AB81"/>
            <stop offset="0.5264" style="stop-color:#F7F7CD"/>
            <stop offset="0.5331" style="stop-color:#FFFFD5"/>
            <stop offset="0.5549" style="stop-color:#EEE9BE"/>
            <stop offset="0.5868" style="stop-color:#DBD0A3"/>
            <stop offset="0.6235" style="stop-color:#CBBB8D"/>
            <stop offset="0.6663" style="stop-color:#BFAB7C"/>
            <stop offset="0.7193" style="stop-color:#B6A071"/>
            <stop offset="0.7936" style="stop-color:#B19A6A"/>
            <stop offset="1" style="stop-color:#B09868"/>
	</linearGradient>

        <rect x="44.81" y="37.83" style="fill:url(#SVGID_00000089574078062314144680000005252449860462774428_);"
              width="270.39" height="0.96"/>

        <linearGradient id="SVGID_00000166657403916277579380000008750075392553584312_" gradientUnits="userSpaceOnUse"
                        x1="-126.4048" y1="159.2817" x2="276.5588" y2="562.2452">
		<stop offset="0" style="stop-color:#D3B589"/>
            <stop offset="0.0701" style="stop-color:#CCAF83"/>
            <stop offset="0.1736" style="stop-color:#B89E73"/>
            <stop offset="0.2972" style="stop-color:#978358"/>
            <stop offset="0.3942" style="stop-color:#796A3F"/>
            <stop offset="0.4168" style="stop-color:#897C51"/>
            <stop offset="0.4625" style="stop-color:#B4AB81"/>
            <stop offset="0.5264" style="stop-color:#F7F7CD"/>
            <stop offset="0.5331" style="stop-color:#FFFFD5"/>
            <stop offset="0.5549" style="stop-color:#EEE9BE"/>
            <stop offset="0.5868" style="stop-color:#DBD0A3"/>
            <stop offset="0.6235" style="stop-color:#CBBB8D"/>
            <stop offset="0.6663" style="stop-color:#BFAB7C"/>
            <stop offset="0.7193" style="stop-color:#B6A071"/>
            <stop offset="0.7936" style="stop-color:#B19A6A"/>
            <stop offset="1" style="stop-color:#B09868"/>
	</linearGradient>

        <rect x="44.81" y="465.21" style="fill:url(#SVGID_00000166657403916277579380000008750075392553584312_);"
              width="270.39" height="0.96"/>

        <linearGradient id="SVGID_00000083078404273071418940000005331475827296942243_" gradientUnits="userSpaceOnUse"
                        x1="51.2547" y1="-18.3776" x2="454.2175" y2="384.5852">
		<stop offset="0" style="stop-color:#D3B589"/>
            <stop offset="0.0701" style="stop-color:#CCAF83"/>
            <stop offset="0.1736" style="stop-color:#B89E73"/>
            <stop offset="0.2972" style="stop-color:#978358"/>
            <stop offset="0.3942" style="stop-color:#796A3F"/>
            <stop offset="0.4168" style="stop-color:#897C51"/>
            <stop offset="0.4625" style="stop-color:#B4AB81"/>
            <stop offset="0.5264" style="stop-color:#F7F7CD"/>
            <stop offset="0.5331" style="stop-color:#FFFFD5"/>
            <stop offset="0.5549" style="stop-color:#EEE9BE"/>
            <stop offset="0.5868" style="stop-color:#DBD0A3"/>
            <stop offset="0.6235" style="stop-color:#CBBB8D"/>
            <stop offset="0.6663" style="stop-color:#BFAB7C"/>
            <stop offset="0.7193" style="stop-color:#B6A071"/>
            <stop offset="0.7936" style="stop-color:#B19A6A"/>
            <stop offset="1" style="stop-color:#B09868"/>
	</linearGradient>

        <rect x="321.1" y="44.7" style="fill:url(#SVGID_00000083078404273071418940000005331475827296942243_);"
              width="0.96" height="414.49"/>

        <linearGradient id="SVGID_00000034053467997912661820000010973452313952935338_" gradientUnits="userSpaceOnUse"
                        x1="-90.3237" y1="123.2005" x2="312.6391" y2="526.1633">
		<stop offset="0" style="stop-color:#D3B589"/>
            <stop offset="0.0701" style="stop-color:#CCAF83"/>
            <stop offset="0.1736" style="stop-color:#B89E73"/>
            <stop offset="0.2972" style="stop-color:#978358"/>
            <stop offset="0.3942" style="stop-color:#796A3F"/>
            <stop offset="0.4168" style="stop-color:#897C51"/>
            <stop offset="0.4625" style="stop-color:#B4AB81"/>
            <stop offset="0.5264" style="stop-color:#F7F7CD"/>
            <stop offset="0.5331" style="stop-color:#FFFFD5"/>
            <stop offset="0.5549" style="stop-color:#EEE9BE"/>
            <stop offset="0.5868" style="stop-color:#DBD0A3"/>
            <stop offset="0.6235" style="stop-color:#CBBB8D"/>
            <stop offset="0.6663" style="stop-color:#BFAB7C"/>
            <stop offset="0.7193" style="stop-color:#B6A071"/>
            <stop offset="0.7936" style="stop-color:#B19A6A"/>
            <stop offset="1" style="stop-color:#B09868"/>
	</linearGradient>

        <rect x="37.94" y="44.7" style="fill:url(#SVGID_00000034053467997912661820000010973452313952935338_);"
              width="0.96" height="414.49"/>
</g>
    <linearGradient id="SVGID_00000084507000264235936940000010798990330963947680_" gradientUnits="userSpaceOnUse"
                    x1="71.6207" y1="75.7803" x2="288.3793" y2="75.7803">
	<stop offset="0" style="stop-color:#D3B589"/>
        <stop offset="0.0701" style="stop-color:#CCAF83"/>
        <stop offset="0.1736" style="stop-color:#B89E73"/>
        <stop offset="0.2972" style="stop-color:#978358"/>
        <stop offset="0.3942" style="stop-color:#796A3F"/>
        <stop offset="0.4168" style="stop-color:#897C51"/>
        <stop offset="0.4625" style="stop-color:#B4AB81"/>
        <stop offset="0.5264" style="stop-color:#F7F7CD"/>
        <stop offset="0.5331" style="stop-color:#FFFFD5"/>
        <stop offset="0.5549" style="stop-color:#EEE9BE"/>
        <stop offset="0.5868" style="stop-color:#DBD0A3"/>
        <stop offset="0.6235" style="stop-color:#CBBB8D"/>
        <stop offset="0.6663" style="stop-color:#BFAB7C"/>
        <stop offset="0.7193" style="stop-color:#B6A071"/>
        <stop offset="0.7936" style="stop-color:#B19A6A"/>
        <stop offset="1" style="stop-color:#B09868"/>
</linearGradient>
    <path style="fill:url(#SVGID_00000084507000264235936940000010798990330963947680_);" d="M85.48,79.03c0,1.89-0.72,3.5-2.16,4.84
	c-1.44,1.33-3.17,2-5.2,2c-1.19,0-2.61-0.36-4.26-1.09c-0.44-0.2-0.77-0.3-0.99-0.3c-0.26,0-0.43,0.3-0.49,0.91
	c-0.02,0.31-0.17,0.47-0.43,0.47c-0.22,0-0.33-0.13-0.33-0.4c0-0.18,0.01-0.31,0.03-0.4c0.18-1.34,0.26-2.58,0.26-3.73
	c0-0.22-0.02-0.84-0.07-1.85c-0.02-0.13-0.03-0.31-0.03-0.53c0-0.33,0.13-0.49,0.4-0.49c0.22,0,0.37,0.27,0.46,0.8
	c0.57,3.96,2.43,5.93,5.58,5.93c1.34,0,2.38-0.38,3.12-1.14c0.74-0.76,1.11-1.83,1.11-3.22c0-1.23-0.36-2.28-1.07-3.15
	c-0.72-0.87-1.94-1.73-3.68-2.59c-2.09-1.03-3.54-2.04-4.36-3c-0.81-0.97-1.22-2.17-1.22-3.6c0-1.83,0.59-3.33,1.77-4.52
	c1.18-1.19,2.67-1.78,4.47-1.78c0.75,0,1.78,0.25,3.1,0.76c0.46,0.18,0.8,0.26,1.02,0.26c0.24,0,0.4-0.04,0.48-0.13
	c0.08-0.09,0.15-0.32,0.21-0.69c0.04-0.22,0.17-0.33,0.36-0.33c0.22,0,0.33,0.13,0.33,0.4c0,0.18-0.01,0.31-0.03,0.4
	c-0.07,0.53-0.1,1.17-0.1,1.91c0,1.06,0.05,1.89,0.17,2.51l0.03,0.53c0.02,0.24-0.08,0.36-0.3,0.36c-0.24,0-0.41-0.25-0.49-0.76
	c-0.24-1.3-0.81-2.38-1.72-3.25c-0.9-0.87-1.91-1.3-3.04-1.3c-1.1,0-1.97,0.35-2.62,1.06s-0.97,1.66-0.97,2.87
	c0,1.41,0.47,2.54,1.42,3.4c0.53,0.48,1.67,1.17,3.43,2.05c2.07,1.03,3.55,2.08,4.46,3.15C85.03,76.45,85.48,77.67,85.48,79.03z
	 M107.79,85.25c0,0.19-0.17,0.28-0.49,0.28c-0.22,0-0.42-0.01-0.59-0.03l-4.19-0.13l-4.19,0.13c-0.15,0.02-0.32,0.03-0.49,0.03
	c-0.44,0-0.66-0.11-0.66-0.35c0-0.25,0.3-0.38,0.89-0.38c1.94-0.02,2.9-0.22,2.9-0.58c0-0.02-0.02-0.11-0.07-0.26l-0.27-0.87
	l-0.17-0.46c-0.2-0.68-0.68-2.19-1.45-4.53h-7.06c-1.32,3.52-1.98,5.54-1.98,6.07c0,0.31,0.13,0.49,0.4,0.56
	c0.07,0.02,0.62,0.07,1.65,0.13c0.64,0.02,0.96,0.13,0.96,0.33c0,0.22-0.29,0.33-0.86,0.33c-1.01,0-2.19-0.04-3.53-0.13
	c-0.33-0.02-0.67-0.03-1.02-0.03s-0.69,0.04-1.02,0.11c-0.18,0.04-0.32,0.05-0.43,0.05c-0.31,0-0.46-0.1-0.46-0.3
	c0-0.2,0.35-0.31,1.04-0.33c0.69-0.02,1.19-0.13,1.5-0.31c0.31-0.19,0.55-0.55,0.73-1.08c2.83-8.12,5.13-14.65,6.91-19.57
	c0.05-0.26,0.15-0.55,0.31-0.88l0.14-0.6c0.07-0.24,0.15-0.36,0.26-0.36c0.07,0,0.12,0.07,0.17,0.2c0.29,0.86,0.94,2.65,1.95,5.38
	c0.79,2.13,2.76,7.49,5.91,16.07c0.18,0.5,0.4,0.81,0.68,0.95c0.27,0.14,0.84,0.21,1.7,0.24C107.51,84.96,107.79,85.07,107.79,85.25
	z M98.85,77.35c-0.36-0.99-0.95-2.63-1.78-4.92l-1.59-4.57c-0.93,2.43-2.04,5.6-3.35,9.49H98.85z M127.89,62.73
	c0,0.18-0.21,0.28-0.63,0.3c-0.97,0.02-1.62,0.17-1.95,0.43c-0.33,0.27-0.67,0.88-1.02,1.85l-1.12,3.08
	c-2.71,7.44-4.61,13.14-5.71,17.11c-0.07,0.26-0.18,0.4-0.33,0.4c-0.18,0-0.54-0.83-1.09-2.48c-0.99-3.01-1.76-5.28-2.31-6.8
	c-0.59-1.67-1.46-4.17-2.62-7.5l-1.61-4.45c-0.22-0.62-0.46-1.03-0.73-1.24c-0.26-0.21-0.7-0.32-1.32-0.35
	c-0.73-0.02-1.16-0.04-1.3-0.07c-0.14-0.02-0.21-0.11-0.21-0.26c0-0.2,0.22-0.3,0.66-0.3h0.3c0.4,0,1.08,0.02,2.06,0.05
	c0.98,0.03,1.68,0.05,2.1,0.05c0.11,0,0.53-0.02,1.27-0.05c0.74-0.03,1.79-0.05,3.15-0.05h0.46c0.4,0,0.59,0.1,0.59,0.3
	c0,0.22-0.4,0.34-1.19,0.36l-2.01,0.07c-0.46,0.02-0.69,0.17-0.69,0.45c0,0.05,0.02,0.14,0.06,0.28l0.25,0.89
	c0.04,0.18,1.12,3.28,3.23,9.3c0.35,1.04,1.02,3.01,2.01,5.93c3.62-10.28,5.43-15.69,5.43-16.22c0-0.51-0.54-0.74-1.62-0.69h-1.02
	c-0.26,0-0.4-0.1-0.4-0.29c0-0.24,0.33-0.37,0.99-0.37c0.13,0,0.51,0,1.12,0c0.62,0.07,1.07,0.1,1.35,0.1h1.06l2.18-0.1
	C127.69,62.47,127.89,62.55,127.89,62.73z M145.75,80.16c0,0.09-0.02,0.63-0.07,1.62c-0.04,0.99-0.07,1.94-0.07,2.84v1.09
	c-2.16-0.13-6.42-0.2-12.81-0.2c-0.77,0-1.53,0-2.28,0c-0.75,0-1.25,0-1.52,0h-0.33c-0.42,0-0.63-0.09-0.63-0.27
	c0-0.12,0.07-0.19,0.2-0.21c0.07,0,0.48-0.03,1.25-0.09c0.57-0.04,0.92-0.16,1.04-0.36c0.12-0.2,0.18-0.72,0.18-1.56v-18.6
	c0-0.64-0.09-1.02-0.28-1.14c-0.19-0.12-0.79-0.18-1.8-0.18c-0.35,0-0.53-0.09-0.53-0.28c0-0.19,0.24-0.28,0.73-0.28h5.64
	c0.2,0,1.44,0,3.73,0c2.29,0,3.83,0,4.62,0c0.66,0,1.26-0.04,1.82-0.13c0.04,0.95,0.14,2.26,0.3,3.93l0.13,1.42
	c0.02,0.11,0.03,0.25,0.03,0.43c0,0.22-0.1,0.33-0.3,0.33c-0.24,0-0.42-0.28-0.53-0.83c-0.42-1.99-1.1-3.26-2.05-3.79
	c-0.7-0.4-2.55-0.6-5.54-0.6H134v9.7h0.79c2.46,0,3.97-0.19,4.51-0.56c0.54-0.37,0.91-1.46,1.11-3.27c0.04-0.46,0.17-0.69,0.36-0.69
	c0.24,0,0.36,0.2,0.36,0.59c0,0.4-0.02,0.98-0.07,1.75c-0.04,0.77-0.07,1.35-0.07,1.75c0,2.35,0.04,3.97,0.11,4.85
	c0.02,0.22,0.03,0.41,0.03,0.56c0,0.29-0.12,0.43-0.36,0.43c-0.15,0-0.26-0.09-0.31-0.28c-0.05-0.19-0.15-0.8-0.28-1.83
	c-0.18-1.3-0.71-2.1-1.61-2.41c-0.39-0.13-1.42-0.2-3.09-0.2H134v11.06c4.84,0,7.68-0.1,8.52-0.29c1.45-0.33,2.28-1.72,2.48-4.17
	c0.04-0.54,0.19-0.81,0.43-0.81C145.64,79.46,145.75,79.69,145.75,80.16z M229.27,74.02c0,3.88-1.35,6.91-4.06,9.07
	c-1.98,1.59-4.63,2.38-7.95,2.38c-0.09,0-0.48,0-1.17,0c-0.69,0-1.7,0-3.02,0h-1.65h-2.61c-0.15,0-0.32,0-0.49,0
	c-0.42,0-0.63-0.11-0.63-0.33c0-0.2,0.35-0.3,1.06-0.3c0.9,0,1.46-0.17,1.68-0.49c0.09-0.15,0.13-0.57,0.13-1.25V65.3
	c0-1.08-0.08-1.7-0.25-1.88c-0.16-0.18-0.73-0.26-1.7-0.26c-0.51,0-0.76-0.12-0.76-0.36c0-0.18,0.19-0.26,0.56-0.26
	c-0.02,0,0.22,0,0.73,0c0.51,0,1,0,1.48,0h3.53c3.96,0,6.77,0.28,8.42,0.83c2,0.66,3.62,1.97,4.85,3.92
	C228.65,69.23,229.27,71.48,229.27,74.02z M225.57,73.88c0-3.66-0.72-6.35-2.15-8.06c-1.43-1.71-3.66-2.57-6.7-2.57
	c-1.47,0-2.37,0.15-2.67,0.46c-0.13,0.15-0.2,0.68-0.2,1.59v17.61c0,0.62,0.02,0.99,0.05,1.13c0.03,0.13,0.13,0.24,0.28,0.33
	c0.53,0.27,1.64,0.4,3.33,0.4c2.38,0,4.29-0.84,5.74-2.52C224.8,80.49,225.57,77.7,225.57,73.88z M251.98,85.25
	c0,0.19-0.17,0.28-0.5,0.28c-0.22,0-0.42-0.01-0.59-0.03l-4.19-0.13l-4.19,0.13c-0.15,0.02-0.32,0.03-0.49,0.03
	c-0.44,0-0.66-0.11-0.66-0.35c0-0.25,0.3-0.38,0.89-0.38c1.94-0.02,2.9-0.22,2.9-0.58c0-0.02-0.02-0.11-0.07-0.26l-0.27-0.87
	l-0.17-0.46c-0.2-0.68-0.68-2.19-1.45-4.53h-7.05c-1.32,3.52-1.98,5.54-1.98,6.07c0,0.31,0.13,0.49,0.4,0.56
	c0.07,0.02,0.62,0.07,1.65,0.13c0.64,0.02,0.96,0.13,0.96,0.33c0,0.22-0.29,0.33-0.86,0.33c-1.01,0-2.19-0.04-3.53-0.13
	c-0.33-0.02-0.67-0.03-1.02-0.03s-0.69,0.04-1.02,0.11c-0.18,0.04-0.32,0.05-0.43,0.05c-0.31,0-0.46-0.1-0.46-0.3
	c0-0.2,0.35-0.31,1.04-0.33c0.69-0.02,1.19-0.13,1.5-0.31c0.31-0.19,0.55-0.55,0.73-1.08c2.83-8.12,5.13-14.65,6.91-19.57
	c0.05-0.26,0.15-0.55,0.31-0.88l0.14-0.6c0.07-0.24,0.15-0.36,0.26-0.36c0.07,0,0.12,0.07,0.16,0.2c0.29,0.86,0.94,2.65,1.95,5.38
	c0.79,2.13,2.76,7.49,5.91,16.07c0.18,0.5,0.4,0.81,0.68,0.95c0.28,0.14,0.84,0.21,1.7,0.24C251.69,84.96,251.98,85.07,251.98,85.25
	z M243.03,77.35c-0.36-0.99-0.95-2.63-1.78-4.92l-1.59-4.57c-0.93,2.43-2.04,5.6-3.35,9.49H243.03z M269.34,68.44
	c0,0.29-0.13,0.43-0.4,0.43c-0.26,0-0.45-0.29-0.56-0.86c-0.04-0.4-0.09-0.79-0.13-1.19c-0.15-0.79-0.41-1.46-0.76-2.01
	c-0.46-0.73-1.22-1.19-2.28-1.39c-0.68-0.13-1.23-0.19-1.65-0.16c-1.03,0.03-1.66,0.05-1.88,0.07v19.93c0,0.79,0.21,1.29,0.63,1.49
	c0.22,0.11,0.84,0.18,1.85,0.2c0.27,0.02,0.4,0.11,0.4,0.28c0,0.19-0.18,0.28-0.53,0.28c-0.18,0-0.33-0.01-0.46-0.03
	c-1.32-0.04-2.26-0.07-2.81-0.07c-0.73,0-1.41,0.02-2.05,0.05c-0.64,0.03-1.45,0.05-2.44,0.05c-0.51,0-0.76-0.09-0.76-0.27
	c0-0.2,0.47-0.31,1.42-0.33c0.68,0,1.12-0.14,1.32-0.43c0.11-0.18,0.16-0.63,0.16-1.36v-19.8c-2.18,0.02-3.53,0.13-4.06,0.33
	c-1.39,0.51-2.2,1.86-2.44,4.06c-0.07,0.66-0.22,0.99-0.46,0.99c-0.26,0-0.4-0.23-0.4-0.69c0-0.24,0.01-0.48,0.03-0.73l0.07-0.76
	c0.07-1.01,0.17-2.34,0.3-3.99h1.48l6.73,0.1c0.79,0.02,2.02,0.02,3.7,0l5.48-0.1c0.04,1.23,0.19,3.06,0.43,5.48
	c0,0.07,0.01,0.15,0.03,0.25C269.32,68.36,269.34,68.42,269.34,68.44z M288.38,80.16c0,0.09-0.02,0.63-0.07,1.62
	c-0.04,0.99-0.07,1.94-0.07,2.84v1.09c-2.16-0.13-6.42-0.2-12.81-0.2c-0.77,0-1.53,0-2.28,0s-1.25,0-1.52,0h-0.33
	c-0.42,0-0.63-0.09-0.63-0.27c0-0.12,0.07-0.19,0.2-0.21c0.07,0,0.48-0.03,1.25-0.09c0.57-0.04,0.92-0.16,1.04-0.36
	c0.12-0.2,0.18-0.72,0.18-1.56v-18.6c0-0.64-0.09-1.02-0.28-1.14c-0.19-0.12-0.79-0.18-1.8-0.18c-0.35,0-0.53-0.09-0.53-0.28
	c0-0.19,0.24-0.28,0.73-0.28h5.64c0.2,0,1.44,0,3.73,0c2.29,0,3.83,0,4.62,0c0.66,0,1.26-0.04,1.82-0.13
	c0.04,0.95,0.14,2.26,0.3,3.93l0.13,1.42c0.02,0.11,0.03,0.25,0.03,0.43c0,0.22-0.1,0.33-0.3,0.33c-0.24,0-0.42-0.28-0.53-0.83
	c-0.42-1.99-1.1-3.26-2.05-3.79c-0.71-0.4-2.55-0.6-5.55-0.6h-2.71v9.7h0.79c2.46,0,3.97-0.19,4.51-0.56
	c0.54-0.37,0.91-1.46,1.11-3.27c0.04-0.46,0.16-0.69,0.36-0.69c0.24,0,0.36,0.2,0.36,0.59c0,0.4-0.02,0.98-0.07,1.75
	c-0.04,0.77-0.07,1.35-0.07,1.75c0,2.35,0.04,3.97,0.11,4.85c0.02,0.22,0.03,0.41,0.03,0.56c0,0.29-0.12,0.43-0.36,0.43
	c-0.15,0-0.26-0.09-0.31-0.28c-0.05-0.19-0.15-0.8-0.28-1.83c-0.18-1.3-0.71-2.1-1.61-2.41c-0.39-0.13-1.42-0.2-3.09-0.2h-1.48
	v11.06c4.84,0,7.68-0.1,8.52-0.29c1.45-0.33,2.28-1.72,2.47-4.17c0.04-0.54,0.19-0.81,0.43-0.81
	C288.27,79.46,288.38,79.69,288.38,80.16z M148.97,86.37c0-3.18,0.94-6.33,2.83-9.46c-2.18-1.38-3.27-3.43-3.27-6.14
	c0-3.27,1.44-6.17,4.33-8.71c3.24-2.86,7.43-4.29,12.55-4.29c2.36,0,4.89,0.34,7.6,1.02c0.62,0.15,3.26,1.29,7.91,3.43
	c4.66,2.14,8,3.2,10.03,3.2c1.36,0,2.37-0.38,3.05-1.15c0.35-0.38,0.53-0.8,0.53-1.24c0-0.44-0.19-0.84-0.57-1.19
	c-0.21-0.29-0.31-0.49-0.31-0.57c0-0.09,0.08-0.13,0.24-0.13c0.16,0,0.44,0.26,0.84,0.77c0.4,0.52,0.6,1.12,0.6,1.81
	s-0.46,1.36-1.39,1.99c-0.93,0.63-2.1,0.95-3.51,0.95c-2.21,0-5.64-1.07-10.3-3.2c-4.66-2.14-7.58-3.32-8.77-3.56
	c-1.19-0.24-2.56-0.35-4.09-0.35c-6.1,0-10.9,1.97-14.41,5.92c-0.41,0.44-0.9,1.33-1.46,2.67c-0.56,1.34-0.84,2.63-0.84,3.87
	c0,1.71,0.6,3.04,1.81,3.98c1.53-2.24,3.34-4.02,5.44-5.35c2.09-1.33,4.21-1.99,6.36-1.99c2.65,0,3.98,1.03,3.98,3.09
	c0,2.48-1.45,5.16-4.35,8.07c-2.9,2.9-5.59,4.35-8.07,4.35c-1.59,0-2.39-0.68-2.39-2.03c0-0.47,0.12-0.88,0.38-1.24
	c0.25-0.35,0.55-0.49,0.91-0.4l-0.09,1.02c0,0.44,0.68,0.66,2.03,0.66c2,0,4.12-1.03,6.34-3.09c2.22-2.06,3.57-4.08,4.04-6.06
	c0.12-0.44,0.18-0.84,0.18-1.19c0-1.33-0.85-1.99-2.54-1.99c-1.7,0-3.45,0.65-5.26,1.94c-1.81,1.3-3.51,3.01-5.11,5.13
	c0.12,0.06,0.57,0.18,1.37,0.35l2.65,0.09c1.3,0.06,1.94,0.21,1.94,0.44c0,0.41-0.62,0.62-1.86,0.62c-0.09,0-0.18,0-0.26,0
	c-1.8,0-3.27-0.22-4.42-0.66c-2.27,3.48-3.4,6.67-3.4,9.59c0,3.77,1.46,5.66,4.38,5.66c3.3,0,6.73-2.3,10.3-6.9l8.66-12.91
	c3.24-4.71,6.06-7.13,8.44-7.25l1.68,0.4c0.53,0.3,0.8,0.74,0.8,1.33c0,0.59-0.15,0.88-0.44,0.88l-1.41-0.22
	c-2.03,0-4.64,2.2-7.82,6.59l-8.8,12.29c-3.77,4.39-7.38,6.59-10.83,6.59c-2.36,0-3.99-0.63-4.88-1.9
	C149.42,90.62,148.97,88.78,148.97,86.37z M187.42,89.15c-1.74,0-2.61-1.02-2.61-3.05c0-1.15,0.41-2.42,1.22-3.82
	c0.81-1.4,1.8-3.04,2.98-4.93c-3.77,1.89-7.19,4.67-10.25,8.35c-1.71,2.56-2.71,3.85-3.01,3.85c-0.85,0-1.28-0.25-1.28-0.75
	c0-0.27,0.18-0.74,0.53-1.41c2.86-5.1,5.02-8.83,6.5-11.18c3.51-5.63,5.98-8.68,7.43-9.15c0.06-0.03,0.12-0.04,0.18-0.04
	c0.38,0,0.65,0.31,0.8,0.93c-0.09,0.62-1.62,2.86-4.6,6.72c-3.09,3.92-4.85,6.48-5.26,7.69c1.09-0.8,2.99-2.14,5.7-4.02
	c2.92-2.03,4.85-3.05,5.79-3.05c0.94,0,1.41,0.37,1.41,1.1c0,0.12-0.01,0.2-0.02,0.24c-0.02,0.04-1.04,1.44-3.07,4.18
	c-2.03,2.74-3.05,4.76-3.05,6.06c0,0.68,0.25,1.02,0.75,1.02c1.59-0.06,3.98-1.97,7.16-5.75c0.27-0.27,0.46-0.4,0.6-0.4
	c0.13,0,0.2,0.09,0.2,0.26c0,0.59-1.46,2.18-4.38,4.77C189.31,88.36,188.07,89.15,187.42,89.15z M195.82,89.9
	c-0.32,0-0.62-0.04-0.88-0.13c-1.89-0.53-2.83-1.59-2.83-3.18c0-2.06,1.3-4.45,3.89-7.16c2.59-2.71,4.92-4.07,6.98-4.07
	c0.68,0,1.23,0.18,1.66,0.55c0.43,0.37,0.64,0.82,0.64,1.35c0,1.65-1.25,3.23-3.74,4.73c-2.49,1.5-4.52,2.25-6.08,2.25
	c-0.24,0-0.44-0.03-0.62-0.09c-0.44,0.8-0.66,1.64-0.66,2.52c0,1.53,0.73,2.3,2.19,2.3c1.46,0,3.35-0.99,5.68-2.96
	c1.8-1.44,3.33-2.98,4.59-4.6c0.27-0.35,0.49-0.53,0.69-0.53s0.29,0.09,0.29,0.27c0,0.18-0.12,0.43-0.35,0.75
	c-1.59,2.09-3.51,3.95-5.75,5.57C199.28,89.09,197.38,89.9,195.82,89.9z M204.17,77.17c0-0.35-0.38-0.53-1.13-0.53
	c-0.75,0-1.82,0.57-3.21,1.72c-1.86,1.53-3.3,3.14-4.33,4.82c0.18,0.06,0.37,0.09,0.57,0.09c1.12,0,2.62-0.6,4.49-1.79
	c1.87-1.19,3.04-2.5,3.51-3.91C204.15,77.42,204.17,77.29,204.17,77.17z"/>
    <g>
	<text transform="matrix(1 0 0 1 136.6887 122.0472)" class="st30 st31 st32 st33">04.22.23</text>
</g>
    <rect x="56.4" y="145.47" class="st34" width="247.2" height="180.59"/>
    <text transform="matrix(1 0 0 1 157.2154 152.5414)" class="st30 st35 st36">Dear Guest, </text>
    <text transform="matrix(1 0 0 1 89.8868 164.5414)"
          class="st30 st35 st36">The Lithuanian American Community of Omaha </text>
    <text transform="matrix(1 0 0 1 82.2189 176.5414)" class="st30 st35 st36">is proudly celebrating its 70</text>
    <text transform="matrix(0.583 0 0 0.583 186.6163 173.2114)" class="st30 st35 st36">th</text>
    <text transform="matrix(1 0 0 1 191.0528 176.5414)" class="st30 st35 st36"> year as an organization </text>
    <text transform="matrix(1 0 0 1 107.983 188.5414)" class="st30 st35 st36">since its founding on April 26</text>
    <text transform="matrix(0.583 0 0 0.583 219.2208 185.2114)" class="st30 st35 st36">th</text>
    <text transform="matrix(1 0 0 1 223.6573 188.5414)" class="st30 st35 st36">, 1953. </text>
    <text transform="matrix(1 0 0 1 72.8522 200.5414)" class="st30 st35 st36">A home to Lithuanians for decades, Omaha has more than </text>
    <text transform="matrix(1 0 0 1 101.4816 212.5414)"
          class="st30 st35 st36">just supported the Lithuanian community, </text>
    <text transform="matrix(1 0 0 1 101.2169 224.5414)" class="st30 st35 st36">the city has helped the organization thrive. </text>
    <text transform="matrix(1 0 0 1 90.9171 236.5414)" class="st30 st35 st36">It is our pleasure to announce a save the date for </text>
    <text transform="matrix(1 0 0 1 125.1891 248.5414)" class="st30 st31 st36">April 22</text>
    <text transform="matrix(0.583 0 0 0.583 159.7779 245.2114)" class="st30 st31 st36">nd</text>
    <text transform="matrix(1 0 0 1 165.9923 248.5414)" class="st30 st31 st36"> of the year 2023</text>
    <text transform="matrix(1 0 0 1 232.2208 248.5414)" class="st30 st35 st36">. </text>
    <text transform="matrix(1 0 0 1 91.7467 269.5414)"
          class="st30 st35 st36">The Lithuanian American Community has been </text>
    <text transform="matrix(1 0 0 1 82.1871 281.5414)" class="st30 st35 st36">an integral part of Omahas history for over a century. </text>
    <text transform="matrix(1 0 0 1 61.5123 293.5414)" class="st30 st35 st36">We look forward to sharing this celebration with you, of not just </text>
    <text transform="matrix(1 0 0 1 102.4669 305.5414)" class="st30 st35 st36">culture, but the history that comes with it.</text>
    <rect x="67.17" y="454.63" class="st0" width="225.66" height="39.78"/>
    <linearGradient id="SVGID_00000050658826775710541250000011436309737448079803_" gradientUnits="userSpaceOnUse"
                    x1="165.3027" y1="449.3901" x2="282.0527" y2="449.3901">
	<stop offset="0" style="stop-color:#B09868"/>
        <stop offset="0.2237" style="stop-color:#D3B589"/>
        <stop offset="0.2737" style="stop-color:#D7BC90"/>
        <stop offset="0.3474" style="stop-color:#E3CFA4"/>
        <stop offset="0.4355" style="stop-color:#F5EFC5"/>
        <stop offset="0.4739" style="stop-color:#FFFFD5"/>
        <stop offset="0.5305" style="stop-color:#ECE6BB"/>
        <stop offset="0.6384" style="stop-color:#CCBC8E"/>
        <stop offset="0.722" style="stop-color:#B7A272"/>
        <stop offset="0.7706" style="stop-color:#B09868"/>
        <stop offset="1" style="stop-color:#D3B589"/>
</linearGradient>
    <path style="fill:url(#SVGID_00000050658826775710541250000011436309737448079803_);" d="M167.35,478.53
	c0.64,0.71,1.41,1.27,2.32,1.68c0.9,0.42,1.92,0.62,3.05,0.62c1.11,0,2.13-0.21,3.04-0.62c0.91-0.42,1.69-0.98,2.33-1.68
	c0.64-0.71,1.14-1.52,1.48-2.43c0.35-0.92,0.52-1.88,0.52-2.9v-0.04c0-1.02-0.17-1.98-0.52-2.9c-0.35-0.92-0.84-1.73-1.48-2.43
	c-0.64-0.71-1.42-1.27-2.33-1.68c-0.91-0.42-1.92-0.62-3.04-0.62c-1.13,0-2.15,0.21-3.05,0.62c-0.9,0.42-1.68,0.98-2.32,1.68
	c-0.64,0.71-1.14,1.52-1.48,2.43c-0.35,0.92-0.52,1.88-0.52,2.9v0.04c0,1.02,0.17,1.98,0.52,2.9
	C166.21,477.02,166.71,477.83,167.35,478.53z M165.81,473.14c0-0.95,0.16-1.86,0.49-2.73c0.32-0.87,0.79-1.64,1.4-2.3
	c0.61-0.66,1.33-1.18,2.17-1.58c0.84-0.39,1.78-0.59,2.83-0.59c1.03,0,1.97,0.2,2.83,0.6c0.85,0.4,1.58,0.94,2.19,1.6
	c0.61,0.66,1.08,1.43,1.41,2.31c0.33,0.88,0.5,1.79,0.5,2.73v0.04c0,0.96-0.16,1.87-0.49,2.74c-0.32,0.87-0.79,1.63-1.4,2.29
	c-0.61,0.66-1.33,1.18-2.18,1.58c-0.85,0.4-1.79,0.59-2.82,0.59c-1.03,0-1.97-0.2-2.83-0.6c-0.85-0.4-1.58-0.93-2.19-1.6
	c-0.61-0.66-1.08-1.43-1.41-2.31c-0.33-0.87-0.5-1.79-0.5-2.73V473.14z M205.25,480.59v-14.04l-6.41,9.15h-0.02l-6.41-9.15v14.04
	h-0.47v-14.82h0.44l6.46,9.19l6.46-9.19h0.42v14.82H205.25z M242.53,465.77v7.13h10.58v-7.13h0.47v14.82h-0.47v-7.26h-10.58v7.26
	h-0.47v-14.82H242.53z M277.23,476.14l2.12,4.45h0.51l-7.13-14.92h-0.4l-7.13,14.92h0.49l2.12-4.45H277.23z M272.51,466.28
	l4.51,9.44H268L272.51,466.28z M281.59,485.09l-48.83-0.06l-9.23-19.37h-0.4L213.77,485l-47.93-0.06v-2.85h-0.42v3.27l48.15,0.06
	l0,0h0.49l4.54-9.29h9.44l4.42,9.31h0.51l0,0l49.05,0.06v-3.95h-0.42V485.09z M218.81,475.72l4.51-9.44l4.51,9.44H218.81z
	 M277.5,458.21V446.2h-2.45v-2.8h-0.42v2.8h-2.21v10.9h-0.54v-13.02h-0.53v-0.53h-4.02v0.53h-0.53v6.02h-4.46v3.79h-4.16v-9.19
	h-7.48v3.74h-6.24v-3.74h-2.62v-3.83h-3.57v-2.68h-0.42v2.68h-3.87v3.83h-2.32v4.23h-2.32V427h-2.06v-3.37l-1.28-2.03h-0.31
	l-0.28-7.08h-1.92v-1.26h-0.42v1.26h-1.75l-0.28,7.08h-0.48l-1.28,2.03V427h-2.06v16.9l-2.28-2.27v-7.87h-1.7v-1.5l-3.05-0.36
	l-2.8,0.37v1.5h-1.95v16.79h-2.71v-2.19l-1.8-2.65h-14.98l-1.79,2.69v1.55h-3v2.96h-3.31v-4.06h-0.96v-3.5h-1.51v-2.3h-0.42v2.3
	h-1.51v3.5h-0.96v8.81h-2.09v-6.57h-0.53v-0.54h-4.02v0.54h-0.53v11.9h0.42v-11.48h0.53v-0.54h3.18v0.54h0.53v6.57h5.19v-0.42h-2.25
	v-8.39h0.96v-3.5h2.59v3.5h0.96v12.12h-4.71v0.42h11.44h18.57h2.71h1.19h2.2h0.38h2.2h0.38h2.2h0.93h2.28h2.06h0.15h7.85h0.01h2.04
	h2.32h12.81h6.24h7.48h21.43v-0.42h-13.86v-5.22h1.47V444.5h0.53v-0.53h3.18v0.53h0.53v13.02h1.39v-10.9h4.24v12.01h4.55v5.8h0.42
	v-6.23H277.5z M234.39,441.29h7.02v3.4h-7.02V441.29z M225.76,422.03l1.09,1.72v27.05l-0.62-15.5v-0.06h0l-0.53-13.22H225.76z
	 M221.7,414.96h3.29l0.81,20.36v26.09h-0.91v-35.16h-0.42v35.16h-0.91v-35.16h-0.42v35.16h-0.91v-35.16h-0.42v35.16h-0.91v-26.07h0
	L221.7,414.96z M220.77,422.03H221l-1.31,33.03v-31.31L220.77,422.03z M207.8,432.63l2.38-0.31l2.63,0.31v1.13h-5V432.63z
	 M186.26,448.22v-2.08h14.33v2.08H186.26z M200.59,448.64v12.76h-14.33v-12.76H200.59z M185.84,448.22h-1.06l1.06-1.59V448.22z
	 M201.02,446.62l1.08,1.6h-1.08V446.62z M177.83,461.4v-8.06h3.31v3.96h0.42v-6.92h2.57v11.02H177.83z M184.57,448.64h1.27v12.76
	h-1.27V448.64z M201.02,461.4v-12.76h1.27v12.76H201.02z M202.71,461.4v-10.42h2.71v10.42H202.71z M207.04,461.4v-25.52h1.36v25.52
	H207.04z M209.62,461.4v-25.52h1.36v25.52H209.62z M212.21,461.4v-25.52h1.36v25.52H212.21z M213.99,461.4v-25.94h-2.2v25.94h-0.38
	v-25.94h-2.2v25.94h-0.38v-25.94h-2.2v25.94h-0.76v-27.22h1.53h5.85h1.27v27.22H213.99z M214.92,461.4v-19.17l2.28,2.27v16.9H214.92
	z M217.63,461.4v-33.98h1.63v33.98H217.63z M220.47,445.97v15.44h-0.61L220.47,445.97z M226.22,461.4v-15.44l0.61,15.44H226.22z
	 M227.27,461.4v-33.98h1.63v33.98H227.27z M229.32,461.4v-12.05h2.32v12.05H229.32z M232.07,461.4v-16.29h1.9h7.86h2.2v16.29H232.07
	z M244.45,461.4v-12.55h6.24v12.55H244.45z M251.11,461.4v-16.29h6.63v16.29H251.11z M265.32,455.76v5.64h-7.15v-7.09h6.6v-0.42
	h-2.02v-3.36h4.04v5.23H265.32z M224.89,415.53h-3.09v8.68h3.09V415.53z M224.47,417.6h-0.91v-1.64h0.91V417.6z M223.14,420.08v1.64
	h-0.91v-1.64H223.14z M222.23,419.66v-1.64h0.91v1.64H222.23z M223.56,420.08h0.91v1.64h-0.91V420.08z M223.56,419.66v-1.64h0.91
	v1.64H223.56z M223.14,415.96v1.64h-0.91v-1.64H223.14z M222.23,422.15h0.91v1.64h-0.91V422.15z M223.56,423.78v-1.64h0.91v1.64
	H223.56z M252.28,447.28h0.42v2.88h-0.42V447.28z M254.22,447.28h0.42v2.88h-0.42V447.28z M256.16,447.28h0.42v2.88h-0.42V447.28z
	 M252.28,451.68h0.42v2.88h-0.42V451.68z M254.22,451.68h0.42v2.88h-0.42V451.68z M256.16,451.68h0.42v2.88h-0.42V451.68z
	 M252.28,456.08h0.42v2.88h-0.42V456.08z M254.22,456.08h0.42v2.88h-0.42V456.08z M256.16,456.08h0.42v2.88h-0.42V456.08z
	 M199.72,450.4h-12.5v-0.46h12.5V450.4z M199.72,452.07h-12.5v-0.46h12.5V452.07z M199.72,453.74h-12.5v-0.46h12.5V453.74z
	 M199.72,455.41h-12.5v-0.46h12.5V455.41z M199.72,457.08h-12.5v-0.46h12.5V457.08z M199.72,458.75h-12.5v-0.46h12.5V458.75z
	 M199.72,460.42h-12.5v-0.46h12.5V460.42z M218.61,430.7h-0.42v-2.04h0.42V430.7z M228.26,430.7h-0.42v-2.04h0.42V430.7z
	 M218.61,434.92h-0.42v-2.04h0.42V434.92z M228.26,434.92h-0.42v-2.04h0.42V434.92z M218.61,439.13h-0.42v-2.04h0.42V439.13z
	 M228.26,439.13h-0.42v-2.04h0.42V439.13z M218.61,443.35h-0.42v-2.04h0.42V443.35z M228.26,443.35h-0.42v-2.04h0.42V443.35z
	 M218.61,447.56h-0.42v-2.04h0.42V447.56z M228.26,447.56h-0.42v-2.04h0.42V447.56z M218.61,451.78h-0.42v-2.04h0.42V451.78z
	 M228.26,451.78h-0.42v-2.04h0.42V451.78z M218.61,455.99h-0.42v-2.04h0.42V455.99z M228.26,455.99h-0.42v-2.04h0.42V455.99z
	 M218.61,460.21h-0.42v-2.04h0.42V460.21z M228.26,460.21h-0.42v-2.04h0.42V460.21z"/>
    <linearGradient id="SVGID_00000129911709065651325750000003409413923580738692_" gradientUnits="userSpaceOnUse"
                    x1="121.1402" y1="128.0938" x2="238.8598" y2="128.0938">
	<stop offset="0" style="stop-color:#D3B589"/>
        <stop offset="0.0701" style="stop-color:#CCAF83"/>
        <stop offset="0.1736" style="stop-color:#B89E73"/>
        <stop offset="0.2972" style="stop-color:#978358"/>
        <stop offset="0.3942" style="stop-color:#796A3F"/>
        <stop offset="0.4168" style="stop-color:#897C51"/>
        <stop offset="0.4625" style="stop-color:#B4AB81"/>
        <stop offset="0.5264" style="stop-color:#F7F7CD"/>
        <stop offset="0.5331" style="stop-color:#FFFFD5"/>
        <stop offset="0.5549" style="stop-color:#EEE9BE"/>
        <stop offset="0.5868" style="stop-color:#DBD0A3"/>
        <stop offset="0.6235" style="stop-color:#CBBB8D"/>
        <stop offset="0.6663" style="stop-color:#BFAB7C"/>
        <stop offset="0.7193" style="stop-color:#B6A071"/>
        <stop offset="0.7936" style="stop-color:#B19A6A"/>
        <stop offset="1" style="stop-color:#B09868"/>
</linearGradient>
    <rect x="121.14" y="127.64" style="fill:url(#SVGID_00000129911709065651325750000003409413923580738692_);"
          width="117.72" height="0.91"/>
    <linearGradient id="SVGID_00000014594658297465209520000017845400712710096005_" gradientUnits="userSpaceOnUse"
                    x1="121.1402" y1="324.7556" x2="238.8598" y2="324.7556">
	<stop offset="0" style="stop-color:#D3B589"/>
        <stop offset="0.0701" style="stop-color:#CCAF83"/>
        <stop offset="0.1736" style="stop-color:#B89E73"/>
        <stop offset="0.2972" style="stop-color:#978358"/>
        <stop offset="0.3942" style="stop-color:#796A3F"/>
        <stop offset="0.4168" style="stop-color:#897C51"/>
        <stop offset="0.4625" style="stop-color:#B4AB81"/>
        <stop offset="0.5264" style="stop-color:#F7F7CD"/>
        <stop offset="0.5331" style="stop-color:#FFFFD5"/>
        <stop offset="0.5549" style="stop-color:#EEE9BE"/>
        <stop offset="0.5868" style="stop-color:#DBD0A3"/>
        <stop offset="0.6235" style="stop-color:#CBBB8D"/>
        <stop offset="0.6663" style="stop-color:#BFAB7C"/>
        <stop offset="0.7193" style="stop-color:#B6A071"/>
        <stop offset="0.7936" style="stop-color:#B19A6A"/>
        <stop offset="1" style="stop-color:#B09868"/>
</linearGradient>
    <rect x="121.14" y="324.3" style="fill:url(#SVGID_00000014594658297465209520000017845400712710096005_);"
          width="117.72" height="0.91"/>
    <linearGradient id="SVGID_00000067198843744240758460000012857276491506365111_" gradientUnits="userSpaceOnUse"
                    x1="121.1402" y1="107.4434" x2="238.8598" y2="107.4434">
	<stop offset="0" style="stop-color:#D3B589"/>
        <stop offset="0.0701" style="stop-color:#CCAF83"/>
        <stop offset="0.1736" style="stop-color:#B89E73"/>
        <stop offset="0.2972" style="stop-color:#978358"/>
        <stop offset="0.3942" style="stop-color:#796A3F"/>
        <stop offset="0.4168" style="stop-color:#897C51"/>
        <stop offset="0.4625" style="stop-color:#B4AB81"/>
        <stop offset="0.5264" style="stop-color:#F7F7CD"/>
        <stop offset="0.5331" style="stop-color:#FFFFD5"/>
        <stop offset="0.5549" style="stop-color:#EEE9BE"/>
        <stop offset="0.5868" style="stop-color:#DBD0A3"/>
        <stop offset="0.6235" style="stop-color:#CBBB8D"/>
        <stop offset="0.6663" style="stop-color:#BFAB7C"/>
        <stop offset="0.7193" style="stop-color:#B6A071"/>
        <stop offset="0.7936" style="stop-color:#B19A6A"/>
        <stop offset="1" style="stop-color:#B09868"/>
</linearGradient>
    <rect x="121.14" y="106.99" style="fill:url(#SVGID_00000067198843744240758460000012857276491506365111_);"
          width="117.72" height="0.91"/>
    <text transform="matrix(1 0 0 1 163.4754 341.6443)" class="st30 st35 st36">Address:</text>
    <text transform="matrix(1 0 0 1 117.9939 354.8445)" class="st30 st31 st41">Polish home -The Belvedere </text>
    <text transform="matrix(1 0 0 1 149.5076 366.8445)" class="st30 st35 st36">201 E 1</text>
    <text transform="matrix(0.583 0 0 0.583 180.367 363.5145)" class="st30 st35 st36">st</text>
    <text transform="matrix(1 0 0 1 184.1326 366.8445)" class="st30 st35 st36"> Street </text>
    <text transform="matrix(1 0 0 1 140.6756 378.8445)" class="st30 st35 st36">Papillion, NE 68046</text>
    <text transform="matrix(1 0 0 1 149.9158 397.8445)" class="st30 st35 st36">Time: </text>
    <text transform="matrix(1 0 0 1 174.0652 397.8445)" class="st30 st31 st36">6:00 pm </text>
    <g>
	<polygon class="st30" points="100.34,475.79 99.48,474.36 99.31,476.02 97.68,476.4 99.21,477.08 99.07,478.74 100.19,477.49 
		101.73,478.14 100.88,476.7 101.98,475.43 	"/>
        <polygon class="st30" points="94.57,476.47 94.21,475.15 93.7,476.43 92.33,476.36 93.39,477.24 92.91,478.52 94.06,477.78
		95.14,478.64 94.79,477.31 95.94,476.56 	"/>
        <polygon class="st30" points="88.52,476 87.38,475.85 88.2,476.65 87.71,477.69 88.73,477.15 89.57,477.94 89.37,476.81
		90.38,476.26 89.24,476.09 89.03,474.97 	"/>
        <polygon class="st30" points="84.12,475.05 83.18,474.84 83.8,475.57 83.31,476.4 84.2,476.03 84.83,476.76 84.76,475.8
		85.64,475.42 84.71,475.19 84.62,474.24 	"/>
        <polygon class="st30" points="80.05,473.89 79.26,473.65 79.75,474.32 79.27,475 80.06,474.74 80.56,475.4 80.56,474.58
		81.34,474.31 80.55,474.05 80.54,473.22 	"/>
        <g>
		<path class="st30" d="M84.52,468.83c0.21,0.22,0.29,0.51,0.24,0.85c-0.05,0.35-0.19,0.6-0.42,0.76c-0.23,0.16-0.55,0.22-0.95,0.16
			l-0.94-0.13l0.1-0.78l0.9,0.12c0.29,0.04,0.48,0.02,0.55-0.07c0.03-0.04,0.05-0.09,0.06-0.15c0.02-0.12-0.02-0.21-0.12-0.26
			c-0.09-0.05-0.25-0.09-0.47-0.12l-4.03-0.54l0.11-0.8l3.99,0.54C83.99,468.47,84.31,468.61,84.52,468.83z"/>
            <path class="st30" d="M85.13,467.09l-4.94-2.14l0.28-1.03l5.36,0.62l-0.2,0.73l-0.95-0.13l-0.23,0.83l0.89,0.36L85.13,467.09z
			 M84.03,465.05l-2.68-0.36l0,0.01l2.5,1.02L84.03,465.05z"/>
            <path class="st30" d="M86.55,462.61l-5.23-1.3l0.3-0.71l2.35,0.61l1.65,0.46l0.01-0.02l-1.49-0.83l-2.11-1.2l0.29-0.7l4.62,2.77
			L86.55,462.61z"/>
            <path class="st30" d="M89.07,457.72l-4.41-2.99l0.46-0.67l3.84,2.61l0.58-0.85l0.57,0.39L89.07,457.72z"/>
            <path class="st30" d="M91.05,455l-4.08-3.43l0.52-0.62l4.08,3.43L91.05,455z"/>
            <path class="st30" d="M92.83,453.01l-3.7-3.84l1.29-1.24l0.49,0.5l-0.7,0.68l1.08,1.12l0.67-0.64l0.47,0.49l-0.67,0.64l1.18,1.22
			l0.73-0.7l0.49,0.5L92.83,453.01z"/>
            <path class="st30"
                  d="M95.64,450.5l-2.82-3.67l-0.5,0.38l-0.43-0.56l1.61-1.24l0.43,0.56l-0.48,0.36l2.82,3.67L95.64,450.5z"/>
            <path class="st30" d="M99.57,447.54c-0.04,0.29-0.24,0.54-0.6,0.75c-0.35,0.21-0.67,0.26-0.95,0.15
			c-0.28-0.11-0.54-0.37-0.79-0.79l-2.01-3.42l0.7-0.41l2,3.41c0.14,0.24,0.24,0.38,0.29,0.42s0.11,0.07,0.17,0.09
			c0.06,0.02,0.14,0.01,0.24-0.05c0.1-0.06,0.16-0.13,0.16-0.22c0.01-0.08-0.01-0.17-0.05-0.27s-0.1-0.21-0.18-0.35l-2-3.41
			l0.7-0.41l2.01,3.42C99.51,446.89,99.62,447.25,99.57,447.54z"/>
            <path class="st30" d="M102.09,446.64l-2.81-4.6l0.71-0.3l1.25,2.09l0.85,1.48l0.02-0.01l-0.48-1.64l-0.66-2.33l0.7-0.29l1.34,5.21
			L102.09,446.64z"/>
            <path class="st30" d="M105.26,445.48l-1.47-5.12l0.78-0.22l1.47,5.12L105.26,445.48z"/>
            <path class="st30" d="M109.8,444.19c-0.15,0.26-0.42,0.42-0.83,0.49c-0.41,0.07-0.72,0-0.94-0.2c-0.22-0.2-0.37-0.54-0.45-1.02
			l-0.64-3.91l0.8-0.13l0.64,3.9c0.05,0.28,0.09,0.44,0.12,0.5c0.04,0.06,0.08,0.1,0.12,0.15c0.05,0.04,0.13,0.05,0.24,0.04
			c0.12-0.02,0.19-0.07,0.23-0.14c0.04-0.08,0.06-0.17,0.05-0.27c-0.01-0.1-0.02-0.23-0.05-0.39l-0.64-3.9l0.8-0.13l0.64,3.91
			C109.98,443.56,109.95,443.93,109.8,444.19z M109.32,446.47c-0.27,0.05-0.49,0.01-0.66-0.09c-0.17-0.11-0.27-0.27-0.31-0.48
			c-0.04-0.21,0-0.44,0.1-0.67c0.1-0.23,0.27-0.44,0.5-0.62l0.32-0.05c-0.3,0.44-0.42,0.8-0.37,1.1c0.02,0.13,0.08,0.22,0.17,0.27
			c0.09,0.05,0.19,0.07,0.31,0.05c0.11-0.02,0.23-0.05,0.36-0.11l0.07,0.41c-0.04,0.03-0.1,0.06-0.2,0.1
			C109.51,446.42,109.41,446.45,109.32,446.47z"/>
            <path class="st30" d="M116.52,440.36c-0.03,0.57-0.2,0.92-0.52,1.03c0.37,0.14,0.54,0.57,0.51,1.28l-0.01,0.14
			c-0.03,0.53-0.14,0.92-0.33,1.14s-0.5,0.33-0.91,0.31l-1.18-0.05l0.25-5.32l1.15,0.05c0.4,0.02,0.67,0.12,0.83,0.32
			c0.16,0.19,0.23,0.51,0.21,0.94L116.52,440.36z M114.93,443.62l0.29,0.01c0.16,0.01,0.28-0.04,0.35-0.15
			c0.07-0.11,0.11-0.3,0.12-0.59l0.02-0.43c0.01-0.27,0-0.46-0.05-0.58c-0.05-0.11-0.15-0.18-0.29-0.18l-0.34-0.02L114.93,443.62z
			 M115.04,441.08l0.3,0.01c0.14,0.01,0.23-0.03,0.28-0.12c0.05-0.09,0.08-0.27,0.09-0.54l0.01-0.32c0.01-0.21-0.01-0.34-0.07-0.42
			c-0.05-0.07-0.14-0.11-0.28-0.12l-0.27-0.01L115.04,441.08z"/>
            <path class="st30" d="M118.06,444.52l0.92-5.25l1.76,0.31l-0.12,0.69l-0.96-0.17l-0.27,1.53l0.91,0.16l-0.12,0.67l-0.91-0.16
			l-0.29,1.67l1,0.18l-0.12,0.69L118.06,444.52z"/>
            <path class="st30" d="M121.46,445.22l1.61-5.08l0.61,0.19l0.11,3.39l0.38-1.4l0.53-1.66l0.7,0.22l-1.61,5.08l-0.55-0.17
			l-0.11-3.51l-0.38,1.35l-0.58,1.82L121.46,445.22z"/>
            <path class="st30" d="M125.44,446.62l2.31-4.8l1.08,0.52c0.35,0.17,0.56,0.4,0.62,0.68s-0.01,0.63-0.2,1.04l-1.04,2.17
			c-0.23,0.48-0.48,0.8-0.75,0.95c-0.27,0.15-0.59,0.13-0.96-0.04L125.44,446.62z M126.45,446.4l0.24,0.12
			c0.13,0.06,0.25,0.07,0.36,0.01c0.1-0.06,0.21-0.2,0.32-0.44l1.14-2.37c0.12-0.25,0.17-0.44,0.16-0.58
			c-0.01-0.13-0.09-0.24-0.24-0.31l-0.22-0.1L126.45,446.4z"/>
            <path class="st30" d="M131.31,446.98l-0.21-0.15l-1.39,2.1l-0.68-0.45l2.95-4.44l1.12,0.74c0.23,0.15,0.37,0.32,0.43,0.49
			c0.05,0.17,0.04,0.35-0.03,0.54c-0.08,0.19-0.2,0.42-0.38,0.69c-0.18,0.27-0.34,0.46-0.5,0.56c-0.15,0.1-0.32,0.13-0.51,0.07
			c0.14,0.13,0.17,0.3,0.11,0.52c-0.06,0.22-0.28,0.61-0.66,1.18c-0.38,0.57-0.57,0.88-0.58,0.93l-0.68-0.45
			c0.01-0.04,0.35-0.58,1.03-1.61c0.13-0.2,0.19-0.34,0.19-0.44C131.52,447.18,131.45,447.08,131.31,446.98z M131.45,446.31
			l0.27,0.18c0.09,0.06,0.16,0.08,0.23,0.07c0.07-0.01,0.14-0.06,0.22-0.14c0.08-0.08,0.18-0.22,0.31-0.42l0.02-0.03
			c0.16-0.24,0.24-0.41,0.25-0.51c0.01-0.1-0.06-0.2-0.21-0.3l-0.23-0.15L131.45,446.31z"/>
            <path class="st30" d="M134.05,451.96c-0.29,0.05-0.59-0.06-0.9-0.33c-0.31-0.27-0.45-0.56-0.44-0.85c0.01-0.3,0.18-0.63,0.51-1
			l2.63-2.97l0.61,0.54l-2.62,2.96c-0.19,0.21-0.29,0.35-0.31,0.41c-0.02,0.06-0.03,0.12-0.04,0.19c0,0.06,0.04,0.13,0.12,0.21
			c0.09,0.08,0.17,0.11,0.26,0.09c0.08-0.02,0.16-0.06,0.24-0.13c0.08-0.07,0.17-0.16,0.27-0.28l2.62-2.96l0.61,0.54l-2.63,2.97
			C134.65,451.7,134.35,451.91,134.05,451.96z"/>
            <path class="st30" d="M136.86,454.93c-0.32,0.03-0.61-0.12-0.87-0.43s-0.36-0.62-0.29-0.93c0.07-0.31,0.3-0.64,0.7-0.98l1.85-1.59
			c0.74-0.64,1.37-0.65,1.89-0.05c0.27,0.31,0.37,0.62,0.3,0.92c-0.07,0.3-0.29,0.6-0.65,0.92l-1.85,1.59
			C137.53,454.72,137.18,454.9,136.86,454.93z M136.47,453.7c-0.06,0.12-0.05,0.23,0.05,0.34c0.1,0.11,0.21,0.14,0.33,0.1
			c0.13-0.05,0.31-0.17,0.54-0.37l1.88-1.62c0.19-0.16,0.32-0.3,0.37-0.41s0.04-0.22-0.05-0.32c-0.09-0.11-0.2-0.14-0.32-0.11
			c-0.12,0.03-0.28,0.13-0.47,0.29l-1.89,1.62C136.68,453.42,136.53,453.58,136.47,453.7z"/>
            <path class="st30" d="M137.84,456.7l4.54-2.8l0.53,0.86l-2.92,2.69l3.69-1.44l0.53,0.86l-4.54,2.8l-0.38-0.62l1.69-1.04l1.57-0.93
			l-3.6,1.37l-0.34-0.55l2.83-2.62l-1.54,0.98l-1.69,1.04L137.84,456.7z"/>
            <path class="st30" d="M140.43,461.29l4.9-2.09l0.7,1.64l-0.64,0.27l-0.38-0.9l-1.43,0.61l0.36,0.85l-0.63,0.27l-0.36-0.85
			l-1.56,0.66l0.4,0.93l-0.64,0.27L140.43,461.29z"/>
            <path class="st30" d="M141.71,464.52l5.14-1.42l0.17,0.61l-2.78,1.94l1.39-0.44l1.68-0.47l0.19,0.7l-5.14,1.42l-0.15-0.55l2.88-2
			l-1.34,0.42l-1.84,0.51L141.71,464.52z"/>
            <path class="st30" d="M142.7,468.64l5.28-0.73l0.25,1.77l-0.69,0.1l-0.13-0.97l-1.54,0.21l0.13,0.92l-0.68,0.09l-0.13-0.92
			l-1.68,0.23l0.14,1l-0.69,0.1L142.7,468.64z M148.4,468.38l0.68-0.09l0.11,0.81l-0.68,0.09L148.4,468.38z"/>
	</g>
        <path class="st42" d="M112.82,459.44c1.29,0,2.58,0,3.87,0c0.04,0.01,0.08,0.02,0.13,0.02c0.45,0.01,0.9,0.01,1.35,0.02
		c0.7,0.02,1.41,0.03,2.11,0.05c1.08,0.03,2.16,0.08,3.23,0.17c0.48,0.04,0.97,0.08,1.45,0.17c0.18,0.03,0.36,0.09,0.54,0.14
		c0.09,0.03,0.14,0.1,0.15,0.19c0.05,0.42,0.1,0.83,0.14,1.25c0.05,0.52,0.08,1.03,0.08,1.55c0,0.05,0.01,0.09,0.02,0.14
		c0,0.77,0,1.53,0,2.3c-0.01,0.05-0.02,0.1-0.02,0.15c0,0.69-0.06,1.37-0.12,2.05c-0.06,0.72-0.15,1.43-0.26,2.15
		c-0.18,1.16-0.42,2.31-0.73,3.44c-0.53,1.97-1.26,3.86-2.24,5.65c-1.08,1.98-2.42,3.75-4.06,5.3c-1.17,1.1-2.45,2.06-3.84,2.87
		c-0.04,0.02-0.07,0.06-0.11,0.08c-0.02,0-0.03,0-0.05,0c-0.06-0.03-0.11-0.07-0.17-0.1c-1.9-0.96-3.59-2.21-5.08-3.74
		c-1.27-1.31-2.33-2.77-3.23-4.36c-0.95-1.69-1.68-3.47-2.25-5.32c-0.46-1.5-0.81-3.03-1.05-4.58c-0.1-0.64-0.18-1.29-0.25-1.94
		c-0.06-0.59-0.1-1.19-0.14-1.79c-0.02-0.31-0.03-0.62-0.05-0.93c0-0.04-0.02-0.08-0.03-0.12c0-0.49,0-0.99,0-1.48
		c0.01-0.05,0.03-0.09,0.03-0.14c0.02-0.39,0.04-0.79,0.07-1.18c0.03-0.35,0.08-0.7,0.14-1.04c0.06-0.34,0.09-0.37,0.43-0.43
		c0.36-0.07,0.72-0.13,1.09-0.16c0.6-0.06,1.21-0.11,1.81-0.14c0.66-0.04,1.33-0.07,1.99-0.1c0.8-0.03,1.61-0.05,2.41-0.07
		c0.84-0.02,1.67-0.03,2.51-0.04C112.75,459.46,112.79,459.44,112.82,459.44z"/>
        <path class="st42" d="M124.29,477.16c4.61-0.97,8.93-1.71,12.36-1.77c7.17-0.12,11.58,2.42,11.58,2.42s-2.82-3.8-10.02-4.22
		c-3.73-0.22-8.28,0.44-13.1,1.43C124.87,475.76,124.59,476.47,124.29,477.16z"/>
        <path class="st42" d="M98.42,481.94c2.31-0.06,5-0.41,7.88-0.92c-0.34-0.5-0.67-1.02-0.98-1.56c-2.92,0.55-5.65,0.92-8.03,0.97
		c-10.62,0.21-20.67-3.9-20.67-3.9S87.92,482.21,98.42,481.94z"/>
        <path class="st42" d="M137.77,476.75c-4.34-0.27-8.99,0.69-14.2,1.96c-0.1,0.19-0.19,0.39-0.29,0.58
		c-0.28,0.51-0.58,1.01-0.89,1.49c5.96-1.29,11.29-2.4,15.37-2.25c6.06,0.21,8.38,1.35,8.38,1.35S143.82,477.13,137.77,476.75z"/>
        <path class="st42" d="M109.55,484.77c-5.56,0.64-11.16,0.28-11.16,0.28s4.43,0.91,11.45,0.64c0.25-0.01,0.5-0.03,0.74-0.04
		C110.23,485.37,109.88,485.08,109.55,484.77z"/>
        <path class="st42" d="M121.16,482.48c-0.54,0.68-1.11,1.32-1.72,1.93c5.98-1.22,11.63-2.88,17.24-3.01
		c4.22-0.1,7.57,0.34,7.57,0.34s-2.44-1.7-7.13-1.77C131.81,479.88,126.59,481.17,121.16,482.48z"/>
        <path class="st42" d="M99.61,484.29c2.88-0.08,5.78-0.38,8.65-0.79c-0.36-0.39-0.71-0.81-1.05-1.23c-1.7,0.26-3.45,0.48-5.26,0.64
		c-10.07,0.91-19.17-2.4-19.17-2.4S90,484.55,99.61,484.29z"/>
        <path class="st30" d="M120.83,471.99c0-0.04,0-0.08,0-0.12c-0.01-0.64-0.01-1.28-0.03-1.91c-0.01-0.3-0.04-0.6-0.06-0.89
		c0-0.03-0.01-0.06-0.02-0.09c-0.21-0.54-0.56-0.94-1.14-1.08c-0.47-0.11-0.92-0.03-1.34,0.2c-0.04,0.02-0.08,0.06-0.11,0.09
		c-0.4,0.46-0.62,1-0.67,1.6c-0.05,0.62,0.07,1.2,0.27,1.78c0.05,0.13,0.1,0.26,0.15,0.39c0.17,0.41,0.43,0.76,0.75,1.07
		c0.15,0.14,0.3,0.28,0.45,0.41c0.04,0.04,0.1,0.07,0.16,0.08c0.58,0.18,1.15,0.15,1.71-0.06c0.43-0.16,0.82-0.4,1.19-0.68
		c0.35-0.26,0.67-0.54,0.98-0.84c0.03-0.03,0.06-0.05,0.1-0.09c0.2,0.24,0.4,0.47,0.6,0.71c-0.03,0.02-0.05,0.04-0.07,0.05
		c-0.86,0.51-1.76,0.95-2.72,1.23c-0.48,0.14-0.96,0.23-1.46,0.2c-0.29-0.01-0.56-0.08-0.82-0.2c-0.36-0.16-0.69-0.37-0.96-0.66
		c-0.19-0.2-0.36-0.42-0.5-0.66c-0.18-0.31-0.35-0.62-0.51-0.93c-0.03-0.06-0.08-0.1-0.15-0.12c-0.34-0.1-0.7-0.17-1.05-0.23
		c-0.33-0.05-0.65-0.1-0.98-0.14c-0.03,0-0.06,0-0.08,0c-0.04,0.1-0.05,0.26-0.03,0.4c0.26,0.04,0.52,0.08,0.79,0.12
		c0.26,0.04,0.51,0.07,0.77,0.12c0,0.01,0,0.02,0,0.03c-0.53,0.09-1.06,0.18-1.61,0.28c-0.01,0.05-0.02,0.1-0.03,0.16
		c-0.14,0.96-0.17,1.94-0.2,2.91c-0.02,0.63-0.06,1.26-0.09,1.89c-0.01,0.11-0.02,0.22-0.04,0.33c-0.01,0.06-0.01,0.12-0.01,0.2
		c0.57-0.08,1.13-0.17,1.7-0.25c0.01-0.09,0.02-0.17,0.03-0.25c0.07-0.38,0.24-0.71,0.51-0.98c0.34-0.34,0.75-0.55,1.19-0.72
		c0.01,0,0.02,0,0.04,0c-0.03,0.03-0.05,0.05-0.08,0.07c-0.2,0.17-0.4,0.34-0.6,0.51c-0.22,0.2-0.39,0.44-0.51,0.7
		c-0.09,0.18-0.11,0.54,0.13,0.74c0.09,0.07,0.19,0.14,0.29,0.19c0.2,0.11,0.4,0.2,0.6,0.3c0.04,0.02,0.07,0.04,0.11,0.08
		c-0.02,0-0.05,0-0.07,0c-0.51-0.12-1.03-0.2-1.56-0.22c-0.34-0.01-0.68,0.01-1.01,0.02c-0.14,0.01-0.28,0.03-0.42,0.04
		c-0.08,0.01-0.12,0.04-0.15,0.12c-0.23,0.67-0.38,1.36-0.36,2.07c0,0.02,0,0.05-0.02,0.07c-0.01-0.05-0.02-0.1-0.03-0.15
		c-0.06-0.3-0.13-0.6-0.23-0.89c-0.21-0.6-0.6-1.01-1.18-1.26c-0.38-0.16-0.78-0.26-1.18-0.36c-0.03-0.01-0.07-0.02-0.11-0.03
		c0.17-0.08,0.86-0.14,1.37-0.05c0.46,0.08,0.88,0.23,1.29,0.48c0-0.04,0-0.07,0-0.09c-0.04-0.37-0.08-0.74-0.11-1.12
		c-0.07-0.97-0.05-1.95-0.04-2.93c0-0.53-0.02-1.07-0.03-1.6c0-0.08-0.04-0.11-0.1-0.14c-0.36-0.16-0.71-0.31-1.07-0.47
		c-0.03-0.02-0.07-0.03-0.1-0.05c0-0.01,0-0.02,0.01-0.03c0.38-0.01,0.76-0.03,1.14-0.04c0-0.01,0-0.02,0-0.03
		c-0.7-0.18-1.41-0.33-2.16-0.23c-0.03-0.06-0.06-0.12-0.08-0.18c-0.12-0.36-0.25-0.72-0.36-1.09c-0.21-0.74-0.41-1.48-0.62-2.22
		c-0.06-0.22-0.15-0.44-0.22-0.66c-0.08-0.22-0.21-0.39-0.38-0.54c-0.3-0.26-0.62-0.49-0.95-0.7c-0.04-0.02-0.08-0.05-0.13-0.06
		c0.03,0.03,0.06,0.06,0.09,0.09c0.29,0.27,0.56,0.56,0.77,0.89c0.15,0.23,0.27,0.48,0.35,0.75c0.11,0.36,0.24,0.72,0.34,1.08
		c0.15,0.54,0.26,1.09,0.27,1.65c0.01,0.34-0.02,0.68-0.14,1.01c-0.04,0.1-0.09,0.2-0.13,0.31c0.64,0.1,1.29,0.14,1.93,0.17
		c-0.02,0.08-0.35,0.51-0.55,0.7c-0.03-0.01-0.08-0.02-0.12-0.03c-0.6-0.21-1.22-0.3-1.86-0.25c-0.64,0.05-1.23,0.23-1.8,0.52
		c-0.67,0.34-1.25,0.8-1.78,1.32c-0.12,0.11-0.24,0.22-0.35,0.32c0,0,0-0.02,0.01-0.04c0.16-0.39,0.33-0.78,0.5-1.17
		c0.02-0.05,0.07-0.09,0.11-0.12c0.72-0.5,1.49-0.88,2.33-1.14c0.24-0.07,0.48-0.16,0.73-0.23c0.09-0.03,0.15-0.08,0.19-0.16
		c0.22-0.43,0.35-0.88,0.41-1.35c0.08-0.66,0.02-1.31-0.2-1.94c-0.12-0.36-0.3-0.69-0.53-0.98c-0.03-0.03-0.06-0.07-0.09-0.11
		c-0.05,0.1-0.08,0.2-0.13,0.29c-0.15,0.25-0.31,0.5-0.48,0.74c-0.05,0.08-0.06,0.13-0.02,0.22c0.08,0.16,0.14,0.33,0.21,0.49
		c0.02,0.04,0.03,0.07,0.05,0.12c-0.04,0-0.06,0-0.09,0c-0.2-0.04-0.4-0.08-0.6-0.11c-0.08-0.01-0.12-0.05-0.15-0.13
		c-0.27-0.71-0.31-1.44-0.15-2.19c0.09-0.43,0.24-0.83,0.39-1.24c0.08-0.21,0.16-0.42,0.24-0.63c0.01-0.02,0.02-0.04,0.04-0.08
		c0.02,0.03,0.03,0.05,0.04,0.07c0.11,0.26,0.27,0.48,0.48,0.66c0.21,0.19,0.43,0.36,0.64,0.53c0.31,0.24,0.62,0.48,0.9,0.75
		c0.53,0.52,0.85,1.14,0.95,1.87c0.05,0.37,0.09,0.75,0.14,1.13c0.01,0.06,0.02,0.12,0.03,0.18c0.58,0.2,1.15,0.4,1.72,0.6
		c0-0.01,0.01-0.01,0.01-0.02c-0.3-0.41-0.59-0.81-0.9-1.24c0.12,0.02,0.19,0.09,0.26,0.13c0.08,0.04,0.16,0.09,0.24,0.14
		c0.08,0.05,0.16,0.09,0.24,0.14c0.08,0.05,0.16,0.09,0.24,0.14c0.08,0.05,0.16,0.09,0.25,0.14c0-0.03,0.01-0.05,0.01-0.07
		c0.01-0.48,0.01-0.96,0.02-1.43c0.01-0.53,0-1.05-0.14-1.57c-0.05-0.18-0.13-0.35-0.19-0.53c-0.03-0.07-0.08-0.11-0.15-0.15
		c-0.18-0.08-0.37-0.09-0.56-0.05c-0.22,0.04-0.43,0.12-0.63,0.22c-0.24,0.11-0.47,0.24-0.71,0.35c-0.09,0.05-0.19,0.08-0.29,0.13
		c0-0.1,0.29-0.87,0.42-1.12c0.03,0,0.06,0,0.1,0c0.39,0.01,0.79,0.01,1.18,0.02c0.29,0,0.57,0.01,0.86,0.01
		c0.06,0,0.11-0.01,0.17-0.05c0.53-0.39,0.78-0.9,0.74-1.56c-0.01-0.11-0.02-0.21-0.04-0.34c-0.41,0.37-0.75,0.76-1.15,1.11
		c-0.09-0.34-0.18-0.67-0.28-1.01c0.04-0.03,0.08-0.06,0.13-0.09c0.2-0.11,0.4-0.21,0.61-0.31c0.14-0.07,0.29-0.14,0.43-0.21
		c0.07-0.03,0.13-0.04,0.2-0.02c0.42,0.09,0.68,0.39,0.73,0.82c0.05,0.49-0.08,0.95-0.31,1.38c-0.02,0.04-0.04,0.08-0.06,0.12
		c0,0,0,0.01,0.01,0.02c0.1,0,0.19,0.01,0.29,0.01c0.29,0.03,0.57,0.13,0.83,0.26c0.21,0.11,0.42,0.23,0.63,0.34
		c0.23,0.12,0.45,0.23,0.69,0.33c0.29,0.12,0.59,0.15,0.9,0.06c0.08-0.02,0.15-0.05,0.22-0.09c0.02-0.01,0.05-0.05,0.05-0.07
		c0-0.11,0-0.21-0.02-0.32c-0.02-0.13-0.1-0.21-0.23-0.23c-0.12-0.02-0.25-0.04-0.38-0.05c-0.24-0.02-0.24-0.01-0.39-0.2
		c-0.47-0.58-0.98-1.12-1.49-1.67c-0.44-0.47-0.88-0.94-1.3-1.42c-0.25-0.29-0.48-0.59-0.72-0.9c-0.09-0.12-0.16-0.25-0.24-0.38
		c0.06-0.03,0.09,0,0.12,0.02c0.25,0.13,0.49,0.29,0.71,0.46c0.67,0.52,1.28,1.11,1.86,1.72c0.76,0.8,1.56,1.57,2.38,2.3
		c0.02,0.02,0.05,0.04,0.09,0.07c0.18-0.16,0.37-0.32,0.57-0.5c-0.01,0.07-0.01,0.1-0.01,0.14c-0.05,0.27-0.1,0.54-0.15,0.81
		c-0.01,0.06,0,0.11,0.03,0.17c0.14,0.22,0.28,0.45,0.42,0.67c0.01,0.02,0.02,0.05,0.02,0.08c-0.03-0.02-0.07-0.04-0.1-0.06
		c-0.23-0.16-0.47-0.32-0.7-0.49c-0.07-0.05-0.12-0.06-0.2-0.02c-0.17,0.08-0.34,0.16-0.51,0.23c-0.16,0.07-0.33,0.14-0.51,0.16
		c-0.17,0.02-0.33-0.01-0.49-0.08c-0.44-0.19-0.88-0.38-1.32-0.56c-0.24-0.1-0.49-0.18-0.76-0.25c-0.01,0.03-0.02,0.06-0.03,0.09
		c-0.13,0.66-0.25,1.32-0.33,1.99c-0.06,0.52-0.09,1.04-0.08,1.56c0,0.02,0,0.05,0.01,0.09c0.47-0.3,0.92-0.6,1.38-0.9
		c0.01,0.01,0.01,0.02,0.02,0.03c-0.21,0.27-0.44,0.52-0.68,0.77c-0.24,0.25-0.48,0.5-0.77,0.73c0.13,0.01,0.23-0.01,0.33-0.03
		c0.3-0.05,0.6-0.1,0.91-0.14c0.19-0.03,0.37-0.02,0.56,0.02c0.29,0.06,0.53,0.22,0.7,0.46c0.02,0.03,0.05,0.06,0.07,0.1
		c0,0,0.01,0,0.02,0.01c-0.02-0.13-0.04-0.27-0.05-0.4c-0.05-0.76,0.1-1.47,0.53-2.1c0.19-0.28,0.44-0.49,0.75-0.63
		c0.38-0.17,0.77-0.28,1.19-0.26c0.47,0.02,0.86,0.2,1.16,0.55c0.26,0.3,0.41,0.65,0.52,1.03c0.05,0.17,0.06,0.34,0.07,0.52
		c0.02,0.42-0.03,0.84-0.1,1.25c-0.08,0.44-0.19,0.86-0.33,1.28c-0.01,0.03-0.03,0.07-0.04,0.1
		C120.86,471.98,120.85,471.98,120.83,471.99z"/>
        <g>
		<path class="st30" d="M88.19,470.65l0.05-0.36l3.96,0.53l0.1-0.75l0.28,0.04l-0.15,1.11L88.19,470.65z"/>
            <path class="st30" d="M88.54,468.49l0.08-0.35l4.18,0.89l-0.08,0.35L88.54,468.49z"/>
            <path class="st30"
                  d="M88.88,467.06l0.34-1.16l0.27,0.08l-0.11,0.38l3.84,1.12l-0.1,0.35l-3.84-1.12l-0.13,0.43L88.88,467.06z"/>
            <path class="st30" d="M90,463.76l0.14-0.34l3.97,1.59l-0.13,0.34l-2-0.8l-0.29,0.73l2,0.8l-0.14,0.34l-3.97-1.59l0.14-0.34
			l1.72,0.69l0.29-0.73L90,463.76z"/>
            <path class="st30" d="M91.31,461.09l0.17-0.32l2.79,1.52c0.35,0.19,0.59,0.38,0.7,0.55c0.11,0.18,0.1,0.39-0.04,0.65
			s-0.32,0.39-0.53,0.4c-0.21,0-0.49-0.09-0.84-0.28l-2.79-1.52l0.17-0.32l2.78,1.51c0.26,0.14,0.44,0.22,0.54,0.25
			c0.18,0.04,0.31-0.01,0.4-0.17c0.07-0.13,0.08-0.24,0.04-0.33c-0.04-0.09-0.25-0.24-0.6-0.43L91.31,461.09z"/>
            <path class="st30" d="M92.5,459.19l0.21-0.3l3.94,1.82l-0.2,0.29l-0.79-0.38l-0.49,0.7l0.64,0.6l-0.2,0.28L92.5,459.19z
			 M95.39,460.48l-2.21-1.06l0,0l1.78,1.68L95.39,460.48z"/>
            <path class="st30" d="M94.74,456.35l0.21-0.24l3.21,2.82l-0.19,0.21l-3.07-1.39l0.88,0.75l1.55,1.36l-0.22,0.26l-3.21-2.82
			l0.17-0.19l3.18,1.4l-1.13-0.95L94.74,456.35z"/>
            <path class="st30" d="M96,455.07l0.26-0.25l2.93,3.12l-0.26,0.25L96,455.07z"/>
            <path class="st30" d="M97.68,453.6l0.29-0.23l3.24,2.89l-0.28,0.22l-0.65-0.59l-0.67,0.53l0.44,0.76l-0.27,0.21L97.68,453.6z
			 M100.07,455.68l-1.81-1.66l0,0l1.21,2.13L100.07,455.68z"/>
            <path class="st30" d="M100.67,451.53l0.27-0.17l2.25,3.64l-0.24,0.15l-2.53-2.23l0.63,0.97l1.08,1.76l-0.29,0.18l-2.25-3.64
			l0.22-0.13l2.63,2.26l-0.8-1.23L100.67,451.53z"/>
            <path class="st30" d="M103.85,449.93l0.34-0.14l2.32,3.67l-0.32,0.13l-0.46-0.75l-0.79,0.32l0.21,0.85l-0.32,0.13L103.85,449.93z
			 M105.57,452.59l-1.28-2.09l0,0l0.58,2.38L105.57,452.59z"/>
            <path class="st30" d="M107.79,448.64l0.39-0.1l1.1,4.13l-0.32,0.08l-0.47-1.77l-0.39-1.68l0.3,3.5l-0.33,0.09l-1.5-3.18l0.5,1.65
			l0.47,1.77l-0.32,0.09l-1.1-4.13l0.39-0.1l1.57,3.3L107.79,448.64z"/>
            <path class="st30" d="M109.66,448.28l1.12-0.16l0.04,0.28l-0.76,0.11l0.24,1.66l0.71-0.1l0.04,0.29l-0.71,0.1l0.25,1.73l0.75-0.11
			l0.04,0.28l-1.11,0.16L109.66,448.28z"/>
            <path class="st30" d="M112.04,448l0.73-0.03c0.29-0.01,0.49,0.04,0.59,0.16c0.08,0.09,0.13,0.2,0.16,0.33
			c0.03,0.13,0.04,0.33,0.05,0.58c0.01,0.25-0.01,0.46-0.06,0.63c-0.05,0.16-0.15,0.27-0.29,0.31c0.06,0.01,0.11,0.02,0.15,0.05
			c0.04,0.02,0.08,0.06,0.11,0.12c0.1,0.18,0.17,0.64,0.2,1.37c0.01,0.3,0.02,0.48,0.03,0.52c0.01,0.05,0.02,0.1,0.05,0.17
			l-0.36,0.01c-0.03-0.05-0.05-0.14-0.06-0.27c-0.01-0.14-0.02-0.35-0.03-0.65l-0.02-0.47c-0.01-0.3-0.04-0.49-0.08-0.57
			c-0.04-0.08-0.15-0.12-0.33-0.11l-0.38-0.01l0.08,2.11l-0.36,0.01L112.04,448z M113.2,448.99c-0.01-0.22-0.02-0.37-0.05-0.47
			c-0.02-0.1-0.06-0.17-0.11-0.2c-0.05-0.03-0.13-0.05-0.23-0.04l-0.41,0.02l0.06,1.62l0.38-0.02c0.12-0.01,0.21-0.03,0.25-0.07
			c0.04-0.04,0.07-0.12,0.09-0.21c0.02-0.1,0.02-0.29,0.01-0.59L113.2,448.99z"/>
            <path class="st30" d="M114.9,447.97l0.36,0.02l-0.21,4.27l-0.36-0.02L114.9,447.97z"/>
            <path class="st30" d="M116.49,449.32c0.07-0.51,0.18-0.85,0.34-1c0.15-0.15,0.35-0.21,0.59-0.18c0.24,0.03,0.4,0.12,0.49,0.25
			c0.06,0.1,0.1,0.19,0.11,0.27c0.03,0.2,0.01,0.5-0.04,0.89l-0.05,0.37l-0.36-0.05l0.06-0.41c0.05-0.36,0.06-0.6,0.04-0.72
			c-0.02-0.13-0.07-0.21-0.13-0.25c-0.04-0.02-0.08-0.04-0.13-0.04c-0.15-0.02-0.27,0.04-0.35,0.19c-0.08,0.15-0.14,0.39-0.19,0.72
			l-0.24,1.7c-0.06,0.41-0.07,0.7-0.04,0.86c0.03,0.16,0.12,0.26,0.28,0.28c0.15,0.02,0.27-0.04,0.33-0.19s0.13-0.43,0.19-0.84
			l0.05-0.34l0.36,0.05l-0.05,0.34c-0.05,0.37-0.11,0.63-0.18,0.79c-0.06,0.16-0.13,0.27-0.19,0.33c-0.13,0.14-0.32,0.19-0.55,0.15
			c-0.24-0.03-0.4-0.13-0.5-0.3c-0.12-0.2-0.14-0.6-0.06-1.18L116.49,449.32z"/>
            <path class="st30" d="M119.87,448.67l0.36,0.09l-0.31,4.33l-0.34-0.09l0.07-0.88l-0.83-0.21l-0.34,0.81l-0.33-0.08L119.87,448.67z
			 M119.68,451.83l0.21-2.44l0,0l-0.94,2.26L119.68,451.83z"/>
            <path class="st30" d="M123.35,449.78l0.3,0.11l-1.51,4l-0.26-0.1l0.22-3.36l-0.39,1.09l-0.73,1.93l-0.32-0.12l1.51-4l0.24,0.09
			l-0.19,3.47l0.49-1.39L123.35,449.78z"/>
            <path class="st30" d="M125.5,452.15c0.26-0.45,0.49-0.71,0.69-0.79s0.4-0.06,0.61,0.06c0.21,0.12,0.33,0.26,0.36,0.41
			c0.02,0.11,0.02,0.21,0,0.29c-0.05,0.2-0.18,0.47-0.38,0.81l-0.19,0.32l-0.32-0.18l0.21-0.36c0.18-0.31,0.29-0.53,0.31-0.65
			c0.03-0.12,0.02-0.22-0.03-0.28c-0.02-0.03-0.06-0.06-0.1-0.09c-0.13-0.08-0.26-0.06-0.39,0.04c-0.13,0.11-0.28,0.3-0.45,0.6
			l-0.86,1.48c-0.21,0.36-0.33,0.62-0.36,0.78c-0.03,0.16,0.02,0.28,0.15,0.36c0.13,0.08,0.26,0.06,0.38-0.05
			c0.12-0.11,0.28-0.35,0.49-0.7l0.17-0.3l0.32,0.18l-0.17,0.29c-0.19,0.32-0.34,0.55-0.46,0.67c-0.12,0.12-0.22,0.2-0.3,0.23
			c-0.18,0.07-0.37,0.05-0.57-0.07s-0.32-0.27-0.35-0.47c-0.03-0.23,0.1-0.61,0.39-1.11L125.5,452.15z"/>
            <path class="st30" d="M127.79,453.52c0.31-0.42,0.56-0.65,0.76-0.7c0.2-0.05,0.41,0.01,0.62,0.17c0.22,0.16,0.31,0.34,0.29,0.54
			c-0.02,0.14-0.06,0.27-0.14,0.41c-0.08,0.14-0.19,0.3-0.32,0.48l-1.08,1.46c-0.22,0.3-0.39,0.5-0.52,0.59
			c-0.13,0.1-0.23,0.15-0.31,0.17c-0.17,0.04-0.36-0.01-0.55-0.15c-0.29-0.21-0.37-0.47-0.26-0.77c0.07-0.2,0.22-0.44,0.43-0.74
			L127.79,453.52z M128.73,454.17c0.2-0.27,0.32-0.48,0.37-0.62c0.04-0.14,0-0.26-0.12-0.35c-0.12-0.09-0.25-0.1-0.38-0.02
			c-0.13,0.08-0.3,0.25-0.49,0.52l-1.1,1.49c-0.23,0.32-0.37,0.53-0.4,0.64s-0.04,0.2-0.02,0.25c0.02,0.05,0.06,0.1,0.13,0.15
			c0.07,0.05,0.13,0.07,0.18,0.08c0.06,0,0.14-0.03,0.23-0.09c0.1-0.06,0.26-0.25,0.5-0.57L128.73,454.17z"/>
            <path class="st30" d="M132.1,455.58l0.29,0.28l-2.96,3.09l-0.24-0.23l1.27-1.32l1.23-1.2l-2.84,2.08l-0.25-0.24l1.94-2.94
			l-1.15,1.28l-1.27,1.32l-0.24-0.23l2.96-3.09l0.29,0.28l-2,3.06L132.1,455.58z"/>
            <path class="st30" d="M134.52,458.41l0.25,0.32l-3.37,2.63l-0.2-0.26l1.45-1.13l1.39-1.02l-3.11,1.65l-0.21-0.27l2.34-2.63
			l-1.32,1.1l-1.45,1.13l-0.2-0.26l3.37-2.63l0.25,0.32l-2.42,2.74L134.52,458.41z"/>
            <path class="st30" d="M136.18,460.96l0.18,0.31l-2.74,1.62c-0.35,0.2-0.62,0.31-0.83,0.31c-0.21,0.01-0.39-0.12-0.54-0.37
			c-0.15-0.25-0.17-0.47-0.07-0.66c0.1-0.18,0.33-0.38,0.67-0.58l2.74-1.62l0.18,0.31l-2.73,1.61c-0.26,0.15-0.42,0.26-0.49,0.34
			c-0.13,0.13-0.15,0.28-0.06,0.43c0.07,0.13,0.16,0.19,0.27,0.2c0.1,0.01,0.33-0.09,0.68-0.3L136.18,460.96z"/>
            <path class="st30" d="M137.55,463.73l0.13,0.29l-3.91,1.73l-0.11-0.26l2.55-2.21l-1.05,0.49l-1.89,0.84l-0.14-0.31l3.91-1.73
			l0.1,0.23l-2.6,2.3l1.33-0.63L137.55,463.73z"/>
            <path class="st30" d="M138.18,465.4l0.11,0.34l-4.06,1.35l-0.11-0.34L138.18,465.4z"/>
            <path class="st30"
                  d="M138.62,466.81l0.3,1.17l-0.27,0.07l-0.1-0.39l-3.87,0.98l-0.09-0.35l3.87-0.98l-0.11-0.43L138.62,466.81z"
            />
            <path class="st30" d="M139.32,470.2l0.06,0.37l-2.48-0.31l-1.86,0.29l-0.06-0.36l1.85-0.29l2.25-1.14l0.06,0.36l-1.78,0.87l0,0.01
			L139.32,470.2z"/>
	</g>
</g>
</svg>
