<?xml version="1.0" encoding="UTF-8" standalone="no"?>
<!DOCTYPE svg PUBLIC "-//W3C//DTD SVG 1.1//EN" "http://www.w3.org/Graphics/SVG/1.1/DTD/svg11.dtd">
<svg xmlns="http://www.w3.org/2000/svg"
     version="1.1" viewBox="76.62 438.89 72.57 48.24" width="72.57"
     height="48.24">
  <defs/>
  <metadata>Produced by OmniGraffle 7.18.6\n2023-01-21 15:24:33 +0000</metadata>
  <g id="Canvas_1" fill-opacity="1" stroke="none" stroke-dasharray="none" stroke-opacity="1" fill="none">
    <title>Canvas 1</title>
    <g id="Canvas_1_Layer_1">
      <title>Layer 1</title>
      <g id="Group_73">
        <g id="Graphic_137">
          <path d="M 100.34 475.79 L 99.48 474.36 L 99.31 476.02 L 97.68 476.4 L 99.21 477.08 L 99.07 478.74 L 100.19 477.49 L 101.73 478.14 L 100.88 476.7 L 101.98 475.43 Z"
                fill="white"/>
        </g>
        <g id="Graphic_136">
          <path d="M 94.57 476.47 L 94.21 475.15 L 93.7 476.43 L 92.33 476.36 L 93.39 477.24 L 92.91 478.52 L 94.06 477.78 L 95.14 478.64 L 94.79 477.31 L 95.94 476.56 Z"
                fill="white"/>
        </g>
        <g id="Graphic_135">
          <path d="M 88.52 476 L 87.38 475.85 L 88.2 476.65 L 87.71 477.69 L 88.73 477.15 L 89.57 477.94 L 89.37 476.81 L 90.38 476.26 L 89.24 476.09 L 89.03 474.97 Z"
                fill="white"/>
        </g>
        <g id="Graphic_134">
          <path d="M 84.12 475.05 L 83.18 474.84 L 83.8 475.57 L 83.31 476.4 L 84.2 476.03 L 84.83 476.76 L 84.76 475.8 L 85.64 475.42 L 84.71 475.19 L 84.62 474.24 Z"
                fill="white"/>
        </g>
        <g id="Graphic_133">
          <path d="M 80.05 473.89 L 79.26 473.65 L 79.75 474.32 L 79.27 475 L 80.06 474.74 L 80.56 475.4 L 80.56 474.58 L 81.34 474.31 L 80.55 474.05 L 80.54 473.22 Z"
                fill="white"/>
        </g>
        <g id="Group_110">
          <g id="Graphic_132">
            <path d="M 84.52 468.83 C 84.73 469.05 84.81 469.34 84.76 469.68 C 84.71 470.03 84.57 470.28 84.34 470.44 C 84.11 470.6 83.79 470.66 83.39 470.6 L 82.45 470.47 L 82.55 469.69 L 83.45 469.81 C 83.74 469.85 83.93 469.83 84 469.74 C 84.03 469.7 84.05 469.65 84.06 469.59 C 84.08 469.47 84.04 469.38 83.94 469.33 C 83.85 469.28 83.69 469.24 83.47 469.21 L 79.44 468.67 L 79.55 467.87 L 83.54 468.41 C 83.99 468.47 84.31 468.61 84.52 468.83 Z"
                  fill="white"/>
          </g>
          <g id="Graphic_131">
            <path d="M 85.13 467.09 L 80.19 464.95 L 80.47 463.92 L 85.83 464.54 L 85.63 465.27 L 84.68 465.14 L 84.45 465.97 L 85.34 466.33 Z M 84.03 465.05 L 81.35 464.69 L 81.35 464.7 L 83.85 465.72 Z"
                  fill="white"/>
          </g>
          <g id="Graphic_130">
            <path d="M 86.55 462.61 L 81.32 461.31 L 81.62 460.6 L 83.97 461.21 L 85.62 461.67 L 85.63 461.65 L 84.14 460.82 L 82.03 459.62 L 82.32 458.92 L 86.94 461.69 Z"
                  fill="white"/>
          </g>
          <g id="Graphic_129">
            <path d="M 89.07 457.72 L 84.66 454.73 L 85.12 454.06 L 88.96 456.67 L 89.54 455.82 L 90.11 456.21 Z"
                  fill="white"/>
          </g>
          <g id="Graphic_128">
            <path d="M 91.05 455 L 86.97 451.57 L 87.49 450.95 L 91.57 454.38 Z" fill="white"/>
          </g>
          <g id="Graphic_127">
            <path d="M 92.83 453.01 L 89.13 449.17 L 90.42 447.93 L 90.91 448.43 L 90.21 449.11 L 91.29 450.23 L 91.96 449.59 L 92.43 450.08 L 91.76 450.72 L 92.94 451.94 L 93.67 451.24 L 94.16 451.74 Z"
                  fill="white"/>
          </g>
          <g id="Graphic_126">
            <path d="M 95.64 450.5 L 92.82 446.83 L 92.32 447.21 L 91.89 446.65 L 93.5 445.41 L 93.93 445.97 L 93.45 446.33 L 96.27 450 Z"
                  fill="white"/>
          </g>
          <g id="Graphic_125">
            <path d="M 99.57 447.54 C 99.53 447.83 99.33 448.08 98.97 448.29 C 98.62 448.5 98.3 448.55 98.02 448.44 C 97.74 448.33 97.48 448.07 97.23 447.65 L 95.22 444.23 L 95.92 443.82 L 97.92 447.23 C 98.06 447.47 98.16 447.61 98.21 447.65 C 98.26 447.69 98.32 447.72 98.38 447.74 C 98.44 447.76 98.52 447.75 98.62 447.69 C 98.72 447.63 98.78 447.56 98.78 447.47 C 98.79 447.39 98.77 447.3 98.73 447.2 C 98.69 447.1 98.63 446.99 98.55 446.85 L 96.55 443.44 L 97.25 443.03 L 99.26 446.45 C 99.51 446.89 99.62 447.25 99.57 447.54 Z"
                  fill="white"/>
          </g>
          <g id="Graphic_124">
            <path d="M 102.09 446.64 L 99.28 442.04 L 99.99 441.74 L 101.24 443.83 L 102.09 445.31 L 102.11 445.3 L 101.63 443.66 L 100.97 441.33 L 101.67 441.04 L 103.01 446.25 Z"
                  fill="white"/>
          </g>
          <g id="Graphic_123">
            <path d="M 105.26 445.48 L 103.79 440.36 L 104.57 440.14 L 106.04 445.26 Z" fill="white"/>
          </g>
          <g id="Graphic_122">
            <path d="M 109.8 444.19 C 109.65 444.45 109.38 444.61 108.97 444.68 C 108.56 444.75 108.25 444.68 108.03 444.48 C 107.81 444.28 107.66 443.94 107.58 443.46 L 106.94 439.55 L 107.74 439.42 L 108.38 443.32 C 108.43 443.6 108.47 443.76 108.5 443.82 C 108.54 443.88 108.58 443.92 108.62 443.97 C 108.67 444.01 108.75 444.02 108.86 444.01 C 108.98 443.99 109.05 443.94 109.09 443.87 C 109.13 443.79 109.15 443.7 109.14 443.6 C 109.13 443.5 109.12 443.37 109.09 443.21 L 108.45 439.31 L 109.25 439.18 L 109.89 443.09 C 109.98 443.56 109.95 443.93 109.8 444.19 Z M 109.32 446.47 C 109.05 446.52 108.83 446.48 108.66 446.38 C 108.49 446.27 108.39 446.11 108.35 445.9 C 108.31 445.69 108.35 445.46 108.45 445.23 C 108.55 445 108.72 444.79 108.95 444.61 L 109.27 444.56 C 108.97 445 108.85 445.36 108.9 445.66 C 108.92 445.79 108.98 445.88 109.07 445.93 C 109.16 445.98 109.26 446 109.38 445.98 C 109.49 445.96 109.61 445.93 109.74 445.87 L 109.81 446.28 C 109.77 446.31 109.71 446.34 109.61 446.38 C 109.51 446.42 109.41 446.45 109.32 446.47 Z"
                  fill="white"/>
          </g>
          <g id="Graphic_121">
            <path d="M 116.52 440.36 C 116.49 440.93 116.32 441.28 116 441.39 C 116.37 441.53 116.54 441.96 116.51 442.67 L 116.5 442.81 C 116.47 443.34 116.36 443.73 116.17 443.95 C 115.98 444.17 115.67 444.28 115.26 444.26 L 114.08 444.21 L 114.33 438.89 L 115.48 438.94 C 115.88 438.96 116.15 439.06 116.31 439.26 C 116.47 439.45 116.54 439.77 116.52 440.2 Z M 114.93 443.62 L 115.22 443.63 C 115.38 443.64 115.5 443.59 115.57 443.48 C 115.64 443.37 115.68 443.18 115.69 442.89 L 115.71 442.46 C 115.72 442.19 115.71 442 115.66 441.88 C 115.61 441.77 115.51 441.7 115.37 441.7 L 115.03 441.68 Z M 115.04 441.08 L 115.34 441.09 C 115.48 441.1 115.57 441.06 115.62 440.97 C 115.67 440.88 115.7 440.7 115.71 440.43 L 115.72 440.11 C 115.73 439.9 115.71 439.77 115.65 439.69 C 115.6 439.62 115.51 439.58 115.37 439.57 L 115.1 439.56 Z"
                  fill="white"/>
          </g>
          <g id="Graphic_120">
            <path d="M 118.06 444.52 L 118.98 439.27 L 120.74 439.58 L 120.62 440.27 L 119.66 440.1 L 119.39 441.63 L 120.3 441.79 L 120.18 442.46 L 119.27 442.3 L 118.98 443.97 L 119.98 444.15 L 119.86 444.84 Z"
                  fill="white"/>
          </g>
          <g id="Graphic_119">
            <path d="M 121.46 445.22 L 123.07 440.14 L 123.68 440.33 L 123.79 443.72 L 124.17 442.32 L 124.7 440.66 L 125.4 440.88 L 123.79 445.96 L 123.24 445.79 L 123.13 442.28 L 122.75 443.63 L 122.17 445.45 Z"
                  fill="white"/>
          </g>
          <g id="Graphic_118">
            <path d="M 125.44 446.62 L 127.75 441.82 L 128.83 442.34 C 129.18 442.51 129.39 442.74 129.45 443.02 C 129.51 443.3 129.44 443.65 129.25 444.06 L 128.21 446.23 C 127.98 446.71 127.73 447.03 127.46 447.18 C 127.19 447.33 126.87 447.31 126.5 447.14 Z M 126.45 446.4 L 126.69 446.52 C 126.82 446.58 126.94 446.59 127.05 446.53 C 127.15 446.47 127.26 446.33 127.37 446.09 L 128.51 443.72 C 128.63 443.47 128.68 443.28 128.67 443.14 C 128.66 443.01 128.58 442.9 128.43 442.83 L 128.21 442.73 Z"
                  fill="white"/>
          </g>
          <g id="Graphic_117">
            <path d="M 131.31 446.98 L 131.1 446.83 L 129.71 448.93 L 129.03 448.48 L 131.98 444.04 L 133.1 444.78 C 133.33 444.93 133.47 445.1 133.53 445.27 C 133.58 445.44 133.57 445.62 133.5 445.81 C 133.42 446 133.3 446.23 133.12 446.5 C 132.94 446.77 132.78 446.96 132.62 447.06 C 132.47 447.16 132.3 447.19 132.11 447.13 C 132.25 447.26 132.28 447.43 132.22 447.65 C 132.16 447.87 131.94 448.26 131.56 448.83 C 131.18 449.4 130.99 449.71 130.98 449.76 L 130.3 449.31 C 130.31 449.27 130.65 448.73 131.33 447.7 C 131.46 447.5 131.52 447.36 131.52 447.26 C 131.52 447.18 131.45 447.08 131.31 446.98 Z M 131.45 446.31 L 131.72 446.49 C 131.81 446.55 131.88 446.57 131.95 446.56 C 132.02 446.55 132.09 446.5 132.17 446.42 C 132.25 446.34 132.35 446.2 132.48 446 L 132.5 445.97 C 132.66 445.73 132.74 445.56 132.75 445.46 C 132.76 445.36 132.69 445.26 132.54 445.16 L 132.31 445.01 Z"
                  fill="white"/>
          </g>
          <g id="Graphic_116">
            <path d="M 134.05 451.96 C 133.76 452.01 133.46 451.9 133.15 451.63 C 132.84 451.36 132.7 451.07 132.71 450.78 C 132.72 450.48 132.89 450.15 133.22 449.78 L 135.85 446.81 L 136.46 447.35 L 133.84 450.31 C 133.65 450.52 133.55 450.66 133.53 450.72 C 133.51 450.78 133.5 450.84 133.49 450.91 C 133.49 450.97 133.53 451.04 133.61 451.12 C 133.7 451.2 133.78 451.23 133.87 451.21 C 133.95 451.19 134.03 451.15 134.11 451.08 C 134.19 451.01 134.28 450.92 134.38 450.8 L 137 447.84 L 137.61 448.38 L 134.98 451.35 C 134.65 451.7 134.35 451.91 134.05 451.96 Z"
                  fill="white"/>
          </g>
          <g id="Graphic_115">
            <path d="M 136.86 454.93 C 136.54 454.96 136.25 454.81 135.99 454.5 C 135.73 454.19 135.63 453.88 135.7 453.57 C 135.77 453.26 136 452.93 136.4 452.59 L 138.25 451 C 138.99 450.36 139.62 450.35 140.14 450.95 C 140.41 451.26 140.51 451.57 140.44 451.87 C 140.37 452.17 140.15 452.47 139.79 452.79 L 137.94 454.38 C 137.53 454.72 137.18 454.9 136.86 454.93 Z M 136.47 453.7 C 136.41 453.82 136.42 453.93 136.52 454.04 C 136.62 454.15 136.73 454.18 136.85 454.14 C 136.98 454.09 137.16 453.97 137.39 453.77 L 139.27 452.15 C 139.46 451.99 139.59 451.85 139.64 451.74 C 139.69 451.63 139.68 451.52 139.59 451.42 C 139.5 451.31 139.39 451.28 139.27 451.31 C 139.15 451.34 138.99 451.44 138.8 451.6 L 136.91 453.22 C 136.68 453.42 136.53 453.58 136.47 453.7 Z"
                  fill="white"/>
          </g>
          <g id="Graphic_114">
            <path d="M 137.84 456.7 L 142.38 453.9 L 142.91 454.76 L 139.99 457.45 L 143.68 456.01 L 144.21 456.87 L 139.67 459.67 L 139.29 459.05 L 140.98 458.01 L 142.55 457.08 L 138.95 458.45 L 138.61 457.9 L 141.44 455.28 L 139.9 456.26 L 138.21 457.3 Z"
                  fill="white"/>
          </g>
          <g id="Graphic_113">
            <path d="M 140.43 461.29 L 145.33 459.2 L 146.03 460.84 L 145.39 461.11 L 145.01 460.21 L 143.58 460.82 L 143.94 461.67 L 143.31 461.94 L 142.95 461.09 L 141.39 461.75 L 141.79 462.68 L 141.15 462.95 Z"
                  fill="white"/>
          </g>
          <g id="Graphic_112">
            <path d="M 141.71 464.52 L 146.85 463.1 L 147.02 463.71 L 144.24 465.65 L 145.63 465.21 L 147.31 464.74 L 147.5 465.44 L 142.36 466.86 L 142.21 466.31 L 145.09 464.31 L 143.75 464.73 L 141.91 465.24 Z"
                  fill="white"/>
          </g>
          <g id="Graphic_111">
            <path d="M 142.7 468.64 L 147.98 467.91 L 148.23 469.68 L 147.54 469.78 L 147.41 468.81 L 145.87 469.02 L 146 469.94 L 145.32 470.03 L 145.19 469.11 L 143.51 469.34 L 143.65 470.34 L 142.96 470.44 Z M 148.4 468.38 L 149.08 468.29 L 149.19 469.1 L 148.51 469.19 Z"
                  fill="white"/>
          </g>
        </g>
        <g id="Graphic_109">
          <path d="M 112.82 459.44 C 114.11 459.44 115.4 459.44 116.69 459.44 C 116.73 459.45 116.77 459.46 116.82 459.46 C 117.27 459.47 117.72 459.47 118.17 459.48 C 118.87 459.5 119.58 459.51 120.28 459.53 C 121.36 459.56 122.44 459.61 123.51 459.7 C 123.99 459.74 124.48 459.78 124.96 459.87 C 125.14 459.9 125.32 459.96 125.5 460.01 C 125.59 460.04 125.64 460.11 125.65 460.2 C 125.7 460.62 125.75 461.03 125.79 461.45 C 125.84 461.97 125.87 462.48 125.87 463 C 125.87 463.05 125.88 463.09 125.89 463.14 C 125.89 463.91 125.89 464.67 125.89 465.44 C 125.88 465.49 125.87 465.54 125.87 465.59 C 125.87 466.28 125.81 466.96 125.75 467.64 C 125.69 468.36 125.6 469.07 125.49 469.79 C 125.31 470.95 125.07 472.1 124.76 473.23 C 124.23 475.2 123.5 477.09 122.52 478.88 C 121.44 480.86 120.1 482.63 118.46 484.18 C 117.29 485.28 116.01 486.24 114.62 487.05 C 114.58 487.07 114.55 487.11 114.51 487.13 C 114.49 487.13 114.48 487.13 114.46 487.13 C 114.4 487.1 114.35 487.06 114.29 487.03 C 112.39 486.07 110.7 484.82 109.21 483.29 C 107.94 481.98 106.88 480.52 105.98 478.93 C 105.03 477.24 104.3 475.46 103.73 473.61 C 103.27 472.11 102.92 470.58 102.68 469.03 C 102.58 468.39 102.5 467.74 102.43 467.09 C 102.37 466.5 102.33 465.9 102.29 465.3 C 102.27 464.99 102.26 464.68 102.24 464.37 C 102.24 464.33 102.22 464.29 102.21 464.25 C 102.21 463.76 102.21 463.26 102.21 462.77 C 102.22 462.72 102.24 462.68 102.24 462.63 C 102.26 462.24 102.28 461.84 102.31 461.45 C 102.34 461.1 102.39 460.75 102.45 460.41 C 102.51 460.07 102.54 460.04 102.88 459.98 C 103.24 459.91 103.6 459.85 103.97 459.82 C 104.57 459.76 105.18 459.71 105.78 459.68 C 106.44 459.64 107.11 459.61 107.77 459.58 C 108.57 459.55 109.38 459.53 110.18 459.51 C 111.02 459.49 111.85 459.48 112.69 459.47 C 112.75 459.46 112.79 459.44 112.82 459.44 Z"
                fill="#e11f26"/>
        </g>
        <g id="Graphic_108">
          <path d="M 124.29 477.16 C 128.9 476.19 133.22 475.45 136.65 475.39 C 143.82 475.27 148.23 477.81 148.23 477.81 C 148.23 477.81 145.41 474.01 138.21 473.59 C 134.48 473.37 129.93 474.03 125.11 475.02 C 124.87 475.76 124.59 476.47 124.29 477.16 Z"
                fill="#e11f26"/>
        </g>
        <g id="Graphic_107">
          <path d="M 98.42 481.94 C 100.73 481.88 103.42 481.53 106.3 481.02 C 105.96 480.52 105.63 480 105.32 479.46 C 102.4 480.01 99.67 480.38 97.29 480.43 C 86.67 480.64 76.62 476.53 76.62 476.53 C 76.62 476.53 87.92 482.21 98.42 481.94 Z"
                fill="#e11f26"/>
        </g>
        <g id="Graphic_106">
          <path d="M 137.77 476.75 C 133.43 476.48 128.78 477.44 123.57 478.71 C 123.47 478.9 123.38 479.1 123.28 479.29 C 123 479.8 122.7 480.3 122.39 480.78 C 128.35 479.49 133.68 478.38 137.76 478.53 C 143.82 478.74 146.14 479.88 146.14 479.88 C 146.14 479.88 143.82 477.13 137.77 476.75 Z"
                fill="#e11f26"/>
        </g>
        <g id="Graphic_105">
          <path d="M 109.55 484.77 C 103.99 485.41 98.39 485.05 98.39 485.05 C 98.39 485.05 102.82 485.96 109.84 485.69 C 110.09 485.68 110.34 485.66 110.58 485.65 C 110.23 485.37 109.88 485.08 109.55 484.77 Z"
                fill="#e11f26"/>
        </g>
        <g id="Graphic_104">
          <path d="M 121.16 482.48 C 120.62 483.16 120.05 483.8 119.44 484.41 C 125.42 483.19 131.07 481.53 136.68 481.4 C 140.9 481.3 144.25 481.74 144.25 481.74 C 144.25 481.74 141.81 480.04 137.12 479.97 C 131.81 479.88 126.59 481.17 121.16 482.48 Z"
                fill="#e11f26"/>
        </g>
        <g id="Graphic_103">
          <path d="M 99.61 484.29 C 102.49 484.21 105.39 483.91 108.26 483.5 C 107.9 483.11 107.55 482.69 107.21 482.27 C 105.51 482.53 103.76 482.75 101.95 482.91 C 91.88 483.82 82.78 480.51 82.78 480.51 C 82.78 480.51 90 484.55 99.61 484.29 Z"
                fill="#e11f26"/>
        </g>
        <g id="Graphic_102">
          <path d="M 120.83 471.99 C 120.83 471.95 120.83 471.91 120.83 471.87 C 120.82 471.23 120.82 470.59 120.8 469.96 C 120.79 469.66 120.76 469.36 120.74 469.07 C 120.74 469.04 120.73 469.01 120.72 468.98 C 120.51 468.44 120.16 468.04 119.58 467.9 C 119.11 467.79 118.66 467.87 118.24 468.1 C 118.2 468.12 118.16 468.16 118.13 468.19 C 117.73 468.65 117.51 469.19 117.46 469.79 C 117.41 470.41 117.53 470.99 117.73 471.57 C 117.78 471.7 117.83 471.83 117.88 471.96 C 118.05 472.37 118.31 472.72 118.63 473.03 C 118.78 473.17 118.93 473.31 119.08 473.44 C 119.12 473.48 119.18 473.51 119.24 473.52 C 119.82 473.7 120.39 473.67 120.95 473.46 C 121.38 473.3 121.77 473.06 122.14 472.78 C 122.49 472.52 122.81 472.24 123.12 471.94 C 123.15 471.91 123.18 471.89 123.22 471.85 C 123.42 472.09 123.62 472.32 123.82 472.56 C 123.79 472.58 123.77 472.6 123.75 472.61 C 122.89 473.12 121.99 473.56 121.03 473.84 C 120.55 473.98 120.07 474.07 119.57 474.04 C 119.28 474.03 119.01 473.96 118.75 473.84 C 118.39 473.68 118.06 473.47 117.79 473.18 C 117.6 472.98 117.43 472.76 117.29 472.52 C 117.11 472.21 116.94 471.9 116.78 471.59 C 116.75 471.53 116.7 471.49 116.63 471.47 C 116.29 471.37 115.93 471.3 115.58 471.24 C 115.25 471.19 114.93 471.14 114.6 471.1 C 114.57 471.1 114.54 471.1 114.52 471.1 C 114.48 471.2 114.47 471.36 114.49 471.5 C 114.75 471.54 115.01 471.58 115.28 471.62 C 115.54 471.66 115.79 471.69 116.05 471.74 C 116.05 471.75 116.05 471.76 116.05 471.77 C 115.52 471.86 114.99 471.95 114.44 472.05 C 114.43 472.1 114.42 472.15 114.41 472.21 C 114.27 473.17 114.24 474.15 114.21 475.12 C 114.19 475.75 114.15 476.38 114.12 477.01 C 114.11 477.12 114.1 477.23 114.08 477.34 C 114.07 477.4 114.07 477.46 114.07 477.54 C 114.64 477.46 115.2 477.37 115.77 477.29 C 115.78 477.2 115.79 477.12 115.8 477.04 C 115.87 476.66 116.04 476.33 116.31 476.06 C 116.65 475.72 117.06 475.51 117.5 475.34 C 117.51 475.34 117.52 475.34 117.54 475.34 C 117.51 475.37 117.49 475.39 117.46 475.41 C 117.26 475.58 117.06 475.75 116.86 475.92 C 116.64 476.12 116.47 476.36 116.35 476.62 C 116.26 476.8 116.24 477.16 116.48 477.36 C 116.57 477.43 116.67 477.5 116.77 477.55 C 116.97 477.66 117.17 477.75 117.37 477.85 C 117.41 477.87 117.44 477.89 117.48 477.93 C 117.46 477.93 117.43 477.93 117.41 477.93 C 116.9 477.81 116.38 477.73 115.85 477.71 C 115.51 477.7 115.17 477.72 114.84 477.73 C 114.7 477.74 114.56 477.76 114.42 477.77 C 114.34 477.78 114.3 477.81 114.27 477.89 C 114.04 478.56 113.89 479.25 113.91 479.96 C 113.91 479.98 113.91 480.01 113.89 480.03 C 113.88 479.98 113.87 479.93 113.86 479.88 C 113.8 479.58 113.73 479.28 113.63 478.99 C 113.42 478.39 113.03 477.98 112.45 477.73 C 112.07 477.57 111.67 477.47 111.27 477.37 C 111.24 477.36 111.2 477.35 111.16 477.34 C 111.33 477.26 112.02 477.2 112.53 477.29 C 112.99 477.37 113.41 477.52 113.82 477.77 C 113.82 477.73 113.82 477.7 113.82 477.68 C 113.78 477.31 113.74 476.94 113.71 476.56 C 113.64 475.59 113.66 474.61 113.67 473.63 C 113.67 473.1 113.65 472.56 113.64 472.03 C 113.64 471.95 113.6 471.92 113.54 471.89 C 113.18 471.73 112.83 471.58 112.47 471.42 C 112.44 471.4 112.4 471.39 112.37 471.37 C 112.37 471.36 112.37 471.35 112.38 471.34 C 112.76 471.33 113.14 471.31 113.52 471.3 C 113.52 471.29 113.52 471.28 113.52 471.27 C 112.82 471.09 112.11 470.94 111.36 471.04 C 111.33 470.98 111.3 470.92 111.28 470.86 C 111.16 470.5 111.03 470.14 110.92 469.77 C 110.71 469.03 110.51 468.29 110.3 467.55 C 110.24 467.33 110.15 467.11 110.08 466.89 C 110 466.67 109.87 466.5 109.7 466.35 C 109.4 466.09 109.08 465.86 108.75 465.65 C 108.71 465.63 108.67 465.6 108.62 465.59 C 108.65 465.62 108.68 465.65 108.71 465.68 C 109 465.95 109.27 466.24 109.48 466.57 C 109.63 466.8 109.75 467.05 109.83 467.32 C 109.94 467.68 110.07 468.04 110.17 468.4 C 110.32 468.94 110.43 469.49 110.44 470.05 C 110.45 470.39 110.42 470.73 110.3 471.06 C 110.26 471.16 110.21 471.26 110.17 471.37 C 110.81 471.47 111.46 471.51 112.1 471.54 C 112.08 471.62 111.75 472.05 111.55 472.24 C 111.52 472.23 111.47 472.22 111.43 472.21 C 110.83 472 110.21 471.91 109.57 471.96 C 108.93 472.01 108.34 472.19 107.77 472.48 C 107.1 472.82 106.52 473.28 105.99 473.8 C 105.87 473.91 105.75 474.02 105.64 474.12 C 105.64 474.12 105.64 474.1 105.65 474.08 C 105.81 473.69 105.98 473.3 106.15 472.91 C 106.17 472.86 106.22 472.82 106.26 472.79 C 106.98 472.29 107.75 471.91 108.59 471.65 C 108.83 471.58 109.07 471.49 109.32 471.42 C 109.41 471.39 109.47 471.34 109.51 471.26 C 109.73 470.83 109.86 470.38 109.92 469.91 C 110 469.25 109.94 468.6 109.72 467.97 C 109.6 467.61 109.42 467.28 109.19 466.99 C 109.16 466.96 109.13 466.92 109.1 466.88 C 109.05 466.98 109.02 467.08 108.97 467.17 C 108.82 467.42 108.66 467.67 108.49 467.91 C 108.44 467.99 108.43 468.04 108.47 468.13 C 108.55 468.29 108.61 468.46 108.68 468.62 C 108.7 468.66 108.71 468.69 108.73 468.74 C 108.69 468.74 108.67 468.74 108.64 468.74 C 108.44 468.7 108.24 468.66 108.04 468.63 C 107.96 468.62 107.92 468.58 107.89 468.5 C 107.62 467.79 107.58 467.06 107.74 466.31 C 107.83 465.88 107.98 465.48 108.13 465.07 C 108.21 464.86 108.29 464.65 108.37 464.44 C 108.38 464.42 108.39 464.4 108.41 464.36 C 108.43 464.39 108.44 464.41 108.45 464.43 C 108.56 464.69 108.72 464.91 108.93 465.09 C 109.14 465.28 109.36 465.45 109.57 465.62 C 109.88 465.86 110.19 466.1 110.47 466.37 C 111 466.89 111.32 467.51 111.42 468.24 C 111.47 468.61 111.51 468.99 111.56 469.37 C 111.57 469.43 111.58 469.49 111.59 469.55 C 112.17 469.75 112.74 469.95 113.31 470.15 C 113.31 470.14 113.32 470.14 113.32 470.13 C 113.02 469.72 112.73 469.32 112.42 468.89 C 112.54 468.91 112.61 468.98 112.68 469.02 C 112.76 469.06 112.84 469.11 112.92 469.16 C 113 469.21 113.08 469.25 113.16 469.3 C 113.24 469.35 113.32 469.39 113.4 469.44 C 113.48 469.49 113.56 469.53 113.65 469.58 C 113.65 469.55 113.66 469.53 113.66 469.51 C 113.67 469.03 113.67 468.55 113.68 468.08 C 113.69 467.55 113.68 467.03 113.54 466.51 C 113.49 466.33 113.41 466.16 113.35 465.98 C 113.32 465.91 113.27 465.87 113.2 465.83 C 113.02 465.75 112.83 465.74 112.64 465.78 C 112.42 465.82 112.21 465.9 112.01 466 C 111.77 466.11 111.54 466.24 111.3 466.35 C 111.21 466.4 111.11 466.43 111.01 466.48 C 111.01 466.38 111.3 465.61 111.43 465.36 C 111.46 465.36 111.49 465.36 111.53 465.36 C 111.92 465.37 112.32 465.37 112.71 465.38 C 113 465.38 113.28 465.39 113.57 465.39 C 113.63 465.39 113.68 465.38 113.74 465.34 C 114.27 464.95 114.52 464.44 114.48 463.78 C 114.47 463.67 114.46 463.57 114.44 463.44 C 114.03 463.81 113.69 464.2 113.29 464.55 C 113.2 464.21 113.11 463.88 113.01 463.54 C 113.05 463.51 113.09 463.48 113.14 463.45 C 113.34 463.34 113.54 463.24 113.75 463.14 C 113.89 463.07 114.04 463 114.18 462.93 C 114.25 462.9 114.31 462.89 114.38 462.91 C 114.8 463 115.06 463.3 115.11 463.73 C 115.16 464.22 115.03 464.68 114.8 465.11 C 114.78 465.15 114.76 465.19 114.74 465.23 C 114.74 465.23 114.74 465.24 114.75 465.25 C 114.85 465.25 114.94 465.26 115.04 465.26 C 115.33 465.29 115.61 465.39 115.87 465.52 C 116.08 465.63 116.29 465.75 116.5 465.86 C 116.73 465.98 116.95 466.09 117.19 466.19 C 117.48 466.31 117.78 466.34 118.09 466.25 C 118.17 466.23 118.24 466.2 118.31 466.16 C 118.33 466.15 118.36 466.11 118.36 466.09 C 118.36 465.98 118.36 465.88 118.34 465.77 C 118.32 465.64 118.24 465.56 118.11 465.54 C 117.99 465.52 117.86 465.5 117.73 465.49 C 117.49 465.47 117.49 465.48 117.34 465.29 C 116.87 464.71 116.36 464.17 115.85 463.62 C 115.41 463.15 114.97 462.68 114.55 462.2 C 114.3 461.91 114.07 461.61 113.83 461.3 C 113.74 461.18 113.67 461.05 113.59 460.92 C 113.65 460.89 113.68 460.92 113.71 460.94 C 113.96 461.07 114.2 461.23 114.42 461.4 C 115.09 461.92 115.7 462.51 116.28 463.12 C 117.04 463.92 117.84 464.69 118.66 465.42 C 118.68 465.44 118.71 465.46 118.75 465.49 C 118.93 465.33 119.12 465.17 119.32 464.99 C 119.31 465.06 119.31 465.09 119.31 465.13 C 119.26 465.4 119.21 465.67 119.16 465.94 C 119.15 466 119.16 466.05 119.19 466.11 C 119.33 466.33 119.47 466.56 119.61 466.78 C 119.62 466.8 119.63 466.83 119.63 466.86 C 119.6 466.84 119.56 466.82 119.53 466.8 C 119.3 466.64 119.06 466.48 118.83 466.31 C 118.76 466.26 118.71 466.25 118.63 466.29 C 118.46 466.37 118.29 466.45 118.12 466.52 C 117.96 466.59 117.79 466.66 117.61 466.68 C 117.44 466.7 117.28 466.67 117.12 466.6 C 116.68 466.41 116.24 466.22 115.8 466.04 C 115.56 465.94 115.31 465.86 115.04 465.79 C 115.03 465.82 115.02 465.85 115.01 465.88 C 114.88 466.54 114.76 467.2 114.68 467.87 C 114.62 468.39 114.59 468.91 114.6 469.43 C 114.6 469.45 114.6 469.48 114.61 469.52 C 115.08 469.22 115.53 468.92 115.99 468.62 C 116 468.63 116 468.64 116.01 468.65 C 115.8 468.92 115.57 469.17 115.33 469.42 C 115.09 469.67 114.85 469.92 114.56 470.15 C 114.69 470.16 114.79 470.14 114.89 470.12 C 115.19 470.07 115.49 470.02 115.8 469.98 C 115.99 469.95 116.17 469.96 116.36 470 C 116.65 470.06 116.89 470.22 117.06 470.46 C 117.08 470.49 117.11 470.52 117.13 470.56 C 117.13 470.56 117.14 470.56 117.15 470.57 C 117.13 470.44 117.11 470.3 117.1 470.17 C 117.05 469.41 117.2 468.7 117.63 468.07 C 117.82 467.79 118.07 467.58 118.38 467.44 C 118.76 467.27 119.15 467.16 119.57 467.18 C 120.04 467.2 120.43 467.38 120.73 467.73 C 120.99 468.03 121.14 468.38 121.25 468.76 C 121.3 468.93 121.31 469.1 121.32 469.28 C 121.34 469.7 121.29 470.12 121.22 470.53 C 121.14 470.97 121.03 471.39 120.89 471.81 C 120.88 471.84 120.86 471.88 120.85 471.91 C 120.86 471.98 120.85 471.98 120.83 471.99 Z"
                fill="white"/>
        </g>
        <g id="Group_74">
          <g id="Graphic_101">
            <path d="M 88.19 470.65 L 88.24 470.29 L 92.2 470.82 L 92.3 470.07 L 92.58 470.11 L 92.43 471.22 Z"
                  fill="white"/>
          </g>
          <g id="Graphic_100">
            <path d="M 88.54 468.49 L 88.62 468.14 L 92.8 469.03 L 92.72 469.38 Z" fill="white"/>
          </g>
          <g id="Graphic_99">
            <path d="M 88.88 467.06 L 89.22 465.9 L 89.49 465.98 L 89.38 466.36 L 93.22 467.48 L 93.12 467.83 L 89.28 466.71 L 89.15 467.14 Z"
                  fill="white"/>
          </g>
          <g id="Graphic_98">
            <path d="M 90 463.76 L 90.14 463.42 L 94.11 465.01 L 93.98 465.35 L 91.98 464.55 L 91.69 465.28 L 93.69 466.08 L 93.55 466.42 L 89.58 464.83 L 89.72 464.49 L 91.44 465.18 L 91.73 464.45 Z"
                  fill="white"/>
          </g>
          <g id="Graphic_97">
            <path d="M 91.31 461.09 L 91.48 460.77 L 94.27 462.29 C 94.62 462.48 94.86 462.67 94.97 462.84 C 95.08 463.02 95.07 463.23 94.93 463.49 C 94.79 463.75 94.61 463.88 94.4 463.89 C 94.19 463.89 93.91 463.8 93.56 463.61 L 90.77 462.09 L 90.94 461.77 L 93.72 463.28 C 93.98 463.42 94.16 463.5 94.26 463.53 C 94.44 463.57 94.57 463.52 94.66 463.36 C 94.73 463.23 94.74 463.12 94.7 463.03 C 94.66 462.94 94.45 462.79 94.1 462.6 Z"
                  fill="white"/>
          </g>
          <g id="Graphic_96">
            <path d="M 92.5 459.19 L 92.71 458.89 L 96.65 460.71 L 96.45 461 L 95.66 460.62 L 95.17 461.32 L 95.81 461.92 L 95.61 462.2 Z M 95.39 460.48 L 93.18 459.42 L 94.96 461.1 Z"
                  fill="white"/>
          </g>
          <g id="Graphic_95">
            <path d="M 94.74 456.35 L 94.95 456.11 L 98.16 458.93 L 97.97 459.14 L 94.9 457.75 L 95.78 458.5 L 97.33 459.86 L 97.11 460.12 L 93.9 457.3 L 94.07 457.11 L 97.25 458.51 L 96.12 457.56 Z"
                  fill="white"/>
          </g>
          <g id="Graphic_94">
            <path d="M 96 455.07 L 96.26 454.82 L 99.19 457.94 L 98.93 458.19 Z" fill="white"/>
          </g>
          <g id="Graphic_93">
            <path d="M 97.68 453.6 L 97.97 453.37 L 101.21 456.26 L 100.93 456.48 L 100.28 455.89 L 99.61 456.42 L 100.05 457.18 L 99.78 457.39 Z M 100.07 455.68 L 98.26 454.02 L 99.47 456.15 Z"
                  fill="white"/>
          </g>
          <g id="Graphic_92">
            <path d="M 100.67 451.53 L 100.94 451.36 L 103.19 455 L 102.95 455.15 L 100.42 452.92 L 101.05 453.89 L 102.13 455.65 L 101.84 455.83 L 99.59 452.19 L 99.81 452.06 L 102.44 454.32 L 101.64 453.09 Z"
                  fill="white"/>
          </g>
          <g id="Graphic_91">
            <path d="M 103.85 449.93 L 104.19 449.79 L 106.51 453.46 L 106.19 453.59 L 105.73 452.84 L 104.94 453.16 L 105.15 454.01 L 104.83 454.14 Z M 105.57 452.59 L 104.29 450.5 L 104.87 452.88 Z"
                  fill="white"/>
          </g>
          <g id="Graphic_90">
            <path d="M 107.79 448.64 L 108.18 448.54 L 109.28 452.67 L 108.96 452.75 L 108.49 450.98 L 108.1 449.3 L 108.4 452.8 L 108.07 452.89 L 106.57 449.71 L 107.07 451.36 L 107.54 453.13 L 107.22 453.22 L 106.12 449.09 L 106.51 448.99 L 108.08 452.29 Z"
                  fill="white"/>
          </g>
          <g id="Graphic_89">
            <path d="M 109.66 448.28 L 110.78 448.12 L 110.82 448.4 L 110.06 448.51 L 110.3 450.17 L 111.01 450.07 L 111.05 450.36 L 110.34 450.46 L 110.59 452.19 L 111.34 452.08 L 111.38 452.36 L 110.27 452.52 Z"
                  fill="white"/>
          </g>
          <g id="Graphic_88">
            <path d="M 112.04 448 L 112.77 447.97 C 113.06 447.96 113.26 448.01 113.36 448.13 C 113.44 448.22 113.49 448.33 113.52 448.46 C 113.55 448.59 113.56 448.79 113.57 449.04 C 113.58 449.29 113.56 449.5 113.51 449.67 C 113.46 449.83 113.36 449.94 113.22 449.98 C 113.28 449.99 113.33 450 113.37 450.03 C 113.41 450.05 113.45 450.09 113.48 450.15 C 113.58 450.33 113.65 450.79 113.68 451.52 C 113.69 451.82 113.7 452 113.71 452.04 C 113.72 452.09 113.73 452.14 113.76 452.21 L 113.4 452.22 C 113.37 452.17 113.35 452.08 113.34 451.95 C 113.33 451.81 113.32 451.6 113.31 451.3 L 113.29 450.83 C 113.28 450.53 113.25 450.34 113.21 450.26 C 113.17 450.18 113.06 450.14 112.88 450.15 L 112.5 450.14 L 112.58 452.25 L 112.22 452.26 Z M 113.2 448.99 C 113.19 448.77 113.18 448.62 113.15 448.52 C 113.13 448.42 113.09 448.35 113.04 448.32 C 112.99 448.29 112.91 448.27 112.81 448.28 L 112.4 448.3 L 112.46 449.92 L 112.84 449.9 C 112.96 449.89 113.05 449.87 113.09 449.83 C 113.13 449.79 113.16 449.71 113.18 449.62 C 113.2 449.52 113.2 449.33 113.19 449.03 Z"
                  fill="white"/>
          </g>
          <g id="Graphic_87">
            <path d="M 114.9 447.97 L 115.26 447.99 L 115.05 452.26 L 114.69 452.24 Z" fill="white"/>
          </g>
          <g id="Graphic_86">
            <path d="M 116.49 449.32 C 116.56 448.81 116.67 448.47 116.83 448.32 C 116.98 448.17 117.18 448.11 117.42 448.14 C 117.66 448.17 117.82 448.26 117.91 448.39 C 117.97 448.49 118.01 448.58 118.02 448.66 C 118.05 448.86 118.03 449.16 117.98 449.55 L 117.93 449.92 L 117.57 449.87 L 117.63 449.46 C 117.68 449.1 117.69 448.86 117.67 448.74 C 117.65 448.61 117.6 448.53 117.54 448.49 C 117.5 448.47 117.46 448.45 117.41 448.45 C 117.26 448.43 117.14 448.49 117.06 448.64 C 116.98 448.79 116.92 449.03 116.87 449.36 L 116.63 451.06 C 116.57 451.47 116.56 451.76 116.59 451.92 C 116.62 452.08 116.71 452.18 116.87 452.2 C 117.02 452.22 117.14 452.16 117.2 452.01 C 117.26 451.86 117.33 451.58 117.39 451.17 L 117.44 450.83 L 117.8 450.88 L 117.75 451.22 C 117.7 451.59 117.64 451.85 117.57 452.01 C 117.51 452.17 117.44 452.28 117.38 452.34 C 117.25 452.48 117.06 452.53 116.83 452.49 C 116.59 452.46 116.43 452.36 116.33 452.19 C 116.21 451.99 116.19 451.59 116.27 451.01 Z"
                  fill="white"/>
          </g>
          <g id="Graphic_85">
            <path d="M 119.87 448.67 L 120.23 448.76 L 119.92 453.09 L 119.58 453 L 119.65 452.12 L 118.82 451.91 L 118.48 452.72 L 118.15 452.64 Z M 119.68 451.83 L 119.89 449.39 L 118.95 451.65 Z"
                  fill="white"/>
          </g>
          <g id="Graphic_84">
            <path d="M 123.35 449.78 L 123.65 449.89 L 122.14 453.89 L 121.88 453.79 L 122.1 450.43 L 121.71 451.52 L 120.98 453.45 L 120.66 453.33 L 122.17 449.33 L 122.41 449.42 L 122.22 452.89 L 122.71 451.5 Z"
                  fill="white"/>
          </g>
          <g id="Graphic_83">
            <path d="M 125.5 452.15 C 125.76 451.7 125.99 451.44 126.19 451.36 C 126.39 451.28 126.59 451.3 126.8 451.42 C 127.01 451.54 127.13 451.68 127.16 451.83 C 127.18 451.94 127.18 452.04 127.16 452.12 C 127.11 452.32 126.98 452.59 126.78 452.93 L 126.59 453.25 L 126.27 453.07 L 126.48 452.71 C 126.66 452.4 126.77 452.18 126.79 452.06 C 126.82 451.94 126.81 451.84 126.76 451.78 C 126.74 451.75 126.7 451.72 126.66 451.69 C 126.53 451.61 126.4 451.63 126.27 451.73 C 126.14 451.84 125.99 452.03 125.82 452.33 L 124.96 453.81 C 124.75 454.17 124.63 454.43 124.6 454.59 C 124.57 454.75 124.62 454.87 124.75 454.95 C 124.88 455.03 125.01 455.01 125.13 454.9 C 125.25 454.79 125.41 454.55 125.62 454.2 L 125.79 453.9 L 126.11 454.08 L 125.94 454.37 C 125.75 454.69 125.6 454.92 125.48 455.04 C 125.36 455.16 125.26 455.24 125.18 455.27 C 125 455.34 124.81 455.32 124.61 455.2 C 124.41 455.08 124.29 454.93 124.26 454.73 C 124.23 454.5 124.36 454.12 124.65 453.62 Z"
                  fill="white"/>
          </g>
          <g id="Graphic_82">
            <path d="M 127.79 453.52 C 128.1 453.1 128.35 452.87 128.55 452.82 C 128.75 452.77 128.96 452.83 129.17 452.99 C 129.39 453.15 129.48 453.33 129.46 453.53 C 129.44 453.67 129.4 453.8 129.32 453.94 C 129.24 454.08 129.13 454.24 129 454.42 L 127.92 455.88 C 127.7 456.18 127.53 456.38 127.4 456.47 C 127.27 456.57 127.17 456.62 127.09 456.64 C 126.92 456.68 126.73 456.63 126.54 456.49 C 126.25 456.28 126.17 456.02 126.28 455.72 C 126.35 455.52 126.5 455.28 126.71 454.98 Z M 128.73 454.17 C 128.93 453.9 129.05 453.69 129.1 453.55 C 129.14 453.41 129.1 453.29 128.98 453.2 C 128.86 453.11 128.73 453.1 128.6 453.18 C 128.47 453.26 128.3 453.43 128.11 453.7 L 127.01 455.19 C 126.78 455.51 126.64 455.72 126.61 455.83 C 126.58 455.94 126.57 456.03 126.59 456.08 C 126.61 456.13 126.65 456.18 126.72 456.23 C 126.79 456.28 126.85 456.3 126.9 456.31 C 126.96 456.31 127.04 456.28 127.13 456.22 C 127.23 456.16 127.39 455.97 127.63 455.65 Z"
                  fill="white"/>
          </g>
          <g id="Graphic_81">
            <path d="M 132.1 455.58 L 132.39 455.86 L 129.43 458.95 L 129.19 458.72 L 130.46 457.4 L 131.69 456.2 L 128.85 458.28 L 128.6 458.04 L 130.54 455.1 L 129.39 456.38 L 128.12 457.7 L 127.88 457.47 L 130.84 454.38 L 131.13 454.66 L 129.13 457.72 Z"
                  fill="white"/>
          </g>
          <g id="Graphic_80">
            <path d="M 134.52 458.41 L 134.77 458.73 L 131.4 461.36 L 131.2 461.1 L 132.65 459.97 L 134.04 458.95 L 130.93 460.6 L 130.72 460.33 L 133.06 457.7 L 131.74 458.8 L 130.29 459.93 L 130.09 459.67 L 133.46 457.04 L 133.71 457.36 L 131.29 460.1 Z"
                  fill="white"/>
          </g>
          <g id="Graphic_79">
            <path d="M 136.18 460.96 L 136.36 461.27 L 133.62 462.89 C 133.27 463.09 133 463.2 132.79 463.2 C 132.58 463.21 132.4 463.08 132.25 462.83 C 132.1 462.58 132.08 462.36 132.18 462.17 C 132.28 461.99 132.51 461.79 132.85 461.59 L 135.59 459.97 L 135.77 460.28 L 133.04 461.89 C 132.78 462.04 132.62 462.15 132.55 462.23 C 132.42 462.36 132.4 462.51 132.49 462.66 C 132.56 462.79 132.65 462.85 132.76 462.86 C 132.86 462.87 133.09 462.77 133.44 462.56 Z"
                  fill="white"/>
          </g>
          <g id="Graphic_78">
            <path d="M 137.55 463.73 L 137.68 464.02 L 133.77 465.75 L 133.66 465.49 L 136.21 463.28 L 135.16 463.77 L 133.27 464.61 L 133.13 464.3 L 137.04 462.57 L 137.14 462.8 L 134.54 465.1 L 135.87 464.47 Z"
                  fill="white"/>
          </g>
          <g id="Graphic_77">
            <path d="M 138.18 465.4 L 138.29 465.74 L 134.23 467.09 L 134.12 466.75 Z" fill="white"/>
          </g>
          <g id="Graphic_76">
            <path d="M 138.62 466.81 L 138.92 467.98 L 138.65 468.05 L 138.55 467.66 L 134.68 468.64 L 134.59 468.29 L 138.46 467.31 L 138.35 466.88 Z"
                  fill="white"/>
          </g>
          <g id="Graphic_75">
            <path d="M 139.32 470.2 L 139.38 470.57 L 136.9 470.26 L 135.04 470.55 L 134.98 470.19 L 136.83 469.9 L 139.08 468.76 L 139.14 469.12 L 137.36 469.99 L 137.36 470 Z"
                  fill="white"/>
          </g>
        </g>
      </g>
    </g>
  </g>
</svg>
