<?xml version="1.0" encoding="utf-8"?>
<!-- Generator: Adobe Illustrator 27.1.1, SVG Export Plug-In . SVG Version: 6.00 Build 0)  -->
<svg version="1.1" id="Layer_1" xmlns="http://www.w3.org/2000/svg" x="0px"
     y="0px"
     viewBox="0 0 129.6 129.6" style="enable-background:new 0 0 129.6 129.6;" xml:space="preserve">
<style type="text/css">
	.st0{fill:#465A71;}
	.st1{fill:#FEFED4;}
	.st2{fill:url(#SVGID_1_);}
	.st3{fill:#E11F26;}
	.st4{fill:#FFFFFF;}
	.st5{fill:#BAA071;}
</style>
    <rect class="st0" width="129.6" height="129.6"/>
    <g>
	<g>
		<path class="st1" d="M61.01,48.39c-1.4,0-2.72-0.26-3.94-0.78c-1.22-0.52-2.3-1.25-3.23-2.19c-0.93-0.94-1.66-2.03-2.18-3.27
			c-0.52-1.24-0.78-2.58-0.78-4.02c0-1.44,0.26-2.78,0.78-4.02c0.52-1.24,1.25-2.33,2.18-3.27c0.93-0.94,2.01-1.67,3.23-2.19
			c1.22-0.52,2.54-0.78,3.94-0.78c1.4,0,2.72,0.26,3.94,0.78c1.22,0.52,2.3,1.25,3.23,2.19c0.93,0.94,1.65,2.03,2.18,3.27
			c0.52,1.24,0.78,2.58,0.78,4.02c0,1.44-0.26,2.78-0.78,4.02c-0.52,1.24-1.25,2.33-2.18,3.27c-0.93,0.94-2.01,1.67-3.23,2.19
			C63.73,48.13,62.42,48.39,61.01,48.39z M61.01,47.17c1.23,0,2.38-0.23,3.46-0.7c1.07-0.46,2.01-1.1,2.8-1.92
			c0.8-0.81,1.42-1.77,1.86-2.87c0.45-1.1,0.67-2.28,0.67-3.56c0-1.27-0.22-2.46-0.67-3.56c-0.45-1.1-1.07-2.06-1.86-2.87
			c-0.8-0.81-1.73-1.45-2.8-1.92c-1.07-0.46-2.22-0.7-3.46-0.7c-1.23,0-2.38,0.23-3.46,0.7c-1.07,0.46-2.01,1.1-2.8,1.92
			c-0.8,0.82-1.42,1.77-1.86,2.87c-0.45,1.1-0.67,2.29-0.67,3.56c0,1.27,0.22,2.46,0.67,3.56c0.45,1.1,1.07,2.06,1.86,2.87
			c0.8,0.82,1.73,1.46,2.8,1.92C58.63,46.93,59.78,47.17,61.01,47.17z"/>
        <path class="st1" d="M72.23,48.08V28.17h1.31v18.69h7.36v1.22H72.23z"/>
        <path class="st1" d="M75.88,44.35l6.64-16.18h1.62l8.28,19.91h-1.42l-2.76-6.74h-9.87l-1.12,3.01H75.88z M78.85,40.17h8.9
			l-4.44-10.78L78.85,40.17z"/>
        <path class="st1" d="M100.91,48.39c-1.44,0-2.78-0.27-4.02-0.8c-1.24-0.53-2.32-1.27-3.24-2.2c-0.92-0.94-1.64-2.03-2.16-3.27
			c-0.52-1.24-0.78-2.57-0.78-4c0-1.42,0.26-2.75,0.78-4c0.52-1.24,1.24-2.33,2.16-3.27s2-1.67,3.24-2.2
			c1.24-0.53,2.58-0.8,4.02-0.8c0.99,0,1.94,0.11,2.86,0.34c0.92,0.23,1.79,0.57,2.6,1.02c0.82,0.46,1.55,1.02,2.22,1.71l-0.85,0.99
			c-0.82-0.89-1.83-1.59-3.06-2.09c-1.22-0.5-2.48-0.75-3.77-0.75c-1.27,0-2.44,0.23-3.51,0.7c-1.07,0.46-2.01,1.11-2.82,1.93
			c-0.81,0.83-1.43,1.78-1.88,2.87c-0.45,1.09-0.67,2.27-0.67,3.54c0,1.27,0.22,2.45,0.67,3.54c0.45,1.09,1.07,2.05,1.88,2.87
			c0.81,0.82,1.74,1.47,2.82,1.93c1.07,0.46,2.24,0.7,3.51,0.7c1.29,0,2.55-0.26,3.77-0.77c1.22-0.51,2.24-1.2,3.06-2.08l0.85,1
			c-0.66,0.68-1.4,1.25-2.22,1.71c-0.82,0.46-1.68,0.8-2.6,1.02C102.85,48.28,101.9,48.39,100.91,48.39z"/>
	</g>
</g>
    <rect x="58.44" y="44.14" class="st0" width="11.97" height="7.32"/>
    <rect x="58.72" y="42.01" class="st0" width="9.67" height="7.32"/>
    <g id="m6J4I2_1_">
</g>
    <linearGradient id="SVGID_1_" gradientUnits="userSpaceOnUse" x1="20.1098" y1="54.3647" x2="109.2109" y2="54.3647">
	<stop offset="0" style="stop-color:#B09868"/>
        <stop offset="0.2237" style="stop-color:#D3B589"/>
        <stop offset="0.2737" style="stop-color:#D7BC90"/>
        <stop offset="0.3474" style="stop-color:#E3CFA4"/>
        <stop offset="0.4355" style="stop-color:#F5EFC5"/>
        <stop offset="0.4739" style="stop-color:#FFFFD5"/>
        <stop offset="0.5305" style="stop-color:#ECE6BB"/>
        <stop offset="0.6384" style="stop-color:#CCBC8E"/>
        <stop offset="0.722" style="stop-color:#B7A272"/>
        <stop offset="0.7706" style="stop-color:#B09868"/>
        <stop offset="1" style="stop-color:#D3B589"/>
</linearGradient>
    <path class="st2" d="M105.74,69.14v-9.16h-1.87v-2.14h-0.32v2.14h-1.69v8.32h-0.41v-9.94h-0.4v-0.41h-3.07v0.41h-0.4v4.6h-3.41v2.89
	h-3.17v-7.02h-5.71v2.85h-4.76v-2.85h-2V55.9h-2.72v-2.05h-0.32v2.05h-2.95v2.92h-1.77v3.23h-1.77V45.32H67.4v-2.57l-0.97-1.55
	h-0.24l-0.21-5.4h-1.47v-0.96h-0.32v0.96h-1.34l-0.21,5.4h-0.37l-0.97,1.55v2.57h-1.57v12.9l-1.74-1.74v-6h-1.29v-1.15l-2.33-0.28
	l-2.13,0.28v1.14h-1.49V63.3h-2.07v-1.67l-1.37-2.02H35.86l-1.37,2.05v1.18H32.2v2.26h-2.53V62h-0.73v-2.67h-1.15v-1.76h-0.32v1.76
	h-1.15V62h-0.73v6.72h-1.6v-5.02h-0.4V63.3h-3.07v0.41h-0.4v9.08h0.32v-8.76h0.4v-0.41h2.42v0.41h0.4v5.02h3.96v-0.32h-1.72v-6.4
	h0.73v-2.67h1.97v2.67h0.73v9.25h-3.59v0.32h8.73h14.17h2.07h0.91h1.68h0.29h1.68h0.29h1.68h0.71h1.74h1.57h0.12h5.99h0.01h1.56
	h1.77h9.78h4.76h5.71h16.36v-0.32H96.76v-3.98h1.13v-8.91h0.4v-0.41h2.42v0.41h0.4v9.94h1.06V60.3h3.23v9.16h3.47v4.43h0.32v-4.75
	H105.74z M72.84,56.22h5.35v2.6h-5.35V56.22z M66.25,41.53l0.83,1.32v20.64L66.6,51.66v-0.04h0l-0.4-10.09H66.25z M63.15,36.13h2.51
	l0.62,15.54v19.91h-0.69V44.74h-0.32v26.83h-0.69V44.74h-0.32v26.83h-0.69V44.74h-0.32v26.83h-0.69v-19.9h0L63.15,36.13z
	 M62.44,41.53h0.17l-1,25.21V42.84L62.44,41.53z M52.54,49.62l1.81-0.24l2,0.24v0.86h-3.82V49.62z M36.11,61.51v-1.59h10.94v1.59
	H36.11z M47.04,61.84v9.74H36.11v-9.74H47.04z M35.78,61.51h-0.81l0.81-1.21V61.51z M47.37,60.29l0.83,1.22h-0.83V60.29z
	 M29.67,71.57v-6.15h2.53v3.02h0.32v-5.28h1.96v8.41H29.67z M34.81,61.84h0.97v9.74h-0.97V61.84z M47.37,71.57v-9.74h0.97v9.74
	H47.37z M48.66,71.57v-7.95h2.07v7.95H48.66z M51.96,71.57V52.1h1.04v19.48H51.96z M53.93,71.57V52.1h1.04v19.48H53.93z
	 M55.91,71.57V52.1h1.04v19.48H55.91z M57.27,71.57v-19.8h-1.68v19.8h-0.29v-19.8h-1.68v19.8h-0.29v-19.8h-1.68v19.8h-0.58V50.8
	h1.16h4.46h0.97v20.77H57.27z M57.98,71.57V56.94l1.74,1.74v12.9H57.98z M60.04,71.57V45.64h1.25v25.93H60.04z M62.21,59.79v11.78
	h-0.47L62.21,59.79z M66.6,71.57V59.79l0.47,11.78H66.6z M67.4,71.57V45.64h1.25v25.93H67.4z M68.97,71.57v-9.2h1.77v9.2H68.97z
	 M71.06,71.57V59.14h1.45h6h1.68v12.43H71.06z M80.52,71.57V62h4.76v9.58H80.52z M85.6,71.57V59.14h5.06v12.43H85.6z M96.44,67.27
	v4.31h-5.45v-5.41h5.04v-0.32h-1.54v-2.57h3.08v3.99H96.44z M65.59,36.57h-2.36v6.62h2.36V36.57z M65.26,38.14h-0.69v-1.25h0.69
	V38.14z M64.25,40.04v1.25h-0.69v-1.25H64.25z M63.55,39.72v-1.25h0.69v1.25H63.55z M64.57,40.04h0.69v1.25h-0.69V40.04z
	 M64.57,39.72v-1.25h0.69v1.25H64.57z M64.25,36.89v1.25h-0.69v-1.25H64.25z M63.55,41.61h0.69v1.25h-0.69V41.61z M64.57,42.87
	v-1.25h0.69v1.25H64.57z M86.49,60.8h0.32V63h-0.32V60.8z M87.97,60.8h0.32V63h-0.32V60.8z M89.45,60.8h0.32V63h-0.32V60.8z
	 M86.49,64.16h0.32v2.2h-0.32V64.16z M87.97,64.16h0.32v2.2h-0.32V64.16z M89.45,64.16h0.32v2.2h-0.32V64.16z M86.49,67.52h0.32v2.2
	h-0.32V67.52z M87.97,67.52h0.32v2.2h-0.32V67.52z M89.45,67.52h0.32v2.2h-0.32V67.52z M46.37,63.18h-9.54v-0.35h9.54V63.18z
	 M46.37,64.45h-9.54v-0.35h9.54V64.45z M46.37,65.73h-9.54v-0.35h9.54V65.73z M46.37,67h-9.54v-0.35h9.54V67z M46.37,68.27h-9.54
	v-0.35h9.54V68.27z M46.37,69.55h-9.54V69.2h9.54V69.55z M46.37,70.82h-9.54v-0.35h9.54V70.82z M60.8,48.15h-0.32v-1.55h0.32V48.15z
	 M68.16,48.15h-0.32v-1.55h0.32V48.15z M60.8,51.36h-0.32v-1.55h0.32V51.36z M68.16,51.36h-0.32v-1.55h0.32V51.36z M60.8,54.58
	h-0.32v-1.55h0.32V54.58z M68.16,54.58h-0.32v-1.55h0.32V54.58z M60.8,57.8h-0.32v-1.55h0.32V57.8z M68.16,57.8h-0.32v-1.55h0.32
	V57.8z M60.8,61.01h-0.32v-1.55h0.32V61.01z M68.16,61.01h-0.32v-1.55h0.32V61.01z M60.8,64.23h-0.32v-1.55h0.32V64.23z
	 M68.16,64.23h-0.32v-1.55h0.32V64.23z M60.8,67.45h-0.32v-1.55h0.32V67.45z M68.16,67.45h-0.32v-1.55h0.32V67.45z M60.8,70.66
	h-0.32v-1.55h0.32V70.66z M68.16,70.66h-0.32v-1.55h0.32V70.66z"/>
    <g>
	<path class="st3" d="M33.81,28.68c1.27,0,2.54,0,3.81,0c0.04,0.01,0.08,0.02,0.13,0.02c0.44,0.01,0.89,0.01,1.33,0.02
		c0.69,0.02,1.39,0.03,2.08,0.05c1.06,0.03,2.12,0.08,3.18,0.17c0.48,0.04,0.95,0.08,1.42,0.17c0.18,0.03,0.36,0.09,0.53,0.14
		c0.09,0.03,0.14,0.09,0.15,0.19c0.04,0.41,0.1,0.82,0.14,1.23c0.05,0.51,0.08,1.02,0.08,1.53c0,0.05,0.01,0.09,0.02,0.14
		c0,0.75,0,1.51,0,2.26c-0.01,0.05-0.02,0.1-0.02,0.15c0,0.68-0.06,1.35-0.12,2.02c-0.06,0.71-0.15,1.41-0.26,2.11
		c-0.18,1.14-0.41,2.28-0.71,3.39c-0.53,1.94-1.24,3.8-2.21,5.56c-1.06,1.95-2.38,3.69-4,5.22c-1.15,1.09-2.42,2.02-3.78,2.82
		c-0.04,0.02-0.07,0.05-0.11,0.08c-0.02,0-0.03,0-0.05,0c-0.06-0.03-0.11-0.07-0.17-0.1c-1.87-0.95-3.54-2.17-5-3.68
		c-1.25-1.29-2.3-2.73-3.18-4.29c-0.94-1.66-1.66-3.42-2.22-5.24c-0.45-1.48-0.79-2.98-1.03-4.51c-0.1-0.64-0.18-1.27-0.24-1.91
		c-0.06-0.58-0.1-1.17-0.14-1.76c-0.02-0.31-0.03-0.61-0.05-0.92c0-0.04-0.02-0.08-0.03-0.12c0-0.49,0-0.97,0-1.46
		c0.01-0.04,0.03-0.09,0.03-0.13c0.02-0.39,0.04-0.78,0.07-1.16c0.03-0.34,0.08-0.69,0.14-1.03c0.06-0.33,0.09-0.36,0.42-0.43
		c0.35-0.07,0.71-0.13,1.07-0.16c0.59-0.06,1.19-0.1,1.78-0.14c0.65-0.04,1.31-0.07,1.96-0.09c0.79-0.03,1.58-0.05,2.38-0.07
		c0.82-0.02,1.65-0.03,2.47-0.04C33.74,28.7,33.77,28.68,33.81,28.68z"/>
        <path class="st4" d="M41.7,41.04c0-0.04,0-0.08,0-0.12c-0.01-0.63-0.01-1.26-0.03-1.88c-0.01-0.29-0.04-0.59-0.06-0.88
		c0-0.03-0.01-0.06-0.02-0.09c-0.21-0.53-0.55-0.93-1.12-1.06c-0.46-0.11-0.9-0.03-1.32,0.19c-0.04,0.02-0.08,0.05-0.11,0.09
		c-0.39,0.45-0.61,0.98-0.66,1.58c-0.05,0.61,0.07,1.19,0.27,1.75c0.05,0.13,0.1,0.26,0.15,0.38c0.16,0.41,0.42,0.75,0.74,1.05
		c0.14,0.14,0.29,0.27,0.44,0.4c0.04,0.04,0.1,0.06,0.15,0.08c0.57,0.18,1.13,0.15,1.68-0.06c0.43-0.16,0.81-0.4,1.17-0.67
		c0.34-0.25,0.66-0.53,0.97-0.82c0.03-0.03,0.06-0.05,0.1-0.09c0.2,0.23,0.39,0.46,0.59,0.7c-0.03,0.02-0.05,0.04-0.07,0.05
		c-0.85,0.51-1.73,0.94-2.68,1.21c-0.47,0.14-0.95,0.22-1.44,0.2c-0.28-0.01-0.55-0.08-0.81-0.2c-0.36-0.16-0.68-0.36-0.95-0.65
		c-0.19-0.2-0.35-0.41-0.49-0.65c-0.18-0.3-0.34-0.61-0.51-0.92c-0.03-0.06-0.08-0.1-0.15-0.12c-0.34-0.1-0.69-0.17-1.03-0.22
		c-0.32-0.05-0.64-0.1-0.97-0.14c-0.03,0-0.05,0-0.08,0c-0.04,0.1-0.05,0.25-0.03,0.39c0.26,0.04,0.51,0.08,0.77,0.12
		c0.25,0.04,0.51,0.07,0.76,0.12c0,0.01,0,0.02,0,0.03c-0.52,0.09-1.05,0.18-1.59,0.27c-0.01,0.05-0.02,0.1-0.03,0.16
		c-0.14,0.95-0.17,1.91-0.2,2.86c-0.02,0.62-0.06,1.24-0.09,1.86c-0.01,0.11-0.02,0.22-0.03,0.33c-0.01,0.06-0.01,0.12-0.01,0.2
		c0.56-0.08,1.11-0.16,1.67-0.25c0.01-0.08,0.02-0.17,0.03-0.25c0.06-0.38,0.24-0.7,0.5-0.96c0.33-0.33,0.73-0.55,1.17-0.7
		c0.01,0,0.01,0,0.04,0c-0.03,0.03-0.05,0.05-0.08,0.07c-0.2,0.17-0.4,0.33-0.59,0.5c-0.22,0.19-0.38,0.43-0.51,0.69
		c-0.09,0.18-0.11,0.53,0.13,0.73c0.09,0.07,0.18,0.13,0.28,0.19c0.19,0.1,0.39,0.2,0.59,0.3c0.04,0.02,0.07,0.04,0.11,0.08
		c-0.02,0-0.05,0-0.07,0c-0.51-0.11-1.02-0.2-1.54-0.21c-0.33-0.01-0.67,0.01-1,0.02c-0.14,0.01-0.27,0.03-0.41,0.04
		c-0.08,0.01-0.12,0.04-0.15,0.12c-0.22,0.66-0.37,1.34-0.35,2.04c0,0.02,0,0.05-0.02,0.07c-0.01-0.05-0.02-0.1-0.03-0.15
		c-0.06-0.3-0.13-0.59-0.23-0.88c-0.2-0.59-0.59-1-1.16-1.24c-0.37-0.16-0.76-0.26-1.16-0.35c-0.03-0.01-0.07-0.02-0.11-0.03
		c0.17-0.08,0.85-0.13,1.35-0.05c0.45,0.07,0.87,0.23,1.27,0.47c0-0.04,0-0.06,0-0.09c-0.04-0.37-0.08-0.73-0.11-1.1
		c-0.07-0.96-0.05-1.92-0.04-2.88c0-0.53-0.02-1.05-0.03-1.58c0-0.08-0.04-0.11-0.1-0.14c-0.35-0.15-0.7-0.31-1.05-0.47
		c-0.03-0.01-0.07-0.03-0.1-0.05c0-0.01,0-0.02,0.01-0.03c0.38-0.01,0.75-0.03,1.13-0.04c0-0.01,0-0.02,0-0.03
		c-0.69-0.18-1.39-0.33-2.13-0.23c-0.03-0.06-0.06-0.11-0.08-0.18c-0.12-0.36-0.25-0.71-0.35-1.07c-0.21-0.73-0.4-1.46-0.61-2.19
		c-0.06-0.22-0.14-0.43-0.22-0.65c-0.07-0.21-0.21-0.39-0.37-0.53c-0.29-0.26-0.61-0.48-0.94-0.69c-0.04-0.02-0.08-0.05-0.13-0.06
		c0.03,0.03,0.06,0.06,0.09,0.08c0.29,0.26,0.55,0.55,0.76,0.88c0.15,0.23,0.27,0.48,0.35,0.74c0.11,0.36,0.23,0.71,0.34,1.06
		c0.15,0.53,0.25,1.07,0.27,1.62c0.01,0.34-0.02,0.67-0.14,1c-0.04,0.1-0.08,0.2-0.13,0.31c0.63,0.1,1.27,0.13,1.9,0.17
		c-0.02,0.08-0.34,0.5-0.54,0.69c-0.03-0.01-0.08-0.02-0.11-0.03c-0.59-0.21-1.2-0.29-1.83-0.25c-0.63,0.04-1.22,0.23-1.77,0.51
		c-0.66,0.34-1.23,0.79-1.75,1.3c-0.11,0.11-0.24,0.22-0.35,0.32c0,0,0-0.02,0.01-0.04c0.16-0.38,0.32-0.77,0.49-1.15
		c0.02-0.05,0.06-0.09,0.11-0.12c0.71-0.49,1.47-0.87,2.3-1.12c0.24-0.07,0.48-0.16,0.72-0.23c0.09-0.03,0.14-0.08,0.19-0.16
		c0.21-0.42,0.35-0.86,0.41-1.33c0.08-0.65,0.02-1.29-0.19-1.91c-0.12-0.35-0.29-0.68-0.52-0.97c-0.03-0.03-0.05-0.06-0.09-0.1
		c-0.04,0.1-0.08,0.2-0.13,0.28c-0.15,0.25-0.31,0.49-0.47,0.73c-0.05,0.07-0.06,0.13-0.02,0.21c0.08,0.16,0.14,0.32,0.21,0.49
		c0.02,0.04,0.03,0.07,0.05,0.12c-0.04,0-0.06,0-0.09,0c-0.2-0.04-0.39-0.08-0.59-0.11c-0.08-0.01-0.12-0.05-0.15-0.13
		c-0.26-0.7-0.3-1.42-0.15-2.15c0.09-0.42,0.23-0.82,0.39-1.22c0.08-0.2,0.15-0.41,0.23-0.62c0.01-0.02,0.02-0.04,0.03-0.07
		c0.02,0.03,0.03,0.05,0.04,0.07c0.11,0.25,0.27,0.47,0.47,0.65c0.2,0.18,0.42,0.36,0.63,0.52c0.3,0.24,0.61,0.47,0.88,0.74
		c0.52,0.51,0.84,1.12,0.94,1.84c0.05,0.37,0.09,0.74,0.14,1.11c0.01,0.06,0.02,0.12,0.03,0.18c0.57,0.2,1.13,0.39,1.7,0.59
		c0-0.01,0.01-0.01,0.01-0.02c-0.29-0.4-0.58-0.8-0.89-1.22c0.12,0.02,0.18,0.09,0.26,0.13c0.08,0.04,0.15,0.09,0.23,0.14
		c0.08,0.05,0.15,0.09,0.23,0.14c0.08,0.05,0.16,0.09,0.23,0.14c0.08,0.05,0.15,0.09,0.24,0.14c0-0.03,0.01-0.05,0.01-0.07
		c0.01-0.47,0.01-0.94,0.02-1.41c0.01-0.52,0-1.04-0.13-1.54c-0.05-0.18-0.13-0.35-0.19-0.52c-0.03-0.07-0.08-0.11-0.15-0.14
		C34,34.97,33.81,34.97,33.63,35c-0.22,0.04-0.42,0.12-0.62,0.21c-0.23,0.11-0.46,0.23-0.69,0.35c-0.09,0.04-0.18,0.08-0.28,0.12
		c0-0.1,0.29-0.85,0.41-1.1c0.03,0,0.06,0,0.1,0c0.39,0,0.78,0.01,1.17,0.02c0.28,0,0.57,0.01,0.85,0.01c0.06,0,0.11-0.01,0.16-0.05
		c0.52-0.38,0.77-0.89,0.73-1.53c-0.01-0.1-0.02-0.21-0.04-0.34c-0.41,0.36-0.74,0.75-1.13,1.1c-0.09-0.34-0.18-0.66-0.27-1
		c0.04-0.03,0.08-0.06,0.13-0.09c0.2-0.1,0.4-0.21,0.6-0.31c0.14-0.07,0.28-0.13,0.42-0.21c0.06-0.03,0.12-0.04,0.19-0.02
		c0.41,0.09,0.67,0.38,0.72,0.81c0.05,0.49-0.08,0.93-0.31,1.35c-0.02,0.04-0.04,0.08-0.06,0.11c0,0,0,0.01,0.01,0.02
		c0.09,0,0.19,0.01,0.29,0.01c0.29,0.03,0.56,0.13,0.81,0.26c0.21,0.11,0.41,0.23,0.62,0.33c0.22,0.11,0.45,0.23,0.68,0.32
		c0.29,0.12,0.59,0.15,0.89,0.06c0.07-0.02,0.15-0.05,0.22-0.08c0.02-0.01,0.05-0.04,0.05-0.07c0-0.11,0-0.21-0.02-0.32
		c-0.02-0.13-0.1-0.21-0.22-0.23c-0.12-0.02-0.25-0.04-0.37-0.05c-0.24-0.02-0.24-0.01-0.39-0.2c-0.46-0.57-0.96-1.11-1.46-1.64
		c-0.43-0.46-0.86-0.92-1.28-1.39c-0.25-0.28-0.48-0.58-0.71-0.88c-0.09-0.11-0.15-0.24-0.23-0.37c0.06-0.03,0.09,0,0.12,0.02
		c0.25,0.13,0.48,0.28,0.7,0.45c0.66,0.51,1.26,1.09,1.83,1.69c0.75,0.79,1.53,1.54,2.35,2.26c0.02,0.02,0.05,0.04,0.09,0.07
		c0.18-0.16,0.36-0.32,0.56-0.49c-0.01,0.07-0.01,0.1-0.01,0.14c-0.05,0.27-0.1,0.53-0.15,0.8c-0.01,0.06,0,0.11,0.03,0.16
		c0.14,0.22,0.27,0.44,0.41,0.66c0.01,0.02,0.02,0.05,0.02,0.08c-0.03-0.02-0.06-0.04-0.1-0.06c-0.23-0.16-0.46-0.32-0.68-0.48
		c-0.07-0.05-0.12-0.05-0.19-0.02c-0.17,0.08-0.33,0.15-0.5,0.23c-0.16,0.07-0.32,0.14-0.5,0.16c-0.17,0.02-0.33-0.01-0.48-0.07
		c-0.43-0.19-0.86-0.37-1.3-0.55c-0.24-0.1-0.48-0.18-0.74-0.24c-0.01,0.03-0.02,0.06-0.03,0.09c-0.13,0.65-0.25,1.3-0.32,1.96
		c-0.06,0.51-0.09,1.02-0.08,1.54c0,0.02,0,0.05,0.01,0.08c0.46-0.3,0.91-0.59,1.36-0.89c0.01,0.01,0.01,0.02,0.02,0.02
		c-0.21,0.27-0.44,0.52-0.66,0.76c-0.23,0.25-0.47,0.49-0.76,0.72c0.12,0.01,0.23-0.01,0.33-0.03c0.3-0.04,0.6-0.1,0.89-0.14
		c0.18-0.03,0.37-0.02,0.55,0.02c0.29,0.06,0.52,0.21,0.69,0.45c0.02,0.03,0.05,0.06,0.07,0.09c0,0,0.01,0,0.02,0.01
		c-0.02-0.13-0.04-0.26-0.05-0.39c-0.05-0.75,0.1-1.44,0.52-2.07c0.19-0.28,0.43-0.48,0.74-0.62c0.37-0.17,0.76-0.27,1.17-0.26
		c0.46,0.02,0.84,0.2,1.14,0.55c0.25,0.29,0.4,0.64,0.51,1.01c0.05,0.17,0.06,0.34,0.07,0.51c0.02,0.41-0.03,0.82-0.1,1.23
		c-0.08,0.43-0.19,0.85-0.33,1.26c-0.01,0.03-0.03,0.07-0.04,0.1C41.73,41.03,41.72,41.03,41.7,41.04z"/>
</g>
    <g>
	<path class="st5" d="M53.55,84.77c-0.54,0-1.05-0.1-1.53-0.3c-0.48-0.2-0.89-0.49-1.25-0.85c-0.36-0.37-0.64-0.79-0.84-1.27
		c-0.2-0.48-0.3-1-0.3-1.56s0.1-1.08,0.3-1.56c0.2-0.48,0.48-0.91,0.84-1.27c0.36-0.37,0.78-0.65,1.25-0.85
		c0.47-0.2,0.98-0.3,1.53-0.3s1.05,0.1,1.53,0.3c0.47,0.2,0.89,0.49,1.25,0.85c0.36,0.36,0.64,0.79,0.85,1.27
		c0.2,0.48,0.3,1,0.3,1.56s-0.1,1.08-0.3,1.56c-0.2,0.48-0.48,0.91-0.85,1.27c-0.36,0.36-0.78,0.65-1.25,0.85
		C54.6,84.67,54.09,84.77,53.55,84.77z M53.55,84.3c0.48,0,0.93-0.09,1.34-0.27s0.78-0.43,1.09-0.75c0.31-0.32,0.55-0.69,0.72-1.12
		c0.17-0.43,0.26-0.89,0.26-1.38c0-0.49-0.09-0.95-0.26-1.38s-0.41-0.8-0.72-1.12c-0.31-0.32-0.67-0.56-1.09-0.75
		s-0.86-0.27-1.34-0.27s-0.93,0.09-1.34,0.27s-0.78,0.43-1.09,0.75c-0.31,0.32-0.55,0.69-0.72,1.12s-0.26,0.89-0.26,1.38
		c0,0.49,0.09,0.95,0.26,1.38c0.17,0.43,0.41,0.8,0.72,1.12c0.31,0.32,0.67,0.56,1.09,0.75S53.07,84.3,53.55,84.3z"/>
        <path class="st5"
              d="M58.65,84.65v-5.41h0.56l2.02,4.26l2.01-4.26h0.56v5.41h-0.36v-5.07l-2.21,4.69L59,79.6v5.06H58.65z"/>
        <path class="st5" d="M64.49,84.65l2.26-5.41h0.44l2.25,5.41h-0.39l-0.75-1.83h-2.68l-0.76,1.83H64.49z M65.75,82.5h2.42l-1.21-2.93
		L65.75,82.5z"/>
        <path class="st5" d="M70.14,84.65v-5.41h0.36v2.52h3.45v-2.52h0.36v5.41h-0.36v-2.56h-3.45v2.56H70.14z"/>
        <path class="st5" d="M75,84.65l2.26-5.41h0.44l2.25,5.41h-0.39l-0.75-1.83h-2.68l-0.76,1.83H75z M76.26,82.5h2.42l-1.21-2.93
		L76.26,82.5z"/>
        <path class="st5" d="M20.64,94.78v-7.73h0.51v7.26h4.77v0.47H20.64z"/>
        <path class="st5" d="M26.91,94.78v-5.41h0.36v5.41H26.91z"/>
        <path class="st5" d="M30.05,94.78V89.7h-2.01v-0.33h4.38v0.33H30.4v5.08H30.05z"/>
        <path class="st5" d="M33.19,94.78v-5.41h0.36v2.52h3.45v-2.52h0.36v5.41h-0.36v-2.56h-3.45v2.56H33.19z"/>
        <path class="st5" d="M40.67,94.86c-0.43,0-0.8-0.09-1.13-0.27c-0.32-0.18-0.58-0.45-0.76-0.8c-0.18-0.35-0.27-0.78-0.27-1.28v-3.15
		h0.36v3.15c0,0.43,0.08,0.79,0.23,1.09c0.15,0.3,0.37,0.53,0.64,0.69s0.58,0.24,0.93,0.24s0.66-0.08,0.93-0.24s0.48-0.39,0.64-0.69
		c0.16-0.3,0.23-0.67,0.23-1.09v-3.15h0.36v3.15c0,0.5-0.09,0.93-0.27,1.28s-0.43,0.62-0.76,0.8C41.48,94.77,41.1,94.86,40.67,94.86
		z"/>
        <path class="st5" d="M43.18,94.78l2.26-5.41h0.44l2.25,5.41h-0.39L47,92.95h-2.68l-0.76,1.83H43.18z M44.44,92.63h2.42l-1.21-2.93
		L44.44,92.63z"/>
        <path class="st5" d="M48.83,94.78v-5.41h0.39l3.49,4.79v-4.79h0.36v5.41h-0.31l-3.57-4.89v4.89H48.83z"/>
        <path class="st5" d="M54.35,94.78v-5.41h0.36v5.41H54.35z"/>
        <path class="st5" d="M55.41,94.78l2.26-5.41h0.44l2.25,5.41h-0.39l-0.75-1.83h-2.68l-0.76,1.83H55.41z M56.67,92.63h2.42
		l-1.21-2.93L56.67,92.63z"/>
        <path class="st5" d="M61.05,94.78v-5.41h0.39l3.49,4.79v-4.79h0.36v5.41h-0.31l-3.57-4.89v4.89H61.05z"/>
        <path class="st5" d="M68.46,94.78l3.23-7.73h0.63l3.21,7.73h-0.55l-1.07-2.62h-3.83l-1.08,2.62H68.46z M70.26,91.71h3.46
		l-1.72-4.19L70.26,91.71z"/>
        <path class="st5"
              d="M76.25,94.78v-5.41h0.56l2.02,4.26l2.01-4.26h0.56v5.41h-0.36v-5.07l-2.21,4.69l-2.22-4.67v5.06H76.25z"/>
        <path class="st5" d="M82.67,94.78v-5.41h3.74v0.33h-3.39v2.18h2.21v0.33h-2.21v2.23h3.42v0.33H82.67z"/>
        <path class="st5" d="M87.33,94.78v-5.41h2.18c0.37,0,0.68,0.07,0.93,0.2c0.25,0.13,0.45,0.31,0.58,0.53
		c0.13,0.22,0.2,0.48,0.2,0.77c0,0.35-0.1,0.66-0.3,0.92c-0.2,0.26-0.49,0.44-0.87,0.53l1.2,2.47h-0.39l-1.17-2.41h-2v2.41H87.33z
		 M87.68,92.03h1.8c0.44,0,0.78-0.11,1.02-0.34s0.35-0.5,0.35-0.83c0-0.33-0.12-0.61-0.35-0.83s-0.57-0.33-1.02-0.33h-1.8V92.03z"/>
        <path class="st5" d="M92.19,94.78v-5.41h0.36v5.41H92.19z"/>
        <path class="st5" d="M96.33,94.86c-0.39,0-0.76-0.07-1.09-0.22c-0.34-0.14-0.63-0.34-0.88-0.6s-0.45-0.55-0.59-0.89
		c-0.14-0.34-0.21-0.7-0.21-1.09s0.07-0.75,0.21-1.09c0.14-0.34,0.34-0.63,0.59-0.89c0.25-0.25,0.54-0.45,0.88-0.6
		s0.7-0.22,1.09-0.22c0.27,0,0.53,0.03,0.78,0.09s0.49,0.15,0.71,0.28s0.42,0.28,0.6,0.46l-0.23,0.27c-0.22-0.24-0.5-0.43-0.83-0.57
		c-0.33-0.14-0.67-0.21-1.02-0.21c-0.34,0-0.66,0.06-0.96,0.19c-0.29,0.13-0.55,0.3-0.76,0.53c-0.22,0.22-0.39,0.48-0.51,0.78
		c-0.12,0.3-0.18,0.62-0.18,0.96c0,0.35,0.06,0.67,0.18,0.96c0.12,0.3,0.29,0.56,0.51,0.78c0.22,0.22,0.47,0.4,0.76,0.53
		c0.29,0.13,0.61,0.19,0.96,0.19c0.35,0,0.69-0.07,1.02-0.21c0.33-0.14,0.61-0.33,0.83-0.56l0.23,0.27
		c-0.18,0.19-0.38,0.34-0.6,0.46s-0.46,0.22-0.71,0.28S96.6,94.86,96.33,94.86z"/>
        <path class="st5" d="M98.84,94.78l2.26-5.41h0.44l2.25,5.41h-0.39l-0.75-1.83h-2.68l-0.76,1.83H98.84z M100.11,92.63h2.42
		l-1.21-2.93L100.11,92.63z"/>
        <path class="st5" d="M104.49,94.78v-5.41h0.39l3.49,4.79v-4.79h0.36v5.41h-0.31l-3.57-4.89v4.89H104.49z"/>
        <path class="st5" d="M43.28,105.02c-0.56,0-1.08-0.1-1.56-0.31s-0.9-0.49-1.26-0.86c-0.36-0.36-0.64-0.79-0.84-1.27
		c-0.2-0.48-0.3-1-0.3-1.55c0-0.55,0.1-1.07,0.3-1.55c0.2-0.48,0.48-0.91,0.84-1.27c0.36-0.36,0.78-0.65,1.26-0.86s1-0.31,1.56-0.31
		c0.38,0,0.75,0.04,1.11,0.13c0.36,0.09,0.69,0.22,1.01,0.4c0.32,0.18,0.6,0.4,0.86,0.66l-0.33,0.39c-0.32-0.35-0.71-0.62-1.19-0.81
		c-0.48-0.2-0.96-0.29-1.46-0.29c-0.49,0-0.95,0.09-1.36,0.27s-0.78,0.43-1.09,0.75c-0.31,0.32-0.56,0.69-0.73,1.12
		c-0.17,0.42-0.26,0.88-0.26,1.38c0,0.49,0.09,0.95,0.26,1.38c0.17,0.42,0.42,0.79,0.73,1.12c0.31,0.32,0.68,0.57,1.09,0.75
		s0.87,0.27,1.36,0.27c0.5,0,0.99-0.1,1.46-0.3c0.47-0.2,0.87-0.47,1.19-0.81l0.33,0.39c-0.26,0.26-0.54,0.49-0.86,0.66
		c-0.32,0.18-0.65,0.31-1.01,0.4C44.03,104.98,43.66,105.02,43.28,105.02z"/>
        <path class="st5" d="M49.9,104.99c-0.38,0-0.74-0.07-1.07-0.21s-0.62-0.34-0.88-0.59c-0.25-0.25-0.45-0.55-0.59-0.89
		c-0.14-0.34-0.21-0.7-0.21-1.09s0.07-0.76,0.21-1.09s0.34-0.63,0.59-0.89c0.25-0.25,0.55-0.45,0.88-0.59s0.69-0.21,1.07-0.21
		c0.38,0,0.74,0.07,1.07,0.21s0.62,0.34,0.88,0.59c0.25,0.26,0.45,0.55,0.59,0.89s0.21,0.7,0.21,1.09s-0.07,0.76-0.21,1.09
		c-0.14,0.34-0.34,0.63-0.59,0.89c-0.25,0.25-0.55,0.45-0.88,0.59S50.28,104.99,49.9,104.99z M49.9,104.66
		c0.33,0,0.65-0.06,0.94-0.19c0.29-0.13,0.55-0.3,0.76-0.52c0.22-0.22,0.39-0.48,0.51-0.78s0.18-0.62,0.18-0.97
		c0-0.34-0.06-0.67-0.18-0.97c-0.12-0.3-0.29-0.56-0.51-0.78c-0.22-0.22-0.47-0.4-0.76-0.52c-0.29-0.13-0.6-0.19-0.94-0.19
		s-0.65,0.06-0.94,0.19c-0.29,0.13-0.55,0.3-0.76,0.52c-0.22,0.22-0.39,0.48-0.51,0.78c-0.12,0.3-0.18,0.62-0.18,0.97
		c0,0.35,0.06,0.67,0.18,0.97s0.29,0.56,0.51,0.78c0.22,0.22,0.47,0.4,0.76,0.52C49.25,104.59,49.57,104.66,49.9,104.66z"/>
        <path class="st5"
              d="M53.67,104.9v-5.41h0.56l2.02,4.26l2.01-4.26h0.56v5.41h-0.36v-5.07l-2.21,4.69l-2.22-4.67v5.06H53.67z"/>
        <path class="st5"
              d="M60.09,104.9v-5.41h0.56l2.02,4.26l2.01-4.26h0.56v5.41h-0.36v-5.07l-2.21,4.69l-2.22-4.67v5.06H60.09z"/>
        <path class="st5" d="M68.56,104.99c-0.43,0-0.8-0.09-1.13-0.27c-0.32-0.18-0.58-0.45-0.76-0.8c-0.18-0.35-0.27-0.78-0.27-1.28
		v-3.15h0.36v3.15c0,0.43,0.08,0.79,0.23,1.09c0.15,0.3,0.37,0.53,0.64,0.69s0.58,0.24,0.93,0.24s0.66-0.08,0.93-0.24
		s0.48-0.39,0.64-0.69c0.16-0.3,0.23-0.67,0.23-1.09v-3.15h0.36v3.15c0,0.5-0.09,0.93-0.27,1.28s-0.43,0.62-0.76,0.8
		C69.36,104.9,68.99,104.99,68.56,104.99z"/>
        <path class="st5" d="M71.88,104.9v-5.41h0.39l3.49,4.79v-4.79h0.36v5.41h-0.31l-3.57-4.89v4.89H71.88z"/>
        <path class="st5" d="M77.4,104.9v-5.41h0.36v5.41H77.4z"/>
        <path class="st5" d="M80.54,104.9v-5.08h-2.01v-0.33h4.38v0.33H80.9v5.08H80.54z"/>
        <path class="st5" d="M85.33,104.9v-2.26l-2.12-3.15h0.43l1.88,2.83l1.89-2.83h0.41l-2.13,3.17v2.24H85.33z"/>
</g>
</svg>
